<svg width="315" height="72" viewBox="0 0 315 72" fill="none" xmlns="http://www.w3.org/2000/svg">
<g filter="url(#filter0_d_1_31)">
<path d="M6 37.8493L20.0196 33.8774C32.4315 30.361 45.5736 30.3429 57.9951 33.825L72.3505 37.8493M301.944 19.4525L299.376 20.9235C297.705 21.8805 295.652 21.8805 293.981 20.9236C292.102 19.8476 291.043 17.7579 291.285 15.6064L291.619 12.6422C291.825 10.8165 292.714 9.13621 294.107 7.93899C295.426 6.80573 297.108 6.18262 298.847 6.18262H299.423C300.22 6.18262 301.012 6.31998 301.762 6.58868C303.712 7.2865 305.248 8.81818 305.951 10.7656L306.823 13.178C307.593 15.3095 307.763 17.6114 307.316 19.8331L307.223 20.2948C306.698 22.897 305.449 25.2978 303.618 27.22L302.648 28.2384C300.966 30.0047 298.958 31.4294 296.736 32.4344L296.484 32.5483C292.345 34.4199 287.698 34.8533 283.284 33.7794L278.574 32.6337C273.91 31.499 269.059 31.3521 264.335 32.2024L232.961 37.8493M232.961 37.8493L198.996 40.262L163.451 37.8493M232.961 37.8493C236.269 38.8464 239.37 40.4314 242.116 42.5283L242.703 42.9763L245.728 44.8108C246.689 45.3938 247.555 46.1217 248.295 46.9687L248.491 47.1941C249.864 48.766 250.712 50.7448 250.913 52.8218C251.054 54.2745 250.872 55.7522 250.378 57.1257L250.23 57.5392C249.616 59.2463 248.474 60.7133 246.97 61.7269L246.167 62.2678C245.282 62.8641 244.239 63.1826 243.172 63.1826H242.771C241.396 63.1826 240.096 62.5579 239.238 61.4847C238.279 60.2868 237.992 58.6846 238.477 57.2287L239.159 55.1781C239.545 54.015 240.633 53.2302 241.859 53.2302C242.571 53.2302 243.257 53.497 243.782 53.978L246.915 56.8493M163.451 37.8493L175.036 30.9128L182.408 25.4842L191.885 16.9144C192.237 16.5964 192.613 16.3061 193.009 16.0464L193.064 16.0108C195.011 14.7363 197.377 14.2678 199.663 14.7042C201.457 15.0467 203.104 15.9284 204.384 17.2315L205.779 18.6516C206.676 19.5652 207.269 20.734 207.476 21.9978L207.553 22.4687C207.803 23.9965 207.358 25.5562 206.34 26.7225L206.192 26.892C205.3 27.9138 204.01 28.5001 202.653 28.5001H202.363C201.879 28.5001 201.401 28.3957 200.961 28.194C199.763 27.6455 198.996 26.4493 198.996 25.1324V24.1965C198.996 22.7424 200.174 21.5636 201.629 21.5636M163.451 37.8493L133.327 42.455C127.137 43.4014 120.848 43.5129 114.628 42.7866L72.3505 37.8493M72.3505 37.8493L72.4942 38.2882C72.9219 39.5947 73.5666 40.8199 74.4011 41.9124C74.7887 42.4198 75.2154 42.8961 75.6773 43.337L78.143 45.6906L81.0392 48.1032C82.6159 49.1065 84.2789 49.9671 86.0086 50.6747L87.095 51.1191L89.7223 51.8715C90.7741 52.1727 91.8628 52.3255 92.9569 52.3255H93.6991C94.8993 52.3255 96.0853 52.0667 97.1763 51.5668L97.2931 51.5133C97.8643 51.2516 98.3996 50.9177 98.8859 50.5198L99.2486 50.2231C99.7425 49.819 100.154 49.3231 100.459 48.7629L100.823 48.0962C101.14 47.516 101.244 46.8434 101.118 46.1945L101.076 45.977C100.898 45.0611 100.221 44.3224 99.3245 44.0656C98.9025 43.9447 98.4558 43.9381 98.0303 44.0464L96.9965 44.3095C96.5412 44.4254 96.1037 44.6026 95.696 44.8361L94.841 45.3257C94.4274 45.5626 94.101 45.9265 93.9103 46.3633L93.7697 46.6855C93.4134 47.5017 93.7046 48.4557 94.4559 48.9337C95.0954 49.3407 95.9209 49.3054 96.5234 48.8453L98.68 47.1985" stroke="#F6F600" stroke-width="4"/>
</g>
<defs>
<filter id="filter0_d_1_31" x="0.454834" y="0.182617" width="314.105" height="71" filterUnits="userSpaceOnUse" color-interpolation-filters="sRGB">
<feFlood flood-opacity="0" result="BackgroundImageFix"/>
<feColorMatrix in="SourceAlpha" type="matrix" values="0 0 0 0 0 0 0 0 0 0 0 0 0 0 0 0 0 0 127 0" result="hardAlpha"/>
<feOffset dy="1"/>
<feGaussianBlur stdDeviation="2.5"/>
<feComposite in2="hardAlpha" operator="out"/>
<feColorMatrix type="matrix" values="0 0 0 0 1 0 0 0 0 0.923077 0 0 0 0 0.0769231 0 0 0 0.25 0"/>
<feBlend mode="normal" in2="BackgroundImageFix" result="effect1_dropShadow_1_31"/>
<feBlend mode="normal" in="SourceGraphic" in2="effect1_dropShadow_1_31" result="shape"/>
</filter>
</defs>
</svg>
