<svg width="315" height="74" viewBox="0 0 315 74" fill="none" xmlns="http://www.w3.org/2000/svg">
<g filter="url(#filter0_d_1_27)">
<path d="M309 39.2868L295.874 35.3779C282.903 31.5151 269.091 31.4952 256.109 35.3207L242.65 39.2868M13.0558 19.9488L15.5093 21.4258C17.2395 22.4675 19.4038 22.4675 21.1341 21.4258C22.9517 20.3316 23.9696 18.2825 23.7436 16.1731L23.3623 12.6157C23.1683 10.8051 22.3139 9.12953 20.9624 7.90912C19.6016 6.68027 17.8333 6 15.9997 6H15.6268C14.7973 6 13.9745 6.14967 13.198 6.44181C11.2736 7.16589 9.77267 8.71081 9.1044 10.6553L8.14143 13.4573C7.3935 15.6336 7.2279 17.9677 7.66108 20.2278L7.7694 20.7929C8.29943 23.5583 9.57976 26.1247 11.4704 28.2114L12.2834 29.1088C14.0103 31.0147 16.1018 32.5672 18.4247 33.6712C22.6024 35.6568 27.3578 36.1232 31.8392 34.9773L36.4224 33.8053C41.0839 32.6132 45.9503 32.459 50.678 33.3535L82.0392 39.2868M82.0392 39.2868L110.908 41.4424C114.301 41.6958 117.708 41.7014 121.102 41.4592L151.549 39.2868M82.0392 39.2868C78.7328 40.3345 75.649 41.9857 72.9442 44.1569L72.2973 44.6761L69.3362 46.5636C68.3323 47.2035 67.434 47.9955 66.6734 48.9113L66.5645 49.0425C65.1535 50.7413 64.2898 52.8274 64.0869 55.0263L64.0803 55.0974C63.9429 56.5868 64.122 58.0885 64.6061 59.5038L64.8208 60.1316C65.4021 61.8313 66.5039 63.3049 67.9698 64.3432L68.8464 64.964C69.7211 65.5836 70.7666 65.9163 71.8385 65.9163H72.0679C73.5397 65.9163 74.927 65.2289 75.8185 64.0579C76.7473 62.8379 77.0247 61.2424 76.5622 59.7805L75.8082 57.3974C75.4423 56.2408 74.369 55.4547 73.1559 55.4547C72.4361 55.4547 71.7444 55.7337 71.226 56.233L68.0846 59.2589M151.549 39.2868L139.964 31.9954L132.592 26.2891L123.096 17.2628C122.757 16.9405 122.393 16.6454 122.008 16.3802L121.92 16.3198C119.99 14.9919 117.604 14.5026 115.307 14.9635C113.535 15.3192 111.918 16.2209 110.683 17.5419L109.263 19.0619C108.337 20.0529 107.731 21.2994 107.522 22.6395L107.425 23.2604C107.188 24.783 107.616 26.3341 108.601 27.5194L108.854 27.824C109.714 28.86 110.991 29.4593 112.338 29.4593H112.593C113.105 29.4593 113.611 29.3438 114.073 29.1214C115.254 28.5527 116.004 27.3581 116.004 26.0476V24.8008C116.004 23.3467 114.826 22.1679 113.371 22.1679M151.549 39.2868L181.208 44.0534C187.703 45.0974 194.314 45.2204 200.844 44.4187L242.65 39.2868M242.65 39.2868L242.493 39.7899C242.074 41.1362 241.437 42.4048 240.608 43.5455C240.214 44.0871 239.779 44.5973 239.307 45.0714L236.857 47.5293L233.961 50.0654C232.384 51.1199 230.714 52.0275 228.972 52.7767L227.905 53.2356L225.274 54.0275C224.225 54.3432 223.136 54.5037 222.04 54.5037H221.334C220.113 54.5037 218.908 54.2286 217.809 53.699L217.733 53.6627C217.145 53.3792 216.596 53.0198 216.1 52.5937L215.784 52.3215C215.268 51.8783 214.843 51.3405 214.529 50.7371L214.168 50.0413C213.856 49.4406 213.754 48.7529 213.877 48.0873L213.941 47.7371C214.108 46.8309 214.768 46.0942 215.651 45.8286C216.088 45.6969 216.554 45.6897 216.995 45.8078L217.976 46.0703C218.449 46.1969 218.903 46.3894 219.322 46.6421L220.123 47.1243C220.56 47.3873 220.902 47.7834 221.097 48.2545L221.272 48.675C221.607 49.4832 221.325 50.4159 220.598 50.9025C219.932 51.3477 219.055 51.3096 218.43 50.8083L216.32 49.1144" stroke="#F6F600" stroke-width="4"/>
</g>
<defs>
<filter id="filter0_d_1_27" x="0.425255" y="0" width="314.146" height="73.9163" filterUnits="userSpaceOnUse" color-interpolation-filters="sRGB">
<feFlood flood-opacity="0" result="BackgroundImageFix"/>
<feColorMatrix in="SourceAlpha" type="matrix" values="0 0 0 0 0 0 0 0 0 0 0 0 0 0 0 0 0 0 127 0" result="hardAlpha"/>
<feOffset dy="1"/>
<feGaussianBlur stdDeviation="2.5"/>
<feComposite in2="hardAlpha" operator="out"/>
<feColorMatrix type="matrix" values="0 0 0 0 1 0 0 0 0 0.923077 0 0 0 0 0.0769231 0 0 0 0.25 0"/>
<feBlend mode="normal" in2="BackgroundImageFix" result="effect1_dropShadow_1_27"/>
<feBlend mode="normal" in="SourceGraphic" in2="effect1_dropShadow_1_27" result="shape"/>
</filter>
</defs>
</svg>
