<svg width="111" height="24" viewBox="0 0 111 24" fill="none" xmlns="http://www.w3.org/2000/svg">
<path d="M17.3428 6.50318C15.4689 4.39515 12.623 3.46077 9.9239 3.90072C9.53945 3.96337 9.48214 4.49071 9.84312 4.63757C10.8148 5.03318 11.7055 5.64433 12.4286 6.45796C15.5393 9.95766 14.5277 15.3892 10.3657 17.5343C9.3981 18.0331 8.34714 18.2826 7.29817 18.3019C6.90853 18.309 6.77216 18.8216 7.1084 19.0186C9.46806 20.4006 12.4595 20.5534 14.9666 19.2613C19.7605 16.7905 20.9258 10.5343 17.3428 6.50318Z" fill="#B89455"/>
<path d="M94.4873 6.50318C96.3612 4.39515 99.2071 3.46077 101.906 3.90072C102.291 3.96337 102.348 4.49071 101.987 4.63757C101.015 5.03318 100.125 5.64433 99.4015 6.45796C96.2908 9.95766 97.3024 15.3892 101.464 17.5343C102.432 18.0331 103.483 18.2826 104.532 18.3019C104.922 18.309 105.058 18.8216 104.722 19.0186C102.362 20.4006 99.3706 20.5534 96.8635 19.2613C92.0696 16.7905 90.9043 10.5343 94.4873 6.50318Z" fill="#B89455"/>
<path d="M73.8112 6.47077C75.8568 4.52899 78.7716 3.83897 81.4238 4.5059C81.8016 4.60088 84.6543 5.79197 84.2822 5.90774C83.2805 6.21964 81.151 6.57517 79.4972 7.80594C76.1013 11.0297 76.4435 14.4631 80.4089 16.953C81.3308 17.5319 85.0645 16.9875 86.1081 17.0955C86.4957 17.1356 83.3007 19.6401 82.949 19.808C80.4808 20.9852 77.4871 20.8841 75.0985 19.3843C70.531 16.5164 69.8997 10.184 73.8112 6.47077Z" fill="#B89455"/>
<path d="M38.0189 6.47077C35.9732 4.52899 33.0585 3.83897 30.4063 4.5059C30.0285 4.60088 27.1757 5.79197 27.5479 5.90774C28.5496 6.21964 30.6791 6.57517 32.3329 7.80594C35.7288 11.0297 35.3865 14.4631 31.4211 16.953C30.4993 17.5319 26.7656 16.9875 25.722 17.0955C25.3344 17.1356 28.5294 19.6401 28.8811 19.808C31.3493 20.9852 34.3429 20.8841 36.7316 19.3843C41.299 16.5164 41.9304 10.184 38.0189 6.47077Z" fill="#B89455"/>
<circle cx="55.5" cy="12.5" r="9.5" fill="#B89455"/>
</svg>
