<svg width="62" height="23" viewBox="0 0 62 23" fill="none" xmlns="http://www.w3.org/2000/svg">
<path d="M47.9807 18.1924C50.5423 19.3727 53.5241 19.0883 55.8207 17.6035C56.1478 17.3921 55.989 16.886 55.5994 16.8961C54.5506 16.923 53.4897 16.72 52.5011 16.2644C48.2486 14.3047 46.9987 8.92301 49.9522 5.28966C50.6388 4.44497 51.5016 3.79515 52.455 3.35711C52.8091 3.19447 52.7286 2.67021 52.3416 2.6244C49.6259 2.30389 46.8239 3.36275 45.0448 5.5513C41.6429 9.73617 43.0824 15.935 47.9807 18.1924Z" fill="#B89455"/>
<circle cx="26" cy="21" r="2" fill="#E2C180"/>
<path d="M13.7429 18.1924C11.1813 19.3727 8.19948 19.0883 5.9029 17.6035C5.57578 17.3921 5.73461 16.886 6.12419 16.8961C7.173 16.923 8.2339 16.72 9.22249 16.2644C13.475 14.3047 14.7249 8.92301 11.7714 5.28966C11.0848 4.44497 10.2219 3.79515 9.26861 3.35711C8.91447 3.19447 8.99494 2.67021 9.38198 2.6244C12.0977 2.30389 14.8996 3.36275 16.6788 5.5513C20.0807 9.73617 18.6411 15.935 13.7429 18.1924Z" fill="#B89455"/>
<circle cx="37" cy="4" r="2" fill="#E2C180"/>
<circle cx="10.5" cy="10.5" r="10.25" transform="matrix(1 0 0 -1 21 23)" stroke="#FAE1B9" stroke-width="0.5"/>
</svg>
