<svg width="10" height="36" viewBox="0 0 10 36" fill="none" xmlns="http://www.w3.org/2000/svg">
<path d="M4.49969 0.982697L4.49972 27.5" stroke="#87837E"/>
<ellipse cx="3.5" cy="3" rx="3.5" ry="3" transform="matrix(1 0 0 -1 1 12)" fill="#87837E"/>
<path d="M6.69777 23.5092C8.12543 23.2864 9.317 22.3195 9.87585 21.0348C9.95545 20.8518 9.74417 20.6809 9.58082 20.7957C9.14098 21.1046 8.63077 21.3188 8.07977 21.4048C5.70968 21.7744 3.65036 19.8327 3.88021 17.445C3.93364 16.8899 4.11752 16.368 4.40006 15.9108C4.50504 15.7409 4.32205 15.5401 4.14392 15.6303C2.89434 16.2636 1.99911 17.5099 1.8606 18.9482C1.59582 21.6984 3.96778 23.935 6.69777 23.5092Z" fill="#87837E"/>
<path d="M4.99984 27L4.08229 29.4288L2 30.4996L4.08229 31.5704L4.99984 34L5.91804 31.5708L8 30.5L5.91804 29.4292L4.99984 27Z" stroke="#87837E"/>
</svg>
