<svg width="883" height="356" viewBox="0 0 883 356" fill="none" xmlns="http://www.w3.org/2000/svg">
<g filter="url(#filter0_f_1_8)">
<path d="M839.771 47.1671C839.46 48.2133 839.072 49.4033 838.606 50.7374C837.579 53.682 836.294 57.0288 834.893 60.7365C833.505 64.4069 832.025 68.3753 830.674 72.4132C828.01 80.3743 825.668 89.0962 825.668 96.7716C825.668 109.739 827.363 116.306 831.032 121.315C832.671 123.551 834.72 125.438 836.252 126.996C837.889 128.661 839.587 130.543 841.38 133.386C841.656 133.824 841.779 134.244 841.804 134.554C841.826 134.839 841.767 134.984 841.718 135.066C839.579 138.638 835.198 142.322 829.637 146.914C824.513 151.145 818.389 156.155 814.762 161.87C812.878 164.838 811.491 168.246 811.341 172.068C811.188 175.941 812.325 179.786 814.742 183.545C819.405 190.797 829.057 198.081 844.938 205.988C846.555 206.794 847.364 208.085 847.557 209.133C847.725 210.045 847.497 210.961 846.443 211.768C838.404 217.921 826.967 225.498 823.516 240.401C820.321 254.198 824.128 273.067 839.75 301.543C829.633 302.518 816.783 300.124 802.486 293.411C785.044 285.222 765.861 270.78 747.692 249.149C733.259 231.965 722.216 216.837 716.565 201.281C713.117 191.788 712.935 181.483 713.716 172.926C714.103 168.681 714.719 164.947 715.248 162.041C715.465 160.852 715.805 159.077 715.944 158.305C716.095 157.473 716.312 156.269 716.312 155.334C716.313 150.474 719.701 143.733 727.123 135.193C734.344 126.884 744.58 117.764 756.482 108.237C780.415 89.0828 809.811 69.2489 833.664 51.3986C836.153 49.5363 838.166 48.1562 839.771 47.1671Z" fill="#9CC4FF" stroke="#9CC4FF" stroke-width="10"/>
<path d="M61.4824 32.4853C62.7348 35.7469 64.5182 39.7344 66.6221 44.252C70.7743 53.1679 76.1472 64.0776 80.4199 74.3467C84.6164 84.4327 88.1885 94.8689 88.1885 102.808C88.1884 115.775 86.4937 122.342 82.8242 127.351C81.1859 129.587 79.1368 131.473 77.6045 133.031C75.9676 134.696 74.2697 136.578 72.4766 139.421C72.2002 139.859 72.0769 140.28 72.0527 140.59C72.0306 140.874 72.0899 141.019 72.1387 141.101C74.2777 144.673 78.6585 148.357 84.2197 152.949C89.3436 157.18 95.467 162.19 99.0947 167.905C100.978 170.873 102.365 174.281 102.516 178.103C102.668 181.976 101.531 185.821 99.1143 189.58C94.4516 196.832 84.7997 204.116 68.9189 212.023C65.84 213.557 64.8953 217.437 66.9414 220.226C73.3849 229.008 78.8194 239.858 77.5146 256.904C76.3287 272.397 69.5989 292.67 53.834 321.003C58.0803 321.033 63.2492 320.352 69.2129 318.866C78.6567 316.513 89.5618 312.276 100.961 306.416C123.78 294.685 148.09 276.704 166.164 255.185C180.597 238.001 191.64 222.872 197.291 207.316C200.739 197.823 200.921 187.518 200.141 178.961C199.753 174.716 199.138 170.982 198.608 168.076C198.392 166.887 198.052 165.112 197.912 164.34C197.762 163.508 197.544 162.305 197.544 161.37C197.544 159.204 196.613 156.018 194.242 151.728C191.921 147.526 188.468 142.704 184.03 137.383C175.16 126.747 162.745 114.578 148.726 102.039C120.713 76.9843 86.7982 50.8951 63.3135 33.3203C62.564 32.7595 61.8715 32.2579 61.2324 31.8125C61.3132 32.0296 61.3939 32.2548 61.4824 32.4853Z" fill="#9CC4FF" stroke="#9CC4FF" stroke-width="10"/>
<path d="M247.565 55.8405H664.411C674.022 55.8405 683.446 58.4998 691.639 63.5241C699.306 68.2262 705.626 74.834 709.981 82.7038L714.507 90.8796C719.018 99.0312 721.385 108.196 721.385 117.512V243.724C721.385 252.361 718.214 260.698 712.474 267.151C706.018 274.409 696.854 278.68 687.145 278.958L419.739 286.601H349.55L349.292 286.628L287.935 293.004L264.156 293.568C256.401 293.752 248.694 292.293 241.543 289.287L233.552 285.928C228.419 283.771 223.687 280.762 219.556 277.03C212.194 270.38 207.002 261.67 204.653 252.032L199.342 230.236L194.892 192.504L195.487 167.268L195.488 167.188V167.109L194.97 103.712C194.919 97.5325 196.193 91.4143 198.704 85.7682C201.532 79.4095 205.851 73.8262 211.296 69.4919L213.485 67.7487C223.171 60.0384 235.185 55.8405 247.565 55.8405Z" fill="#9CC4FF" stroke="#9CC4FF" stroke-width="10"/>
</g>
<path d="M839.771 47.1671C839.459 48.2133 839.071 49.4033 838.606 50.7374C837.578 53.682 836.293 57.0288 834.892 60.7365C833.504 64.4069 832.024 68.3753 830.673 72.4132C828.009 80.3743 825.667 89.0962 825.667 96.7716C825.667 109.739 827.362 116.306 831.031 121.315C832.67 123.551 834.719 125.438 836.251 126.996C837.888 128.661 839.586 130.543 841.379 133.386C841.655 133.824 841.779 134.244 841.803 134.554C841.825 134.839 841.766 134.984 841.717 135.066C839.578 138.638 835.197 142.322 829.636 146.914C824.512 151.145 818.389 156.155 814.761 161.87C812.878 164.838 811.49 168.246 811.34 172.068C811.188 175.941 812.324 179.786 814.741 183.545C819.404 190.797 829.056 198.081 844.937 205.988C846.554 206.794 847.363 208.085 847.556 209.133C847.724 210.045 847.497 210.961 846.443 211.768C838.403 217.921 826.966 225.498 823.515 240.401C820.32 254.198 824.128 273.067 839.749 301.543C829.632 302.518 816.783 300.124 802.486 293.411C785.043 285.222 765.861 270.78 747.692 249.149C733.259 231.965 722.215 216.837 716.565 201.281C713.116 191.788 712.935 181.483 713.715 172.926C714.102 168.681 714.718 164.947 715.247 162.041C715.464 160.852 715.804 159.077 715.944 158.305C716.094 157.473 716.312 156.269 716.312 155.334C716.312 150.474 719.7 143.733 727.122 135.193C734.343 126.884 744.579 117.764 756.482 108.237C780.415 89.0828 809.81 69.2489 833.663 51.3986C836.152 49.5363 838.165 48.1562 839.771 47.1671Z" fill="url(#paint0_linear_1_8)" stroke="#77A9F3" stroke-width="10"/>
<path d="M19.5208 40.0525C21.2237 42.9822 23.6637 46.5886 26.5706 50.7117C32.2849 58.817 39.739 68.8168 45.6604 78.2175C48.6371 82.9434 51.3289 87.6732 53.2893 92.1072C55.2115 96.4548 56.6301 100.954 56.6301 105.1C56.6301 116.873 54.329 123.338 49.4104 128.044C47.2477 130.113 44.6752 131.714 42.5383 133.127C40.286 134.616 38.0317 136.183 35.675 138.457C35.199 138.916 35.035 139.401 35.0149 139.677C35.0058 139.801 35.0253 139.865 35.0334 139.886C35.0382 139.899 35.0554 139.946 35.1448 140.028C38.85 143.422 45.3104 146.841 52.7092 150.891C59.5776 154.651 67.4296 159.045 72.0168 164.173C74.3953 166.831 76.3965 170.223 76.4417 174.297C76.4878 178.455 74.4895 182.188 71.2532 185.459C65.0414 191.737 52.6007 198.008 32.1086 204.863C28.4223 206.096 26.9784 211.035 30.304 214.418C34.2004 218.381 37.7711 223.044 39.9553 228.827C42.1604 234.665 42.8377 241.339 41.3928 249.128C38.8188 263.002 29.4991 280.462 10.0862 303.762C16.5857 303.87 24.3862 303.204 33.1829 301.756C46.5398 299.557 61.8382 295.621 77.7327 290.223C109.573 279.411 143.375 262.879 168.456 243.154C188.488 227.4 203.666 213.626 211.369 199.617C215.908 191.363 216.165 182.418 215.121 174.863C214.603 171.108 213.776 167.79 213.054 165.173C212.797 164.24 212.255 162.358 212.091 161.761C211.961 161.288 211.834 160.797 211.736 160.344C211.655 159.972 211.515 159.283 211.515 158.541C211.515 157.287 210.605 154.746 207.257 150.743C204.073 146.936 199.302 142.53 193.139 137.649C180.837 127.906 163.63 116.766 144.229 105.303C105.467 82.4018 58.5555 58.5651 26.0979 42.5203C23.2196 41.0974 20.9357 40.0926 19.1575 39.4099C19.2742 39.6173 19.3931 39.8328 19.5208 40.0525Z" fill="url(#paint1_linear_1_8)" stroke="#77A9F3" stroke-width="10"/>
<path d="M247.564 55.8405H664.41C674.021 55.8405 683.445 58.4998 691.638 63.5241C699.305 68.2262 705.625 74.834 709.98 82.7038L714.506 90.8796C719.017 99.0312 721.384 108.196 721.384 117.512V243.724C721.384 252.361 718.213 260.698 712.473 267.151C706.017 274.409 696.853 278.68 687.144 278.958L419.738 286.601H349.549L349.291 286.628L287.934 293.004L264.155 293.568C256.4 293.752 248.693 292.293 241.542 289.287L233.551 285.928C228.418 283.771 223.686 280.762 219.555 277.03C212.194 270.38 207.001 261.67 204.652 252.032L199.341 230.236L194.891 192.504L195.486 167.268L195.487 167.188V167.109L194.969 103.712C194.918 97.5325 196.192 91.4143 198.703 85.7682C201.531 79.4095 205.85 73.8262 211.295 69.4919L213.484 67.7487C223.17 60.0384 235.184 55.8405 247.564 55.8405Z" fill="white" stroke="#77A9F3" stroke-width="10"/>
<defs>
<filter id="filter0_f_1_8" x="15.8139" y="-6" width="866.792" height="362.004" filterUnits="userSpaceOnUse" color-interpolation-filters="sRGB">
<feFlood flood-opacity="0" result="BackgroundImageFix"/>
<feBlend mode="normal" in="SourceGraphic" in2="BackgroundImageFix" result="shape"/>
<feGaussianBlur stdDeviation="15" result="effect1_foregroundBlur_1_8"/>
</filter>
<linearGradient id="paint0_linear_1_8" x1="783.667" y1="40.212" x2="783.667" y2="306.754" gradientUnits="userSpaceOnUse">
<stop offset="0.278846" stop-color="#95A4E2"/>
<stop offset="0.552885" stop-color="#9FB8F0"/>
<stop offset="0.975962" stop-color="#267EFF"/>
</linearGradient>
<linearGradient id="paint1_linear_1_8" x1="110.314" y1="33.1863" x2="110.314" y2="308.775" gradientUnits="userSpaceOnUse">
<stop offset="0.28" stop-color="#95A4E2"/>
<stop offset="0.55" stop-color="#9FB8F0"/>
<stop offset="0.98" stop-color="#267EFF"/>
</linearGradient>
</defs>
</svg>
