<svg width="77" height="24" viewBox="0 0 77 24" fill="none" xmlns="http://www.w3.org/2000/svg">
<path d="M0 22.088H43.4955C43.9357 22.088 44.3731 22.0179 44.7913 21.8804L45.7306 21.5715C47.2046 21.0868 48.0781 19.571 47.7584 18.0527L47.672 17.6421C47.4816 16.7377 47.8312 15.8047 48.569 15.2481C49.4538 14.5806 50.682 14.6111 51.5326 15.3216L54.3246 17.6538C54.5878 17.8737 54.867 18.0739 55.1597 18.2526L58.4617 20.2692C60.4273 21.4696 62.6135 22.264 64.8911 22.6056L65.6705 22.7226C66.8963 22.9064 68.1429 22.9013 69.3671 22.7075L71.882 22.3093C72.7904 22.1655 73.6295 21.7365 74.2779 21.0843L74.4334 20.9278C75.4059 19.9496 75.7965 18.5344 75.4634 17.1959C75.1054 15.7574 73.9707 14.6412 72.5265 14.3069L68.3083 13.3306C67.3795 13.1156 66.4067 13.1971 65.5267 13.5637L64.419 14.025C63.3902 14.4536 62.72 15.4587 62.72 16.5733C62.72 17.7305 63.4418 18.7649 64.528 19.1642L66.4162 19.8583C67.1345 20.1223 67.9168 20.158 68.6561 19.9605L71.0381 19.3241C71.8944 19.0953 72.3641 18.1753 72.0473 17.3476C71.8261 16.7697 71.2714 16.3882 70.6527 16.3882H66.88" stroke="#B89455"/>
<path d="M55.4058 14.1282L54.6659 9.96873L53.1346 10.0927L54.4831 7.8854L54.9102 6.69325L55.2704 4.13188L56.3745 5.20009L59.5877 2.457L60.5139 3.46147L63.0101 3.27969L62.3927 5.47987L63.3453 6.49379L60.0454 7.61171L63.6219 7.79683L63.1947 8.98899L64.7441 10.8894L62.3404 11.3733L61.9132 12.5655L59.033 10.4371L60.8721 13.3964L59.5187 13.5841L58.5983 15.6757L56.8119 13.9594L55.4058 14.1282Z" fill="#E09613"/>
</svg>
