<svg width="77" height="23" viewBox="0 0 77 23" fill="none" xmlns="http://www.w3.org/2000/svg">
<path d="M59.4116 19.9176L55.7179 17.8668L54.8478 19.1329L53.9865 16.6939L53.3312 15.6102L51.5715 13.7145L53.097 13.5321L52.9967 9.30846L54.3604 9.22382L55.7946 7.17274L57.1118 9.04007L58.4995 8.94095L57.2843 12.2063L59.6848 9.54871L60.3401 10.6324L62.792 10.6297L61.6506 12.7997L62.3058 13.8834L58.8372 14.7746L62.2934 15.2154L61.5849 16.3837L62.6266 18.4176L60.168 18.7204L59.4116 19.9176Z" fill="#E09613"/>
<path d="M0 1.91197H43.4955C43.9357 1.91197 44.3731 1.98205 44.7913 2.11957L45.7306 2.42844C47.2046 2.91314 48.0781 4.42894 47.7584 5.9473L47.672 6.35788C47.4816 7.26229 47.8312 8.19524 48.569 8.75185C49.4538 9.41936 50.682 9.38889 51.5326 8.67833L54.3246 6.34613C54.5878 6.12625 54.867 5.92611 55.1597 5.74735L58.4617 3.7308C60.4273 2.53042 62.6135 1.73596 64.8911 1.39432L65.6705 1.27741C66.8963 1.09356 68.1429 1.09863 69.3671 1.29245L71.882 1.69064C72.7904 1.83446 73.6295 2.2635 74.2779 2.91571L74.4334 3.07217C75.4059 4.05034 75.7965 5.46558 75.4634 6.80407C75.1054 8.24261 73.9707 9.35876 72.5265 9.69304L68.3083 10.6694C67.3795 10.8844 66.4067 10.8029 65.5267 10.4363L64.419 9.97494C63.3902 9.54641 62.72 8.54123 62.72 7.42671C62.72 6.26946 63.4418 5.23505 64.528 4.83577L66.4162 4.14168C67.1345 3.87764 67.9168 3.84194 68.6561 4.03948L71.0381 4.6759C71.8944 4.90468 72.3641 5.82463 72.0473 6.65238C71.8261 7.23023 71.2714 7.61182 70.6527 7.61182H66.88" stroke="#B89455"/>
</svg>
