<svg width="83" height="22" viewBox="0 0 83 22" fill="none" xmlns="http://www.w3.org/2000/svg">
<path d="M79.888 5.01364C88.4406 18.2311 43.3454 -7.03776 49.9836 5.01362" stroke="#E2C180" stroke-width="3"/>
<path d="M3.32236 5.01364C-5.23018 18.2311 39.865 -7.03776 33.2268 5.01362" stroke="#E2C180" stroke-width="3"/>
<path d="M52.1423 7.17658C52.3636 7.80179 52.7424 8.26367 53.1312 8.52243C53.5195 8.78085 53.8577 8.80699 54.1016 8.72087C54.3456 8.63456 54.5928 8.40139 54.7322 7.956C54.8718 7.51031 54.8759 6.91293 54.6547 6.28768C54.4335 5.6623 54.0543 5.19971 53.6655 4.9409C53.277 4.68244 52.9381 4.65649 52.6942 4.74279C52.4504 4.82921 52.2039 5.06237 52.0645 5.50734C51.9249 5.9531 51.921 6.55121 52.1423 7.17658Z" fill="#D9D9D9" stroke="#E2C180" stroke-width="2"/>
<path d="M31.0681 7.17658C30.8468 7.80179 30.4679 8.26367 30.0791 8.52243C29.6909 8.78085 29.3527 8.80699 29.1087 8.72087C28.8648 8.63456 28.6176 8.40139 28.4781 7.956C28.3386 7.51031 28.3345 6.91293 28.5556 6.28768C28.7769 5.6623 29.156 5.19971 29.5449 4.9409C29.9333 4.68244 30.2723 4.65649 30.5162 4.74279C30.76 4.82921 31.0065 5.06237 31.1459 5.50734C31.2855 5.9531 31.2893 6.55121 31.0681 7.17658Z" fill="#D9D9D9" stroke="#E2C180" stroke-width="2"/>
<path d="M44.3322 3.75951C43.7886 4.1394 43.4444 4.62766 43.2986 5.07135C43.153 5.51446 43.2179 5.84738 43.3659 6.05953C43.5141 6.27166 43.8048 6.44776 44.2712 6.46348C44.738 6.4792 45.3148 6.32395 45.8585 5.94417C46.4023 5.56425 46.7472 5.07553 46.893 4.63177C47.0386 4.18849 46.9732 3.85488 46.8251 3.64279C46.6768 3.43087 46.3864 3.2554 45.9203 3.23964C45.4535 3.22391 44.876 3.37959 44.3322 3.75951Z" fill="#D9D9D9" stroke="#E2C180" stroke-width="2"/>
<path d="M38.8782 3.75951C39.4218 4.1394 39.766 4.62766 39.9118 5.07135C40.0574 5.51446 39.9925 5.84738 39.8444 6.05953C39.6962 6.27166 39.4056 6.44776 38.9392 6.46348C38.4724 6.4792 37.8956 6.32395 37.3518 5.94417C36.8081 5.56425 36.4632 5.07553 36.3174 4.63177C36.1718 4.18849 36.2372 3.85488 36.3853 3.64279C36.5336 3.43087 36.824 3.2554 37.29 3.23964C37.7569 3.22391 38.3344 3.37959 38.8782 3.75951Z" fill="#D9D9D9" stroke="#E2C180" stroke-width="2"/>
<path d="M47.6623 8.5397C47.5961 9.1996 47.7421 9.77888 47.9835 10.1786C48.2247 10.5779 48.5195 10.7456 48.7769 10.7716C49.0344 10.7975 49.3573 10.6918 49.6733 10.3483C49.9894 10.0046 50.2477 9.46585 50.314 8.80597C50.3803 8.14593 50.2343 7.56588 49.9928 7.16607C49.7515 6.76673 49.4559 6.59884 49.1985 6.57299C48.9411 6.54732 48.6188 6.65323 48.3031 6.99639C47.9869 7.3402 47.7286 7.87966 47.6623 8.5397Z" fill="#D9D9D9" stroke="#E2C180" stroke-width="2"/>
<path d="M35.5481 8.5397C35.6143 9.1996 35.4683 9.77888 35.2268 10.1786C34.9856 10.5779 34.6908 10.7456 34.4335 10.7716C34.176 10.7975 33.853 10.6918 33.5371 10.3483C33.2209 10.0046 32.9627 9.46585 32.8964 8.80597C32.8301 8.14593 32.976 7.56588 33.2175 7.16607C33.4588 6.76673 33.7544 6.59884 34.0119 6.57299C34.2692 6.54732 34.5916 6.65323 34.9073 6.99639C35.2235 7.3402 35.4818 7.87966 35.5481 8.5397Z" fill="#D9D9D9" stroke="#E2C180" stroke-width="2"/>
<ellipse cx="41.5" cy="10.5" rx="1.5" ry="2.5" fill="#E2C180"/>
<ellipse cx="1.5" cy="4" rx="1.5" ry="4" transform="matrix(-0.736 0.676981 0.676981 0.736 44.8961 10.0405)" fill="#E2C180"/>
<ellipse cx="36.5" cy="14" rx="1.5" ry="4" transform="rotate(42.6082 36.5 14)" fill="#E2C180"/>
<ellipse cx="1.5" cy="4" rx="1.5" ry="4" transform="matrix(-0.999984 -0.00570965 -0.00570965 0.999984 43.0452 13.2649)" fill="#E2C180"/>
</svg>
