<svg width="77" height="48" viewBox="0 0 77 48" fill="none" xmlns="http://www.w3.org/2000/svg">
<path d="M77 1.91197H33.5045C33.0643 1.91197 32.6269 1.98205 32.2087 2.11957L31.2694 2.42844C29.7954 2.91314 28.9219 4.42894 29.2416 5.9473L29.328 6.35788C29.5184 7.26229 29.1688 8.19524 28.431 8.75185C27.5462 9.41936 26.318 9.38889 25.4674 8.67833L22.6754 6.34613C22.4122 6.12625 22.133 5.92611 21.8403 5.74735L18.5383 3.7308C16.5727 2.53042 14.3865 1.73596 12.1089 1.39432L11.3295 1.27741C10.1037 1.09356 8.85706 1.09863 7.63287 1.29245L5.11796 1.69064C4.20959 1.83446 3.37052 2.2635 2.7221 2.91571L2.56656 3.07217C1.59409 4.05034 1.2035 5.46558 1.5366 6.80407C1.89461 8.24261 3.02927 9.35876 4.4735 9.69304L8.69171 10.6694C9.62049 10.8844 10.5933 10.8029 11.4733 10.4363L12.581 9.97494C13.6098 9.54641 14.28 8.54123 14.28 7.42671C14.28 6.26946 13.5582 5.23505 12.472 4.83577L10.5838 4.14168C9.86551 3.87764 9.08319 3.84194 8.34385 4.03948L5.96188 4.6759C5.10559 4.90468 4.63589 5.82463 4.95274 6.65238C5.17394 7.23023 5.72859 7.61182 6.34733 7.61182H10.12" stroke="#B89455" stroke-opacity="0.95"/>
<path d="M77 46.088H33.5045C33.0643 46.088 32.6269 46.018 32.2087 45.8804L31.2694 45.5716C29.7954 45.0869 28.9219 43.5711 29.2416 42.0527L29.328 41.6421C29.5184 40.7377 29.1688 39.8048 28.431 39.2481C27.5462 38.5806 26.318 38.6111 25.4674 39.3217L22.6754 41.6539C22.4122 41.8737 22.133 42.0739 21.8403 42.2526L18.5383 44.2692C16.5727 45.4696 14.3865 46.264 12.1089 46.6057L11.3295 46.7226C10.1037 46.9064 8.85706 46.9014 7.63287 46.7075L5.11796 46.3094C4.20959 46.1655 3.37052 45.7365 2.7221 45.0843L2.56656 44.9278C1.59409 43.9497 1.2035 42.5344 1.5366 41.1959C1.89461 39.7574 3.02927 38.6412 4.4735 38.307L8.69171 37.3306C9.62049 37.1156 10.5933 37.1971 11.4733 37.5637L12.581 38.0251C13.6098 38.4536 14.28 39.4588 14.28 40.5733C14.28 41.7305 13.5582 42.7649 12.472 43.1642L10.5838 43.8583C9.86551 44.1224 9.08319 44.1581 8.34385 43.9605L5.96188 43.3241C5.10559 43.0953 4.63589 42.1754 4.95274 41.3476C5.17394 40.7698 5.72859 40.3882 6.34733 40.3882H10.12" stroke="#B89455"/>
<path d="M17.5884 19.9176L21.2821 17.8668L22.1522 19.1329L23.0135 16.6939L23.6688 15.6102L25.4285 13.7145L23.903 13.5321L24.0033 9.30846L22.6396 9.22382L21.2054 7.17274L19.8882 9.04007L18.5005 8.94095L19.7157 12.2063L17.3152 9.54871L16.6599 10.6324L14.208 10.6297L15.3494 12.7997L14.6942 13.8834L18.1628 14.7746L14.7066 15.2154L15.4151 16.3837L14.3734 18.4176L16.832 18.7204L17.5884 19.9176Z" fill="#E09613"/>
<path d="M21.5942 38.1282L22.3341 33.9687L23.8654 34.0927L22.5169 31.8854L22.0898 30.6933L21.7296 28.1319L20.6255 29.2001L17.4123 26.457L16.4861 27.4615L13.9899 27.2797L14.6073 29.4799L13.6547 30.4938L16.9546 31.6117L13.3781 31.7968L13.8053 32.989L12.2559 34.8894L14.6596 35.3733L15.0868 36.5655L17.967 34.4371L16.1279 37.3964L17.4813 37.5841L18.4017 39.6757L20.1881 37.9594L21.5942 38.1282Z" fill="#E09613"/>
</svg>
