<svg width="77" height="23" viewBox="0 0 77 23" fill="none" xmlns="http://www.w3.org/2000/svg">
<path d="M77 1.91197H33.5045C33.0643 1.91197 32.6269 1.98205 32.2087 2.11957L31.2694 2.42844C29.7954 2.91314 28.9219 4.42894 29.2416 5.9473L29.328 6.35788C29.5184 7.26229 29.1688 8.19524 28.431 8.75185C27.5462 9.41936 26.318 9.38889 25.4674 8.67833L22.6754 6.34613C22.4122 6.12625 22.133 5.92611 21.8403 5.74735L18.5383 3.7308C16.5727 2.53042 14.3865 1.73596 12.1089 1.39432L11.3295 1.27741C10.1037 1.09356 8.85706 1.09863 7.63287 1.29245L5.11796 1.69064C4.20959 1.83446 3.37052 2.2635 2.7221 2.91571L2.56656 3.07217C1.59409 4.05034 1.2035 5.46558 1.5366 6.80407C1.89461 8.24261 3.02927 9.35876 4.4735 9.69304L8.69171 10.6694C9.62049 10.8844 10.5933 10.8029 11.4733 10.4363L12.581 9.97494C13.6098 9.54641 14.28 8.54123 14.28 7.42671C14.28 6.26946 13.5582 5.23505 12.472 4.83577L10.5838 4.14168C9.86551 3.87764 9.08319 3.84194 8.34385 4.03948L5.96188 4.6759C5.10559 4.90468 4.63589 5.82463 4.95274 6.65238C5.17394 7.23023 5.72859 7.61182 6.34733 7.61182H10.12" stroke="#B89455" stroke-opacity="0.95"/>
<path d="M17.5884 19.9176L21.2821 17.8668L22.1522 19.1329L23.0135 16.6939L23.6688 15.6102L25.4285 13.7145L23.903 13.5321L24.0033 9.30846L22.6396 9.22382L21.2054 7.17274L19.8882 9.04007L18.5005 8.94095L19.7157 12.2063L17.3152 9.54871L16.6599 10.6324L14.208 10.6297L15.3494 12.7997L14.6942 13.8834L18.1628 14.7746L14.7066 15.2154L15.4151 16.3837L14.3734 18.4176L16.832 18.7204L17.5884 19.9176Z" fill="#E09613"/>
</svg>
