<svg width="77" height="24" viewBox="0 0 77 24" fill="none" xmlns="http://www.w3.org/2000/svg">
<path d="M77 22.088H33.5045C33.0643 22.088 32.6269 22.018 32.2087 21.8804L31.2694 21.5716C29.7954 21.0869 28.9219 19.5711 29.2416 18.0527L29.328 17.6421C29.5184 16.7377 29.1688 15.8048 28.431 15.2481C27.5462 14.5806 26.318 14.6111 25.4674 15.3217L22.6754 17.6539C22.4122 17.8737 22.133 18.0739 21.8403 18.2526L18.5383 20.2692C16.5727 21.4696 14.3865 22.264 12.1089 22.6057L11.3295 22.7226C10.1037 22.9064 8.85706 22.9014 7.63287 22.7075L5.11796 22.3094C4.20959 22.1655 3.37052 21.7365 2.7221 21.0843L2.56656 20.9278C1.59409 19.9497 1.2035 18.5344 1.5366 17.1959C1.89461 15.7574 3.02927 14.6412 4.4735 14.307L8.69171 13.3306C9.62049 13.1156 10.5933 13.1971 11.4733 13.5637L12.581 14.0251C13.6098 14.4536 14.28 15.4588 14.28 16.5733C14.28 17.7305 13.5582 18.7649 12.472 19.1642L10.5838 19.8583C9.86551 20.1224 9.08319 20.1581 8.34385 19.9605L5.96188 19.3241C5.10559 19.0953 4.63589 18.1754 4.95274 17.3476C5.17394 16.7698 5.72859 16.3882 6.34733 16.3882H10.12" stroke="#B89455"/>
<path d="M21.5942 14.1283L22.3341 9.96876L23.8654 10.0927L22.5169 7.88543L22.0898 6.69328L21.7296 4.13191L20.6255 5.20012L17.4123 2.45703L16.4861 3.4615L13.9899 3.27972L14.6073 5.4799L13.6547 6.49382L16.9546 7.61174L13.3781 7.79686L13.8053 8.98902L12.2559 10.8894L14.6596 11.3733L15.0868 12.5655L17.967 10.4372L16.1279 13.3964L17.4813 13.5841L18.4017 15.6757L20.1881 13.9595L21.5942 14.1283Z" fill="#E09613"/>
</svg>
