<svg width="96" height="9" viewBox="0 0 96 9" fill="none" xmlns="http://www.w3.org/2000/svg">
<path d="M65.1417 3.59399C65.9961 15.1146 91.9931 -6.99559 94.2251 4.62002" stroke="#FAE1B9" stroke-width="2"/>
<path d="M32.1619 3.59399C31.2488 15.1167 4.07856 -6.95213 1.72369 4.66782" stroke="#FAE1B9" stroke-width="2"/>
<path d="M39.6182 5.97679C34.6488 -1.88338 64.335 1.07901 56.6029 6.30635" stroke="#FAE1B9" stroke-width="2"/>
<path d="M48.5 2.00002C48.7836 2.00002 49.1347 2.15932 49.4541 2.60646C49.7721 3.05168 50 3.71796 50 4.50002C50 5.28207 49.7721 5.94835 49.4541 6.39357C49.1347 6.84071 48.7836 7.00002 48.5 7.00002C48.2164 7.00002 47.8653 6.84071 47.5459 6.39357C47.2279 5.94835 47 5.28207 47 4.50002C47 3.71796 47.2279 3.05168 47.5459 2.60646C47.8653 2.15932 48.2164 2.00002 48.5 2.00002Z" fill="black" stroke="#FAE1B9" stroke-width="2"/>
<circle cx="61.5" cy="5.50002" r="1.75" fill="black" stroke="#FAE1B9" stroke-width="1.5"/>
<circle cx="35.5" cy="5.50002" r="1.75" fill="black" stroke="#FAE1B9" stroke-width="1.5"/>
</svg>
