<svg width="77" height="48" viewBox="0 0 77 48" fill="none" xmlns="http://www.w3.org/2000/svg">
<path d="M0 1.91197H43.4955C43.9357 1.91197 44.3731 1.98205 44.7913 2.11957L45.7306 2.42844C47.2046 2.91314 48.0781 4.42894 47.7584 5.9473L47.672 6.35788C47.4816 7.26229 47.8312 8.19524 48.569 8.75185C49.4538 9.41936 50.682 9.38889 51.5326 8.67833L54.3246 6.34613C54.5878 6.12625 54.867 5.92611 55.1597 5.74735L58.4617 3.7308C60.4273 2.53042 62.6135 1.73596 64.8911 1.39432L65.6705 1.27741C66.8963 1.09356 68.1429 1.09863 69.3671 1.29245L71.882 1.69064C72.7904 1.83446 73.6295 2.2635 74.2779 2.91571L74.4334 3.07217C75.4059 4.05034 75.7965 5.46558 75.4634 6.80407C75.1054 8.24261 73.9707 9.35876 72.5265 9.69304L68.3083 10.6694C67.3795 10.8844 66.4067 10.8029 65.5267 10.4363L64.419 9.97494C63.3902 9.54641 62.72 8.54123 62.72 7.42671C62.72 6.26946 63.4418 5.23505 64.528 4.83577L66.4162 4.14168C67.1345 3.87764 67.9168 3.84194 68.6561 4.03948L71.0381 4.6759C71.8944 4.90468 72.3641 5.82463 72.0473 6.65238C71.8261 7.23023 71.2714 7.61182 70.6527 7.61182H66.88" stroke="#B89455"/>
<path d="M0 46.088H43.4955C43.9357 46.088 44.3731 46.018 44.7913 45.8804L45.7306 45.5716C47.2046 45.0869 48.0781 43.5711 47.7584 42.0527L47.672 41.6421C47.4816 40.7377 47.8312 39.8048 48.569 39.2481C49.4538 38.5806 50.682 38.6111 51.5326 39.3217L54.3246 41.6539C54.5878 41.8737 54.867 42.0739 55.1597 42.2526L58.4617 44.2692C60.4273 45.4696 62.6135 46.264 64.8911 46.6057L65.6705 46.7226C66.8963 46.9064 68.1429 46.9014 69.3671 46.7075L71.882 46.3094C72.7904 46.1655 73.6295 45.7365 74.2779 45.0843L74.4334 44.9278C75.4059 43.9497 75.7965 42.5344 75.4634 41.1959C75.1054 39.7574 73.9707 38.6412 72.5265 38.307L68.3083 37.3306C67.3795 37.1156 66.4067 37.1971 65.5267 37.5637L64.419 38.0251C63.3902 38.4536 62.72 39.4588 62.72 40.5733C62.72 41.7305 63.4418 42.7649 64.528 43.1642L66.4162 43.8583C67.1345 44.1224 67.9168 44.1581 68.6561 43.9605L71.0381 43.3241C71.8944 43.0953 72.3641 42.1754 72.0473 41.3476C71.8261 40.7698 71.2714 40.3882 70.6527 40.3882H66.88" stroke="#B89455"/>
<path d="M59.4116 19.9176L55.7179 17.8668L54.8478 19.1329L53.9865 16.6939L53.3312 15.6102L51.5715 13.7145L53.097 13.5321L52.9967 9.30846L54.3604 9.22382L55.7946 7.17274L57.1118 9.04007L58.4995 8.94095L57.2843 12.2063L59.6848 9.54871L60.3401 10.6324L62.792 10.6297L61.6506 12.7997L62.3058 13.8834L58.8372 14.7746L62.2934 15.2154L61.5849 16.3837L62.6266 18.4176L60.168 18.7204L59.4116 19.9176Z" fill="#E09613"/>
<path d="M55.4058 38.1282L54.6659 33.9687L53.1346 34.0927L54.4831 31.8854L54.9102 30.6933L55.2704 28.1319L56.3745 29.2001L59.5877 26.457L60.5139 27.4615L63.0101 27.2797L62.3927 29.4799L63.3453 30.4938L60.0454 31.6117L63.6219 31.7968L63.1947 32.989L64.7441 34.8894L62.3404 35.3733L61.9132 36.5655L59.033 34.4371L60.8721 37.3964L59.5187 37.5841L58.5983 39.6757L56.8119 37.9594L55.4058 38.1282Z" fill="#E09613"/>
</svg>
