<svg width="11" height="11" viewBox="0 0 11 11" fill="none" xmlns="http://www.w3.org/2000/svg">
<path d="M8.25 0.737057C9.08611 1.21978 9.78042 1.91409 10.2631 2.7502C10.7459 3.5863 11 4.53475 11 5.5002C11 6.46565 10.7459 7.41409 10.2631 8.25019C9.78038 9.08629 9.08606 9.78059 8.24994 10.2633C7.41382 10.746 6.46537 11.0001 5.49991 11.0001C4.53446 11.0001 3.58601 10.746 2.74991 10.2632C1.91381 9.78047 1.21951 9.08615 0.736799 8.25004C0.254089 7.41392 -2.45243e-05 6.46547 1.77521e-09 5.50002L0.00275006 5.32182C0.0335518 4.37198 0.309951 3.44632 0.805002 2.63509C1.30005 1.82386 1.99686 1.15475 2.82749 0.692993C3.65812 0.231233 4.59423 -0.00741881 5.54455 0.000303704C6.49488 0.00802621 7.42698 0.26186 8.25 0.737057ZM4.95 2.75004V5.51212L4.95165 5.54182L4.96265 5.61607L4.9654 5.62982C4.97301 5.66091 4.98331 5.69127 4.9962 5.72057L5.0182 5.76567L5.0523 5.82012L5.0908 5.86797L5.13205 5.90867L5.18375 5.94992L5.22775 5.97852L5.26625 5.99777L5.33885 6.02582L5.4131 6.04287L5.4582 6.04837L5.5264 6.04947L5.58855 6.04287L5.64795 6.02967L5.70625 6.00987L5.76565 5.98182L5.8014 5.95982L7.45525 4.85763C7.57661 4.77667 7.66085 4.65082 7.68942 4.50776C7.71799 4.3647 7.68856 4.21615 7.6076 4.09478C7.52664 3.97342 7.40079 3.88919 7.25773 3.86062C7.11467 3.83205 6.96611 3.86148 6.84475 3.94243L6.05 4.47153V2.75004C6.04998 2.61533 6.00052 2.48531 5.91101 2.38464C5.82149 2.28397 5.69814 2.21966 5.56435 2.2039L5.5 2.20005C5.35413 2.20005 5.21424 2.25799 5.11109 2.36114C5.00795 2.46428 4.95 2.60417 4.95 2.75004Z" fill="#84551F"/>
</svg>
