<svg width="14" height="10" viewBox="0 0 14 10" fill="none" xmlns="http://www.w3.org/2000/svg">
<path d="M10.5 2.85714V1.42857C10.5 1.04969 10.3525 0.686328 10.0899 0.418419C9.8274 0.15051 9.4713 0 9.1 0H1.4C1.0287 0 0.672601 0.15051 0.41005 0.418419C0.1475 0.686328 0 1.04969 0 1.42857V8.57143C0 8.95031 0.1475 9.31367 0.41005 9.58158C0.672601 9.84949 1.0287 10 1.4 10H9.1C9.4713 10 9.8274 9.84949 10.0899 9.58158C10.3525 9.31367 10.5 8.95031 10.5 8.57143V7.14286L14 10V0L10.5 2.85714Z" fill="#84551F"/>
</svg>
