<svg width="14" height="8" viewBox="0 0 14 8" fill="none" xmlns="http://www.w3.org/2000/svg">
<path fill-rule="evenodd" clip-rule="evenodd" d="M8.0374 7.77629L8.02783 7.7771L7.97121 7.79118L7.95526 7.79279L7.94409 7.79118L7.88747 7.77669C7.87897 7.77562 7.87259 7.77642 7.86834 7.77911L7.86515 7.78313L7.85159 7.95532L7.85558 7.96337L7.86355 7.9686L7.94649 7.99837L7.95845 7.99998L7.96802 7.99837L8.05095 7.9686L8.06052 7.96216L8.06371 7.95532L8.05016 7.78353C8.04803 7.77924 8.04378 7.77683 8.0374 7.77629ZM8.24793 7.73083L8.23676 7.73163L8.09003 7.76905L8.08205 7.77307L8.07966 7.7775L8.09402 7.95049L8.098 7.95532L8.10438 7.95854L8.26467 7.99555C8.27477 7.99689 8.28248 7.99582 8.2878 7.99233L8.29099 7.9867L8.26387 7.73968C8.26122 7.73458 8.2559 7.73163 8.24793 7.73083ZM7.67774 7.73163C7.67423 7.73056 7.67003 7.73021 7.66602 7.73066C7.66201 7.73111 7.65849 7.73232 7.65621 7.73405L7.65143 7.73968L7.62431 7.9867C7.62484 7.99153 7.62936 7.99475 7.63787 7.99636L7.64983 7.99555L7.81012 7.95814L7.8181 7.95492L7.82049 7.95049L7.83484 7.7775L7.83245 7.77267L7.82447 7.76865L7.67774 7.73163Z" fill="#463415"/>
<path fill-rule="evenodd" clip-rule="evenodd" d="M13.2025 1.51349e-08C13.414 1.51349e-08 13.6169 0.0423866 13.7664 0.117835C13.916 0.193283 14 0.295613 14 0.402313V2.6782C14 2.7411 13.9708 2.80313 13.9147 2.8593C13.8587 2.91548 13.7772 2.96424 13.677 3.00166L7.93693 5.14197L8.69132 5.52296C8.84082 5.5984 8.92481 5.70071 8.92481 5.80739C8.92481 5.91407 8.84082 6.01638 8.69132 6.09183L7.56372 6.6607C7.44536 6.72036 7.2928 6.75972 7.12765 6.77323C6.96249 6.78673 6.7931 6.77368 6.64345 6.73593L4.9018 6.29701L3.6163 6.94514C3.46676 7.02056 3.26396 7.06293 3.0525 7.06293C2.84104 7.06293 2.63824 7.02056 2.4887 6.94514L0.233485 5.80739C0.0839847 5.73195 0 5.62964 0 5.52296C0 5.41628 0.0839847 5.31397 0.233485 5.23852L1.51819 4.58999L0.648163 3.71134C0.573339 3.63584 0.547479 3.55039 0.574241 3.46707C0.601004 3.38375 0.679035 3.30678 0.797288 3.24707L1.92489 2.6782C2.07444 2.60278 2.27724 2.56041 2.4887 2.56041C2.70015 2.56041 2.90295 2.60278 3.0525 2.6782L3.80769 3.05879L8.05017 0.162937C8.12435 0.112383 8.221 0.0713084 8.33235 0.0430112C8.4437 0.0147141 8.56664 -1.72365e-05 8.69132 1.51349e-08H13.2025Z" fill="#463415"/>
</svg>
