<svg width="106" height="21" viewBox="0 0 106 21" fill="none" xmlns="http://www.w3.org/2000/svg">
<path d="M89.2207 0.283203C91.3689 1.89051 93.8712 2.95923 96.5176 3.40039L98.6318 3.75293C100.157 4.00706 101.586 4.66402 102.771 5.65625L103.88 6.58496C105.144 7.64346 105.875 9.20749 105.875 10.8564C105.875 12.5818 105.075 14.2096 103.71 15.2646L102.965 15.8418C101.672 16.8408 100.088 17.3891 98.4541 17.4043L73.6045 17.6348C72.2656 17.6472 70.9364 17.8692 69.666 18.292L69.2314 18.4365C66.8911 19.2154 64.359 19.203 62.0264 18.4014C60.7906 17.9767 59.4912 17.7652 58.1846 17.7773L34.2168 18C32.5514 18.0154 30.8939 18.2374 29.2832 18.6611L20.9004 20.8652L18.8242 19.6465C16.9988 18.5753 15.0156 17.7989 12.9482 17.3457L5.05273 15.6152C4.58566 15.5128 4.13175 15.3554 3.70117 15.1475C1.69075 14.1763 0.368125 12.1876 0.250977 9.95801L0.183594 8.65723C0.146381 7.94861 0.279865 7.24136 0.574219 6.5957C1.10338 5.43527 2.1095 4.56062 3.33203 4.19727L6.26367 3.32617C7.29317 3.02019 8.36154 2.86426 9.43555 2.86426H21.3691C22.9604 2.86423 24.546 2.67528 26.0928 2.30176L27.6221 1.93262C30.3296 1.2788 33.1444 1.20108 35.8838 1.70508L36.9814 1.90723C38.1197 2.11665 39.2743 2.22724 40.4316 2.23828L79.4111 2.61035C82.7811 2.6425 86.0996 1.79231 89.04 0.147461L89.2207 0.283203Z" fill="#FAE1B9" stroke="black" stroke-width="0.25"/>
</svg>
