<svg width="291" height="69" viewBox="0 0 291 69" fill="none" xmlns="http://www.w3.org/2000/svg">
<path d="M38.9187 5.28699C118.282 23.6017 215.452 -13.0277 251.318 5.28699V43.522C166.613 28.4347 132.018 65.3185 38.9187 43.522V5.28699Z" fill="url(#paint0_linear_1_16)"/>
<path d="M213.05 37.1381L251.46 40.1906V44.7693C251.46 44.7693 236.197 56.4703 231.619 60.7946C227.04 65.1189 217.374 66.1364 213.05 60.7946C208.725 55.4528 213.05 37.1381 213.05 37.1381Z" fill="url(#paint1_linear_1_16)"/>
<path d="M77.9505 41.7168L39.5406 44.7693V49.3479C39.5406 49.3479 54.8028 61.049 59.3815 65.3733C63.9601 69.6976 73.6262 70.7151 77.9505 65.3733C82.2748 60.0315 77.9505 41.7168 77.9505 41.7168Z" fill="url(#paint2_linear_1_16)"/>
<path d="M211.128 57.4878L233.512 51.1285L242.161 45.278L250.301 37.1381V13.2273L252.59 12.0224L256.278 10.0811L259.967 8.13988L264.291 6.99521L266.453 6.42287L268.615 5.85054L270.142 5.89823L272.177 5.96183L274.466 6.03337L276.755 6.10491L285.913 10.6836L291 13.2273L279.808 17.806L272.177 24.4196L270.142 27.7264L274.975 33.8313L281.08 41.7168L285.913 49.3479L287.948 55.9616L281.08 51.6373L274.975 49.3479H270.142L263.528 50.6198L256.151 53.1635L248.52 57.4878L242.161 59.7771L235.293 62.5752L229.442 64.3558H222.066L214.689 59.7771L211.128 57.4878Z" fill="url(#paint3_linear_1_16)"/>
<path d="M79.8724 62.0665L57.4878 55.7072L48.8392 49.8567L40.6994 41.7168V17.806L38.41 16.6011L34.7216 14.6598L31.0333 12.7186L26.709 11.5739L24.5468 11.0015L22.3847 10.4292L20.8584 10.4769L18.8235 10.5405L16.5341 10.612L14.2448 10.6836L5.08746 15.2623L4.57764e-05 17.806L11.1924 22.3846L18.8235 28.9983L20.8584 32.3051L16.0254 38.41L9.9205 46.2955L5.08746 53.9266L3.0525 60.5402L9.9205 56.2159L16.0254 53.9266H20.8584L27.4721 55.1985L34.8488 57.7422L42.4799 62.0665L48.8392 64.3558L55.7072 67.1539L61.5577 68.9345H68.9345L76.3112 64.3558L79.8724 62.0665Z" fill="url(#paint4_linear_1_16)"/>
<defs>
<linearGradient id="paint0_linear_1_16" x1="38.9187" y1="25.3026" x2="251.318" y2="25.3026" gradientUnits="userSpaceOnUse">
<stop stop-color="#AE8625"/>
<stop offset="0.5" stop-color="#F7EF8A"/>
<stop offset="0.75" stop-color="#D2AC46"/>
<stop offset="1" stop-color="#EDC967"/>
</linearGradient>
<linearGradient id="paint1_linear_1_16" x1="211.128" y1="50.7838" x2="251.46" y2="50.7838" gradientUnits="userSpaceOnUse">
<stop stop-color="#AE8625"/>
<stop offset="0.5" stop-color="#F7EF8A"/>
<stop offset="0.75" stop-color="#D2AC46"/>
<stop offset="1" stop-color="#EDC967"/>
</linearGradient>
<linearGradient id="paint2_linear_1_16" x1="79.8724" y1="55.3624" x2="39.5406" y2="55.3624" gradientUnits="userSpaceOnUse">
<stop stop-color="#AE8625"/>
<stop offset="0.5" stop-color="#F7EF8A"/>
<stop offset="0.75" stop-color="#D2AC46"/>
<stop offset="1" stop-color="#EDC967"/>
</linearGradient>
<linearGradient id="paint3_linear_1_16" x1="211.128" y1="35.1032" x2="291" y2="35.1032" gradientUnits="userSpaceOnUse">
<stop stop-color="#AE8625"/>
<stop offset="0.5" stop-color="#F7EF8A"/>
<stop offset="0.75" stop-color="#D2AC46"/>
<stop offset="1" stop-color="#EDC967"/>
</linearGradient>
<linearGradient id="paint4_linear_1_16" x1="79.8724" y1="39.6818" x2="4.57764e-05" y2="39.6818" gradientUnits="userSpaceOnUse">
<stop stop-color="#AE8625"/>
<stop offset="0.5" stop-color="#F7EF8A"/>
<stop offset="0.75" stop-color="#D2AC46"/>
<stop offset="1" stop-color="#EDC967"/>
</linearGradient>
</defs>
</svg>
