<svg width="883" height="362" viewBox="0 0 883 362" fill="none" xmlns="http://www.w3.org/2000/svg">
<g filter="url(#filter0_f_2_29)">
<path d="M839.771 53.1671C839.46 54.2133 839.072 55.4032 838.606 56.7374C837.579 59.682 836.294 63.0288 834.893 66.7365C833.505 70.4069 832.025 74.3753 830.674 78.4132C828.01 86.3743 825.668 95.0962 825.668 102.772C825.668 115.739 827.363 122.306 831.032 127.315C832.671 129.551 834.72 131.438 836.252 132.996C837.889 134.661 839.587 136.543 841.38 139.386C841.656 139.824 841.779 140.244 841.804 140.554C841.826 140.839 841.767 140.984 841.718 141.066C839.579 144.638 835.198 148.322 829.637 152.914C824.513 157.145 818.389 162.155 814.762 167.87C812.878 170.838 811.491 174.246 811.341 178.068C811.188 181.941 812.325 185.786 814.742 189.545C819.405 196.797 829.057 204.081 844.938 211.988C846.555 212.794 847.364 214.085 847.557 215.133C847.725 216.045 847.497 216.961 846.443 217.768C838.404 223.921 826.967 231.498 823.516 246.401C820.321 260.198 824.128 279.067 839.75 307.543C829.633 308.518 816.783 306.124 802.486 299.411C785.044 291.222 765.861 276.78 747.692 255.149C733.259 237.965 722.216 222.837 716.565 207.281C713.117 197.788 712.935 187.483 713.716 178.926C714.103 174.681 714.719 170.947 715.248 168.041C715.465 166.852 715.805 165.077 715.944 164.305C716.095 163.473 716.312 162.269 716.312 161.334C716.313 156.474 719.701 149.733 727.123 141.193C734.344 132.884 744.58 123.764 756.482 114.237C780.415 95.0828 809.811 75.2489 833.664 57.3986C836.153 55.5363 838.166 54.1562 839.771 53.1671Z" fill="#9CC4FF" stroke="#9CC4FF" stroke-width="10"/>
<path d="M61.4824 38.4854C62.7348 41.7469 64.5182 45.7344 66.6221 50.252C70.7743 59.1679 76.1472 70.0776 80.4199 80.3467C84.6164 90.4327 88.1885 100.869 88.1885 108.808C88.1884 121.775 86.4937 128.342 82.8242 133.351C81.1859 135.587 79.1368 137.473 77.6045 139.031C75.9676 140.696 74.2697 142.578 72.4766 145.421C72.2002 145.859 72.0769 146.28 72.0527 146.59C72.0306 146.874 72.0899 147.019 72.1387 147.101C74.2777 150.673 78.6585 154.357 84.2197 158.949C89.3436 163.18 95.467 168.19 99.0947 173.905C100.978 176.873 102.365 180.281 102.516 184.103C102.668 187.976 101.531 191.821 99.1143 195.58C94.4516 202.832 84.7997 210.116 68.9189 218.023C65.84 219.557 64.8953 223.437 66.9414 226.226C73.3849 235.008 78.8194 245.858 77.5146 262.904C76.3287 278.397 69.5989 298.67 53.834 327.003C58.0803 327.033 63.2492 326.352 69.2129 324.866C78.6567 322.513 89.5618 318.276 100.961 312.416C123.78 300.685 148.09 282.704 166.164 261.185C180.597 244.001 191.64 228.872 197.291 213.316C200.739 203.823 200.921 193.518 200.141 184.961C199.753 180.716 199.138 176.982 198.608 174.076C198.392 172.887 198.052 171.112 197.912 170.34C197.762 169.508 197.544 168.305 197.544 167.37C197.544 165.204 196.613 162.018 194.242 157.728C191.921 153.526 188.468 148.704 184.03 143.383C175.16 132.747 162.745 120.578 148.726 108.039C120.713 82.9843 86.7982 56.8951 63.3135 39.3203C62.564 38.7595 61.8715 38.2579 61.2324 37.8125C61.3132 38.0296 61.3939 38.2548 61.4824 38.4854Z" fill="#9CC4FF" stroke="#9CC4FF" stroke-width="10"/>
<path d="M247.565 61.8405H664.411C674.022 61.8406 683.446 64.4999 691.639 69.5241C699.306 74.2262 705.626 80.834 709.981 88.7038L714.507 96.8796C719.018 105.031 721.385 114.196 721.385 123.512V249.724C721.385 258.361 718.214 266.698 712.474 273.151C706.018 280.409 696.854 284.68 687.145 284.958L419.739 292.601H349.55L349.292 292.628L287.935 299.004L264.156 299.568C256.401 299.752 248.694 298.293 241.543 295.287L233.552 291.928C228.419 289.771 223.687 286.762 219.556 283.03C212.194 276.38 207.002 267.67 204.653 258.032L199.342 236.236L194.892 198.504L195.487 173.268L195.488 173.188V173.109L194.97 109.712C194.919 103.533 196.193 97.4144 198.704 91.7682C201.532 85.4095 205.851 79.8262 211.296 75.4919L213.485 73.7487C223.171 66.0384 235.185 61.8405 247.565 61.8405Z" fill="#9CC4FF" stroke="#9CC4FF" stroke-width="10"/>
</g>
<path d="M839.771 53.1671C839.459 54.2133 839.071 55.4032 838.606 56.7374C837.578 59.682 836.293 63.0288 834.892 66.7365C833.504 70.4069 832.024 74.3753 830.673 78.4132C828.009 86.3743 825.667 95.0962 825.667 102.772C825.667 115.739 827.362 122.306 831.031 127.315C832.67 129.551 834.719 131.438 836.251 132.996C837.888 134.661 839.586 136.543 841.379 139.386C841.655 139.824 841.779 140.244 841.803 140.554C841.825 140.839 841.766 140.984 841.717 141.066C839.578 144.638 835.197 148.322 829.636 152.914C824.512 157.145 818.389 162.155 814.761 167.87C812.878 170.838 811.49 174.246 811.34 178.068C811.188 181.941 812.324 185.786 814.741 189.545C819.404 196.797 829.056 204.081 844.937 211.988C846.554 212.794 847.363 214.085 847.556 215.133C847.724 216.045 847.497 216.961 846.443 217.768C838.403 223.921 826.966 231.498 823.515 246.401C820.32 260.198 824.128 279.067 839.749 307.543C829.632 308.518 816.783 306.124 802.486 299.411C785.043 291.222 765.861 276.78 747.692 255.149C733.259 237.965 722.215 222.837 716.565 207.281C713.116 197.788 712.935 187.483 713.715 178.926C714.102 174.681 714.718 170.947 715.247 168.041C715.464 166.852 715.804 165.077 715.944 164.305C716.094 163.473 716.312 162.269 716.312 161.334C716.312 156.474 719.7 149.733 727.122 141.193C734.343 132.884 744.579 123.764 756.482 114.237C780.415 95.0828 809.81 75.2489 833.663 57.3986C836.152 55.5363 838.165 54.1562 839.771 53.1671Z" fill="url(#paint0_linear_2_29)" stroke="#77A9F3" stroke-width="10"/>
<path d="M19.5208 46.0525C21.2237 48.9822 23.6637 52.5886 26.5706 56.7117C32.2849 64.8169 39.739 74.8167 45.6604 84.2175C48.6371 88.9434 51.3289 93.6732 53.2893 98.1072C55.2115 102.455 56.6301 106.954 56.6301 111.1C56.6301 122.873 54.329 129.338 49.4104 134.044C47.2477 136.113 44.6752 137.714 42.5383 139.127C40.286 140.616 38.0317 142.183 35.675 144.457C35.199 144.916 35.035 145.401 35.0149 145.677C35.0058 145.801 35.0253 145.865 35.0334 145.886C35.0382 145.899 35.0554 145.946 35.1448 146.028C38.85 149.422 45.3104 152.841 52.7092 156.891C59.5776 160.651 67.4296 165.045 72.0168 170.173C74.3953 172.831 76.3965 176.223 76.4417 180.297C76.4878 184.455 74.4895 188.188 71.2532 191.459C65.0414 197.737 52.6007 204.008 32.1086 210.863C28.4223 212.096 26.9784 217.035 30.304 220.418C34.2004 224.381 37.7711 229.044 39.9553 234.827C42.1604 240.665 42.8377 247.339 41.3928 255.128C38.8188 269.002 29.4991 286.462 10.0862 309.762C16.5857 309.87 24.3862 309.204 33.1829 307.756C46.5398 305.557 61.8382 301.621 77.7327 296.223C109.573 285.411 143.375 268.879 168.456 249.154C188.488 233.4 203.666 219.626 211.369 205.617C215.908 197.363 216.165 188.418 215.121 180.863C214.603 177.108 213.776 173.79 213.054 171.173C212.797 170.24 212.255 168.358 212.091 167.76C211.961 167.288 211.834 166.797 211.736 166.344C211.655 165.972 211.515 165.283 211.515 164.541C211.515 163.287 210.605 160.746 207.257 156.743C204.073 152.936 199.302 148.53 193.139 143.649C180.837 133.906 163.63 122.766 144.229 111.303C105.467 88.4018 58.5555 64.5651 26.0979 48.5203C23.2196 47.0974 20.9357 46.0926 19.1575 45.4099C19.2742 45.6173 19.3931 45.8328 19.5208 46.0525Z" fill="url(#paint1_linear_2_29)" stroke="#77A9F3" stroke-width="10"/>
<path d="M247.564 61.8405H664.41C674.021 61.8405 683.445 64.4998 691.638 69.524C699.305 74.2261 705.625 80.834 709.98 88.7037L714.506 96.8795C719.017 105.031 721.384 114.195 721.384 123.512V249.724C721.384 258.361 718.213 266.698 712.473 273.151C706.017 280.408 696.853 284.68 687.144 284.958L419.738 292.601H349.549L349.291 292.628L287.934 299.004L264.155 299.568C256.4 299.752 248.693 298.293 241.542 295.287L233.551 291.928C228.418 289.771 223.686 286.762 219.555 283.03C212.194 276.38 207.001 267.67 204.652 258.032L199.341 236.236L194.891 198.504L195.486 173.268L195.487 173.188V173.109L194.969 109.712C194.918 103.532 196.192 97.4143 198.703 91.7682C201.531 85.4095 205.85 79.8261 211.295 75.4918L213.484 73.7487C223.17 66.0384 235.184 61.8405 247.564 61.8405Z" fill="white" stroke="#77A9F3" stroke-width="10"/>
<defs>
<filter id="filter0_f_2_29" x="15.8139" y="0" width="866.792" height="362.004" filterUnits="userSpaceOnUse" color-interpolation-filters="sRGB">
<feFlood flood-opacity="0" result="BackgroundImageFix"/>
<feBlend mode="normal" in="SourceGraphic" in2="BackgroundImageFix" result="shape"/>
<feGaussianBlur stdDeviation="15" result="effect1_foregroundBlur_2_29"/>
</filter>
<linearGradient id="paint0_linear_2_29" x1="783.667" y1="46.212" x2="783.667" y2="312.754" gradientUnits="userSpaceOnUse">
<stop offset="0.278846" stop-color="#95A4E2"/>
<stop offset="0.552885" stop-color="#9FB8F0"/>
<stop offset="0.975962" stop-color="#267EFF"/>
</linearGradient>
<linearGradient id="paint1_linear_2_29" x1="110.314" y1="39.1863" x2="110.314" y2="314.775" gradientUnits="userSpaceOnUse">
<stop offset="0.28" stop-color="#95A4E2"/>
<stop offset="0.55" stop-color="#9FB8F0"/>
<stop offset="0.98" stop-color="#267EFF"/>
</linearGradient>
</defs>
</svg>
