<svg width="434" height="34" viewBox="0 0 434 34" fill="none" xmlns="http://www.w3.org/2000/svg">
<mask id="path-1-outside-1_7_4" maskUnits="userSpaceOnUse" x="235" y="8.99998" width="196" height="24" fill="black">
<rect fill="white" x="235" y="8.99998" width="196" height="24"/>
<path d="M236 33H430V9.99998H236V33Z"/>
</mask>
<path d="M236 33H430V9.99998H236V33Z" fill="url(#paint0_linear_7_4)"/>
<path d="M430 9.99998V8.99998H431V9.99998H430ZM236 9.99998H235V8.99998H236V9.99998ZM430 33H429V9.99998H430H431V33H430ZM430 9.99998V11H236V9.99998V8.99998H430V9.99998ZM236 9.99998H237V33H236H235V9.99998H236Z" fill="black" mask="url(#path-1-outside-1_7_4)"/>
<g filter="url(#filter0_d_7_4)">
<path d="M4 28.38L228 28.38L228 3.85288L430 3.85288" stroke="#49081C"/>
</g>
<defs>
<filter id="filter0_d_7_4" x="0" y="0.352875" width="434" height="33.5271" filterUnits="userSpaceOnUse" color-interpolation-filters="sRGB">
<feFlood flood-opacity="0" result="BackgroundImageFix"/>
<feColorMatrix in="SourceAlpha" type="matrix" values="0 0 0 0 0 0 0 0 0 0 0 0 0 0 0 0 0 0 127 0" result="hardAlpha"/>
<feOffset dy="1"/>
<feGaussianBlur stdDeviation="2"/>
<feComposite in2="hardAlpha" operator="out"/>
<feColorMatrix type="matrix" values="0 0 0 0 0.4 0 0 0 0 0.0588235 0 0 0 0 0.141176 0 0 0 1 0"/>
<feBlend mode="normal" in2="BackgroundImageFix" result="effect1_dropShadow_7_4"/>
<feBlend mode="normal" in="SourceGraphic" in2="effect1_dropShadow_7_4" result="shape"/>
</filter>
<linearGradient id="paint0_linear_7_4" x1="430" y1="21.5" x2="236" y2="21.5" gradientUnits="userSpaceOnUse">
<stop stop-color="#2A0112"/>
<stop offset="1" stop-color="#43061A"/>
</linearGradient>
</defs>
</svg>
