<svg width="434" height="34" viewBox="0 0 434 34" fill="none" xmlns="http://www.w3.org/2000/svg">
<mask id="path-1-outside-1_7_2" maskUnits="userSpaceOnUse" x="4" y="9" width="196" height="24" fill="black">
<rect fill="white" x="4" y="9" width="196" height="24"/>
<path d="M5 33H199V10H5V33Z"/>
</mask>
<path d="M5 33H199V10H5V33Z" fill="url(#paint0_linear_7_2)"/>
<path d="M199 10V9H200V10H199ZM5 10H4V9H5V10ZM199 33H198V10H199H200V33H199ZM199 10V11H5V10V9H199V10ZM5 10H6V33H5H4V10H5Z" fill="black" mask="url(#path-1-outside-1_7_2)"/>
<g filter="url(#filter0_d_7_2)">
<path d="M430 28.38L206 28.38L206 3.85288L3.99998 3.85288" stroke="#0059FF"/>
</g>
<defs>
<filter id="filter0_d_7_2" x="0" y="0.352879" width="434" height="33.5272" filterUnits="userSpaceOnUse" color-interpolation-filters="sRGB">
<feFlood flood-opacity="0" result="BackgroundImageFix"/>
<feColorMatrix in="SourceAlpha" type="matrix" values="0 0 0 0 0 0 0 0 0 0 0 0 0 0 0 0 0 0 127 0" result="hardAlpha"/>
<feOffset dy="1"/>
<feGaussianBlur stdDeviation="2"/>
<feComposite in2="hardAlpha" operator="out"/>
<feColorMatrix type="matrix" values="0 0 0 0 0.0288462 0 0 0 0 0.304006 0 0 0 0 1 0 0 0 1 0"/>
<feBlend mode="normal" in2="BackgroundImageFix" result="effect1_dropShadow_7_2"/>
<feBlend mode="normal" in="SourceGraphic" in2="effect1_dropShadow_7_2" result="shape"/>
</filter>
<linearGradient id="paint0_linear_7_2" x1="199" y1="21.5" x2="5" y2="21.5" gradientUnits="userSpaceOnUse">
<stop stop-color="#0600AB"/>
<stop offset="1" stop-color="#00033D"/>
</linearGradient>
</defs>
</svg>
