<svg width="517" height="138" viewBox="0 0 517 138" fill="none" xmlns="http://www.w3.org/2000/svg">
<path d="M361 0C556 46 580 92 361 138H0.00012207V0H361Z" fill="#FFE0B2"/>
<path d="M513.771 69.3232C514.384 74.0226 512.436 79.0388 506.906 84.4658C501.351 89.9172 492.421 95.5219 479.785 101.221C454.577 112.589 415.312 124.028 360.74 135.5H2.49963V2.5H360.707C409.275 13.9667 447.068 25.4033 473.059 36.79C486.087 42.4974 496.03 48.1414 502.861 53.6904C509.73 59.2706 513.142 64.499 513.771 69.3232Z" stroke="#4E342E" stroke-opacity="0.99" stroke-width="5"/>
<path d="M361 0C406.697 61.3598 386.262 90.4657 361 138H0V0H361Z" fill="#F2B4D2"/>
<path d="M359.74 2.5C381.749 32.3592 387.55 54.0758 385.129 73.8809C382.691 93.811 371.955 112.142 359.502 135.5H2.49963V2.5H359.74Z" stroke="#4E342E" stroke-opacity="0.99" stroke-width="5"/>
<path d="M512 71.5C512 97.021 442.5 110.5 442.5 110.5C452.222 78.2765 452.816 60.2193 442.5 28C442.5 28 512 45.979 512 71.5Z" fill="#F2B4D2"/>
</svg>
