<svg width="351" height="186" viewBox="0 0 351 186" fill="none" xmlns="http://www.w3.org/2000/svg">
<path d="M340.929 155.844C322.794 198.513 249.697 183.401 164.825 183.401C79.953 183.401 5.42381 185.308 5.42381 148.733C-22.2566 86.5076 59.8302 5.61476 164.825 0.28116C269.819 -5.05244 386.268 74.0626 340.929 155.844Z" fill="#B47338"/>
<path d="M164.826 0.253662C169.965 -0.00739429 175.131 -0.0639082 180.305 0.0700684C171.744 5.05513 165.298 12.8769 162.298 22.2664C160.703 27.2601 160.14 32.5304 160.639 37.7908L163.269 65.5164L203.654 1.95288C222.766 4.52369 241.555 9.54874 258.982 16.5417C254.499 20.9669 251.103 26.3983 249.158 32.489C247.562 37.4826 246.999 42.7523 247.498 48.0125L250.127 75.739L281.156 26.9021C335.444 56.1477 368.839 105.476 340.931 155.816C322.796 198.485 249.697 183.374 164.826 183.374C79.9539 183.374 5.42511 185.28 5.42511 148.705C-15.2396 102.25 25.2739 45.3942 90.8235 17.3376C90.237 18.6477 89.7211 19.9957 89.2796 21.3777C87.6844 26.3713 87.1206 31.6409 87.6194 36.9011L90.2493 64.6277L127.921 5.33276C139.786 2.64794 152.138 0.898185 164.826 0.253662Z" fill="#EBAB70"/>
</svg>
