<svg width="398" height="274" viewBox="0 0 398 274" fill="none" xmlns="http://www.w3.org/2000/svg">
<path d="M235.742 11.5127L266.997 14.4443L303.371 20.5078L334.549 29.2295L360.063 38.418L370.781 44.0225C373.528 45.4587 376.099 47.2094 378.441 49.2393L381.096 51.5391C382.723 52.9492 384.112 54.613 385.209 56.4658L385.979 57.7666C387.302 60.001 388 62.55 388 65.1465V65.3672C388 66.4257 387.867 67.48 387.606 68.5059C387.049 70.6983 385.917 72.703 384.327 74.3125L383.763 74.8828C382.894 75.7624 381.925 76.5367 380.874 77.1885L376.291 80.0312C376.141 80.1242 375.983 80.2044 375.819 80.2695C367.065 83.7458 361.318 92.211 361.318 101.63V257.294C361.318 258.079 361.149 258.856 360.822 259.57C360.256 260.809 359.247 261.791 357.995 262.326L356.107 263.133C354.769 263.705 353.328 264 351.872 264H47.375C46.1227 264 44.8796 263.782 43.7021 263.355L41.5166 262.564C39.657 261.891 38.2291 260.372 37.6729 258.475C37.5068 257.908 37.4229 257.32 37.4229 256.729V106.089C37.4229 93.9539 29.9462 83.0727 18.6182 78.7217C17.7321 78.3813 16.904 77.908 16.1621 77.3184L15.8496 77.0586L14.8164 76.1611C13.3506 74.8879 12.1653 73.3234 11.3369 71.5674L11.1895 71.2539C10.4064 69.5939 10 67.7808 10 65.9453C10 63.3635 10.8028 60.8452 12.2979 58.7402L15.0234 54.9043C16.3655 53.0147 17.9439 51.3038 19.7197 49.8145L22.999 47.0635C24.7306 45.6112 26.5826 44.3085 28.5342 43.1689L36.0938 38.7539C37.9105 37.6931 39.8087 36.778 41.7695 36.0156L53.1377 31.5957L67.8291 27.1973L99.3467 20.1807L124.752 15.8506L150.213 13.3125L201.514 10.0137L235.742 11.5127Z" fill="#FECA9B" stroke="#7B512A" stroke-width="20"/>
</svg>
