<svg width="26" height="23" viewBox="0 0 26 23" fill="none" xmlns="http://www.w3.org/2000/svg">
<path d="M18.6983 10.5838H7.30166C7.16556 10.5837 7.03077 10.6073 6.90499 10.6533C6.77921 10.6993 6.66492 10.7667 6.56863 10.8518C6.47235 10.9369 6.39596 11.038 6.34385 11.1492C6.29173 11.2604 6.26491 11.3796 6.26491 11.5V12.4171C6.26519 12.6602 6.37455 12.8932 6.56895 13.065C6.76334 13.2368 7.02688 13.3333 7.30166 13.3333H7.81949L8.26907 18.8983C8.28774 19.1298 8.40504 19.3465 8.59728 19.5044C8.78952 19.6624 9.04236 19.7499 9.30474 19.7493H16.7017C16.964 19.7497 17.2168 19.6621 17.4089 19.5042C17.6011 19.3463 17.7185 19.1298 17.7374 18.8983L18.1816 13.3333H18.6994C18.8355 13.3333 18.9703 13.3096 19.096 13.2635C19.2217 13.2174 19.3359 13.1498 19.4321 13.0646C19.5283 12.9794 19.6046 12.8783 19.6565 12.7671C19.7085 12.6558 19.7352 12.5366 19.7351 12.4162V11.5C19.7352 11.3796 19.7085 11.2604 19.6565 11.1491C19.6046 11.0378 19.5283 10.9367 19.4321 10.8515C19.3359 10.7664 19.2217 10.6988 19.096 10.6527C18.9703 10.6066 18.8355 10.5829 18.6994 10.5829" fill="#FFCCCC"/>
<path d="M14.5546 10.5838H11.4454V19.7493H14.5546V10.5838Z" fill="#FF808C"/>
<path d="M11.4465 13.3333H7.30166C7.16547 13.3334 7.03059 13.3098 6.90474 13.2637C6.77889 13.2177 6.66455 13.1501 6.56825 13.0649C6.47195 12.9798 6.39559 12.8786 6.34354 12.7673C6.29148 12.656 6.26477 12.5366 6.26491 12.4162V11.5C6.26477 11.3795 6.29148 11.2602 6.34354 11.1489C6.39559 11.0376 6.47195 10.9364 6.56825 10.8512C6.66455 10.766 6.77889 10.6985 6.90474 10.6524C7.03059 10.6064 7.16547 10.5827 7.30166 10.5829H18.6983C18.9733 10.5829 19.237 10.6795 19.4314 10.8515C19.6258 11.0235 19.7351 11.2568 19.7351 11.5V12.4171C19.7351 12.6601 19.626 12.8931 19.4317 13.0649C19.2375 13.2368 18.9741 13.3333 18.6994 13.3333H14.5546" stroke="#191919" stroke-linecap="round" stroke-linejoin="round"/>
<path d="M14.5546 13.3333H18.1805L17.7309 18.8983C17.7123 19.1298 17.595 19.3465 17.4027 19.5044C17.2105 19.6624 16.9576 19.7499 16.6952 19.7493H9.3015C9.03912 19.7499 8.78627 19.6624 8.59403 19.5044C8.40179 19.3465 8.28449 19.1298 8.26583 18.8983L7.8195 13.3333H11.4454M11.4454 10.5838V19.7493M14.5546 19.7493V10.5838M13 10.5829C13 10.5829 9.99483 9.93408 9.373 9.38112C9.22268 9.2497 9.10321 9.09329 9.02148 8.92087C8.93974 8.74846 8.89734 8.56346 8.89672 8.3765C8.8961 8.18954 8.93727 8.00432 9.01786 7.83149C9.09845 7.65866 9.21688 7.50162 9.36632 7.36943C9.51576 7.23723 9.69328 7.13247 9.88865 7.06117C10.084 6.98988 10.2934 6.95346 10.5048 6.95401C10.7161 6.95456 10.9252 6.99207 11.1201 7.06437C11.315 7.13668 11.4918 7.24236 11.6404 7.37533C12.2655 7.92541 13 10.5829 13 10.5829ZM13 10.5829C13 10.5829 16.0052 9.93408 16.627 9.38112C16.9248 9.1146 17.0912 8.75467 17.09 8.37995C17.0887 8.00523 16.9199 7.64617 16.6204 7.3812C16.3208 7.11623 15.9149 6.96689 15.4913 6.96579C15.0677 6.96469 14.6609 7.11192 14.3596 7.37533C13.7345 7.92541 13 10.5829 13 10.5829ZM13 4.62491V3.25066M20.3266 7.31016L21.4251 6.33841M23.3621 13.3333H24.9167M5.67341 7.31016L4.57383 6.33841M2.63791 13.3333H1.08333" stroke="#191919" stroke-linecap="round" stroke-linejoin="round"/>
</svg>
