<svg width="16" height="13" viewBox="0 0 16 13" fill="none" xmlns="http://www.w3.org/2000/svg">
<path d="M9.99143 6.33929C9.13622 7.22149 9.52809 8.7656 9.52809 8.7656C9.52809 8.7656 11.0983 8.91528 11.9539 8.03309C12.8096 7.15089 12.496 5.57067 12.496 5.57067C12.496 5.57067 10.8466 5.45782 9.99143 6.33929Z" fill="#5C9E31"/>
<path d="M6.26809 5.75251C5.57226 5.93307 4.60559 6.47474 4.42851 7.67724L4.88476 7.70974H4.88684L4.84934 8.10515C7.25976 8.17196 7.46392 6.41696 7.46392 6.41696H7.60767C7.60767 6.41696 7.79101 8.17196 10.2014 8.10515L10.1639 7.70974H10.166L10.6223 7.67724C10.4452 6.47474 9.47851 5.93307 8.78267 5.75251C9.51392 5.79585 10.6827 5.58821 11.3243 4.45974L10.9035 4.30085L11.0868 3.93613C9.62434 3.45404 8.80976 3.90904 8.33684 4.39654C8.70559 3.7989 8.95142 2.89613 7.87851 1.87238L7.55351 2.15404H7.55142L7.22851 1.87238C6.15351 2.89613 6.39934 3.7989 6.76809 4.39654H6.73476C6.26184 3.90904 5.42642 3.45404 3.96392 3.93613L4.14726 4.30085L3.72642 4.45974C4.36809 5.58821 5.53892 5.79585 6.26809 5.75251Z" fill="#FFA7C0"/>
<path d="M7.46557 4.69788C7.46557 4.69788 7.26224 4.69751 7.05786 4.74356L7.28119 5.99517C7.67494 5.98668 8.1937 5.67197 8.1937 5.32892C8.1937 5.16156 8.11698 5.00105 7.98043 4.8827C7.84388 4.76436 7.65868 4.69788 7.46557 4.69788Z" fill="#FCEA2B"/>
<path d="M11.0912 8.39963C11.3693 8.26782 11.6372 8.09377 11.8537 7.86446C12.6854 6.98227 12.4379 5.61438 12.4379 5.61438C12.4379 5.61438 11.3935 5.65591 10.5541 6.13835" stroke="black" stroke-width="0.5" stroke-linecap="round" stroke-linejoin="round"/>
<path d="M6.20828 5.80158C5.47786 5.84401 4.30828 5.63637 3.66661 4.50826L4.08744 4.34955V4.34901L3.90432 3.98429C5.36723 3.50293 6.20098 3.95793 6.67453 4.44543H6.7089C6.34015 3.84725 6.09411 2.94465 7.16765 1.92126L7.49223 2.20239H7.49265H7.49328L7.81765 1.92108C8.89119 2.94465 8.64515 3.84725 8.2764 4.44525C8.74994 3.95811 9.5639 3.50311 11.0266 3.98429L10.8437 4.34901V4.34955L11.2645 4.50826C10.6229 5.63637 9.45328 5.84401 8.72286 5.80158" stroke="black" stroke-width="0.5" stroke-miterlimit="10" stroke-linecap="round" stroke-linejoin="round"/>
<path d="M8.72286 5.80164C9.41765 5.98219 10.3851 6.52386 10.5624 7.726L10.1047 7.75759L10.1045 7.75795L10.1408 8.15445C7.72994 8.2209 7.54827 6.46482 7.54827 6.46482H7.40265C7.40265 6.46482 7.20015 8.2209 4.78931 8.15445L4.82577 7.75795L4.82536 7.75759L4.36786 7.726C4.54494 6.52386 5.51244 5.98237 6.20744 5.80164" stroke="black" stroke-width="0.5" stroke-miterlimit="10" stroke-linecap="round" stroke-linejoin="round"/>
<path d="M7.4839 5.9598C7.58743 5.95742 7.68918 5.93592 7.78237 5.89675C7.87555 5.85758 7.95802 5.80163 8.02427 5.73263C8.09052 5.66364 8.13902 5.58319 8.16654 5.49666C8.19406 5.41013 8.19997 5.3195 8.18386 5.23084C8.16775 5.14217 8.13 5.0575 8.07314 4.98248C8.01627 4.90747 7.94159 4.84383 7.85409 4.79581C7.76658 4.7478 7.66826 4.71651 7.5657 4.70405C7.46313 4.69159 7.35868 4.69823 7.25932 4.72353M7.40286 5.32876L6.88577 5.14278" stroke="black" stroke-width="0.5" stroke-miterlimit="10" stroke-linecap="round" stroke-linejoin="round"/>
<path d="M6.10175 5.11864C5.95494 5.06167 5.88922 4.91234 5.95496 4.78511C6.0207 4.65787 6.193 4.60092 6.3398 4.65789C6.48661 4.71486 6.55233 4.86419 6.48659 4.99142C6.42086 5.11866 6.24855 5.17561 6.10175 5.11864Z" fill="black"/>
<path d="M7.40286 5.32892L6.89099 5.77309" stroke="black" stroke-width="0.5" stroke-miterlimit="10" stroke-linecap="round" stroke-linejoin="round"/>
<path d="M7.63205 7.92511C8.3483 8.56572 9.23122 9.77508 8.84663 11.6689" stroke="black" stroke-width="0.5" stroke-linecap="round" stroke-linejoin="round"/>
</svg>
