<svg width="13" height="13" viewBox="0 0 13 13" fill="none" xmlns="http://www.w3.org/2000/svg">
<g clip-path="url(#clip0_1_76)">
<path d="M9.75 3.65625V9.34375C9.75 9.55924 9.6644 9.7659 9.51202 9.91827C9.35965 10.0706 9.15299 10.1562 8.9375 10.1562H1.625C1.40951 10.1562 1.20285 10.0706 1.05048 9.91827C0.898102 9.7659 0.8125 9.55924 0.8125 9.34375V3.65625C0.8125 3.44076 0.898102 3.2341 1.05048 3.08173C1.20285 2.92935 1.40951 2.84375 1.625 2.84375H8.9375C9.15299 2.84375 9.35965 2.92935 9.51202 3.08173C9.6644 3.2341 9.75 3.44076 9.75 3.65625ZM12.6953 3.66895C12.638 3.65492 12.5784 3.65319 12.5203 3.66387C12.4623 3.67455 12.4072 3.69739 12.3586 3.7309L10.6529 4.86789C10.6251 4.88646 10.6023 4.9116 10.5865 4.9411C10.5707 4.9706 10.5625 5.00354 10.5625 5.03699V7.96301C10.5625 7.99646 10.5707 8.0294 10.5865 8.0589C10.6023 8.0884 10.6251 8.11354 10.6529 8.13211L12.3683 9.2757C12.4325 9.31853 12.5076 9.34219 12.5847 9.3439C12.6619 9.34561 12.7379 9.3253 12.804 9.28535C12.8651 9.24651 12.9152 9.19264 12.9495 9.12889C12.9838 9.06513 13.0012 8.99364 13 8.92125V4.0625C13 3.9724 12.9701 3.88484 12.915 3.8136C12.8598 3.74236 12.7826 3.69147 12.6953 3.66895Z" fill="#FFE6E6"/>
</g>
<defs>
<clipPath id="clip0_1_76">
<rect width="13" height="13" fill="white"/>
</clipPath>
</defs>
</svg>
