<svg width="8" height="8" viewBox="0 0 8 8" fill="none" xmlns="http://www.w3.org/2000/svg">
<g clip-path="url(#clip0_1_60)">
<path fill-rule="evenodd" clip-rule="evenodd" d="M7.05 -3.38748e-07C6.375 -3.38748e-07 5.72 0.2655 5.235 0.75L2.67 3.305C2.60603 3.2467 2.53477 3.19695 2.458 3.157C2.32975 3.09353 2.18859 3.06051 2.0455 3.06051C1.90241 3.06051 1.76124 3.09353 1.633 3.157C1.4925 3.2265 1.3755 3.3445 1.2895 3.4315L1.264 3.457L1.2385 3.4825C1.1515 3.5685 1.0335 3.6855 0.963498 3.826C0.90003 3.95425 0.867011 4.09541 0.867011 4.2385C0.867011 4.38159 0.90003 4.52275 0.963498 4.651C1.0335 4.7915 1.1515 4.9085 1.2385 4.9945L1.264 5.02L1.4145 5.1705L1.335 5.2505C0.97555 5.25834 0.633472 5.40667 0.382062 5.66368C0.130653 5.9207 -0.0100877 6.26597 -0.0100021 6.6255C-0.0100021 7.3855 0.604998 8.0005 1.365 8.0005C2.115 8.0005 2.72 7.4005 2.74 6.6605L2.8195 6.5805L2.97 6.731L2.9955 6.7565C3.0815 6.8435 3.1985 6.9615 3.339 7.0315C3.5985 7.1595 3.904 7.1595 4.164 7.0315C4.3045 6.9615 4.4215 6.8435 4.5075 6.7565L4.5325 6.7315L4.5585 6.7055C4.6455 6.6195 4.7635 6.5025 4.8335 6.362C4.89697 6.23375 4.92999 6.09259 4.92999 5.9495C4.92999 5.80641 4.89697 5.66525 4.8335 5.537C4.79339 5.4602 4.74347 5.38893 4.685 5.325L7.24 2.76C7.4781 2.52156 7.66689 2.23854 7.79558 1.92712C7.92427 1.6157 7.99033 1.28197 7.99 0.945V0.942C7.99 0.774333 7.97333 0.607666 7.94 0.442C7.92061 0.345278 7.87305 0.256451 7.8033 0.186698C7.73355 0.116945 7.64472 0.0693838 7.548 0.0499997C7.3818 0.0162471 7.21259 -0.000505838 7.043 -3.38748e-07H7.05ZM6.89 2.405C7.27682 2.0175 7.49436 1.49253 7.495 0.945V0.9425C7.4954 0.806825 7.482 0.671461 7.455 0.5385C7.12157 0.471354 6.77671 0.48781 6.45119 0.586398C6.12568 0.684987 5.82964 0.86264 5.5895 1.1035L2.6745 4.0085L2.476 3.8095C2.3595 3.693 2.301 3.635 2.2385 3.6045C2.17952 3.57555 2.1147 3.56049 2.049 3.56049C1.9833 3.56049 1.91847 3.57555 1.8595 3.6045C1.7965 3.635 1.7385 3.6935 1.622 3.8095C1.5055 3.9255 1.447 3.9845 1.4165 4.047C1.38754 4.10597 1.37249 4.1708 1.37249 4.2365C1.37249 4.3022 1.38754 4.36702 1.4165 4.426C1.4475 4.489 1.506 4.547 1.6215 4.6635L2.1265 5.1685L1.5315 5.7635C1.34785 5.7293 1.15808 5.75477 0.989948 5.83618C0.821817 5.91759 0.684155 6.05067 0.597104 6.21596C0.510052 6.38124 0.478182 6.57004 0.506156 6.75474C0.53413 6.93944 0.62048 7.11034 0.752571 7.24243C0.884662 7.37452 1.05556 7.46087 1.24026 7.48884C1.42496 7.51682 1.61376 7.48495 1.77904 7.39789C1.94432 7.31084 2.07741 7.17318 2.15882 7.00505C2.24023 6.83692 2.2657 6.64715 2.2315 6.4635L2.8265 5.8685L3.3315 6.3735C3.448 6.49 3.5065 6.548 3.569 6.5795C3.62797 6.60845 3.6928 6.62351 3.7585 6.62351C3.8242 6.62351 3.88902 6.60845 3.948 6.5795C4.011 6.5485 4.069 6.4895 4.1855 6.3735C4.302 6.257 4.3605 6.1985 4.3915 6.136C4.42045 6.07702 4.43551 6.0122 4.43551 5.9465C4.43551 5.8808 4.42045 5.81597 4.3915 5.757C4.3605 5.694 4.302 5.636 4.1865 5.5195L3.9875 5.321L6.8925 2.406L6.89 2.405Z" fill="#FFE6E6"/>
</g>
<defs>
<clipPath id="clip0_1_60">
<rect width="8" height="8" fill="white"/>
</clipPath>
</defs>
</svg>
