<svg width="9" height="7" viewBox="0 0 9 7" fill="none" xmlns="http://www.w3.org/2000/svg">
<path d="M6.22245 1.12977C6.79418 0.990726 7.20979 1.03545 7.51554 1.19012C7.80802 1.3381 8.01715 1.59544 8.12385 2.03412C8.21 2.38829 8.10878 2.88425 7.62804 3.56981L5.57584 6.37154L2.46255 4.81925L2.442 4.80917L2.42097 4.80122L2.41531 4.79858C2.4109 4.79661 2.40387 4.79307 2.39594 4.78922C2.37998 4.78145 2.35892 4.77051 2.33268 4.75637C2.29451 4.73577 2.21203 4.68518 2.07365 4.59224C1.95267 4.51096 1.84216 4.42494 1.74298 4.33598C1.66165 4.26297 1.57236 4.16135 1.47803 4.02354C1.39601 3.90371 1.34737 3.79212 1.32218 3.68858C1.21548 3.2499 1.28304 2.92525 1.47488 2.65947C1.67542 2.38164 2.02406 2.15102 2.59578 2.01194C2.72536 1.98042 2.86741 1.96709 3.02378 1.97416C3.18573 1.98149 3.33799 2.00624 3.48091 2.04789C3.65351 2.0982 3.79802 2.14624 3.91605 2.1923C4.03495 2.23871 4.14951 2.29071 4.25944 2.34797L4.64731 2.55011L4.899 2.1924C4.97035 2.09105 5.04823 1.99223 5.13253 1.8964C5.21622 1.80128 5.32251 1.69223 5.45272 1.56826C5.56054 1.46562 5.68442 1.3737 5.82491 1.2928C5.96056 1.2147 6.09287 1.16129 6.22245 1.12977Z" fill="white" stroke="#F9C0BF"/>
</svg>
