<svg width="6" height="6" viewBox="0 0 6 6" fill="none" xmlns="http://www.w3.org/2000/svg">
<path d="M1.82105 0.855896C1.43057 0.760969 1.16462 0.802747 0.974146 0.908188C0.790942 1.00965 0.643489 1.1892 0.562147 1.52356C0.500852 1.77555 0.55752 2.13825 0.890285 2.65364L2.28978 4.72172L4.48798 3.52272L4.5078 3.51147L4.52906 3.50257C4.53074 3.50172 4.53341 3.50045 4.53709 3.49849C4.54706 3.49317 4.56156 3.48483 4.58028 3.47382C4.60315 3.46034 4.66043 3.42196 4.76398 3.34664C4.85021 3.28391 4.92885 3.21869 4.99959 3.15068C5.0538 3.09854 5.11633 3.02248 5.18521 2.91643C5.2426 2.82802 5.27652 2.74762 5.29428 2.67462C5.3756 2.34026 5.32709 2.11304 5.21096 1.93876C5.09021 1.75761 4.87313 1.59836 4.4827 1.50332C4.4049 1.4844 4.31642 1.47586 4.21539 1.48252C4.10835 1.48961 4.00816 1.50989 3.91377 1.54082C3.78868 1.58181 3.68537 1.62014 3.60233 1.65602C3.51849 1.69225 3.43763 1.73264 3.35985 1.77694L2.94944 2.00978L2.69277 1.61468C2.64401 1.53958 2.59076 1.4666 2.53292 1.39589C2.47563 1.32587 2.4015 1.24441 2.30919 1.15051C2.23954 1.07966 2.15989 1.01567 2.06804 0.960197C1.98133 0.907849 1.89886 0.874824 1.82105 0.855896Z" fill="white" stroke="#F9C0BF"/>
</svg>
