<svg width="16" height="16" viewBox="0 0 16 16" fill="none" xmlns="http://www.w3.org/2000/svg">
<g clip-path="url(#clip0_1_17)">
<path d="M8.22501 4.32501L8.85001 16H7.60001L8.22501 4.32501Z" fill="#75A843"/>
<path d="M6.77499 11.325C8.47499 12.25 8.09999 13.85 8.09999 13.85C8.09999 13.85 6.69999 15.125 4.97499 14.2C3.79999 13.575 2.77499 11.1 2.77499 11.1C2.77499 11.1 5.57499 10.7 6.77499 11.325Z" fill="#83BF4F"/>
<path d="M10.225 12.1L8.4 11.575L8.375 12.575L10.225 12.1Z" fill="#947151"/>
<path d="M6.4 5.55C7.325 7.925 7.7 9.175 9.325 9.175C10.95 9.175 13.4 5.025 11.05 3.675C8.75 2.35 8.825 0.5 8.825 0.5C8.825 0.5 4.875 1.675 6.4 5.55Z" fill="#871212"/>
<path d="M11.3 6.04999C10.1 8.32499 10 9.67499 8.37501 9.67499C6.75001 9.67499 3.80001 4.22499 6.42501 3.39999C9.67501 2.37499 10.5 1.17499 10.5 1.17499C10.5 1.17499 13.075 2.64999 11.3 6.04999Z" fill="#991D1D"/>
<path d="M11.5 3.99999C11.5 3.02499 7.25 2.19999 6.5 0.674988C6.5 0.674988 4.45 2.14999 5.225 3.67499C5.675 4.52499 11.475 7.29999 11.5 3.99999Z" fill="#AD2727"/>
<path d="M9.2 4.87499C11.8 8.12499 10.4 10.075 8.275 10.075C6.15 10.075 3.825 8.02499 4.425 5.62499C5.025 3.22499 4.175 1.17499 4.175 1.17499C4.175 1.17499 7.225 2.39999 9.2 4.87499Z" fill="#CC3636"/>
<path d="M6.825 4.62499C3.875 7.59999 6.3 10.05 8.425 10.05C10.55 10.05 12.275 8.04999 12.275 5.59999C12.275 3.14999 12.925 1.64999 12.925 1.64999C12.925 1.64999 8.925 2.49999 6.825 4.62499Z" fill="#E24B4B"/>
<path d="M8.5 9.02501C11.775 8.97501 10.35 10.275 8.225 10.275C3 10.275 3.225 5.70001 3.225 5.70001C3.225 5.70001 5.575 9.05001 8.5 9.02501Z" fill="#75A843"/>
<path d="M8.5 9.02501C7.625 9.37501 5.325 9.90001 7.4 10.3C11.5 11.125 13.225 5.85001 13.225 5.85001C13.225 5.85001 11.125 7.95001 8.5 9.02501Z" fill="#83BF4F"/>
</g>
<defs>
<clipPath id="clip0_1_17">
<rect width="16" height="16" fill="white"/>
</clipPath>
</defs>
</svg>
