<svg width="39" height="19" viewBox="0 0 39 19" fill="none" xmlns="http://www.w3.org/2000/svg">
<rect width="39" height="19" rx="9.5" fill="white"/>
<path fill-rule="evenodd" clip-rule="evenodd" d="M22.8333 6.25C22.8333 5.85218 22.6402 5.47064 22.2964 5.18934C21.9526 4.90804 21.4862 4.75 21 4.75H13.6667C13.1804 4.75 12.7141 4.90804 12.3703 5.18934C12.0265 5.47064 11.8333 5.85218 11.8333 6.25V13.75C11.8333 14.1478 12.0265 14.5294 12.3703 14.8107C12.7141 15.092 13.1804 15.25 13.6667 15.25H21C21.4862 15.25 21.9526 15.092 22.2964 14.8107C22.6402 14.5294 22.8333 14.1478 22.8333 13.75V6.25ZM24.6667 13.2902L28.9603 14.4618C29.0981 14.4993 29.2449 14.5095 29.3885 14.4916C29.5321 14.4736 29.6684 14.428 29.7862 14.3585C29.904 14.289 29.9999 14.1976 30.0661 14.0918C30.1322 13.986 30.1667 13.8688 30.1667 13.75V6.25C30.1667 6.13116 30.1322 6.01402 30.0661 5.90822C29.9999 5.80242 29.904 5.711 29.7862 5.64149C29.6684 5.57198 29.5321 5.52637 29.3885 5.50842C29.2449 5.49047 29.0981 5.5007 28.9603 5.53825L24.6667 6.70975V13.2902Z" fill="#D92211"/>
</svg>
