<svg width="39" height="20" viewBox="0 0 39 20" fill="none" xmlns="http://www.w3.org/2000/svg">
<rect width="39" height="19" rx="9.5" fill="white"/>
<path fill-rule="evenodd" clip-rule="evenodd" d="M17.912 12.8756C17.818 12.7914 17.765 12.6771 17.7646 12.5578C17.7642 12.4385 17.8165 12.3239 17.91 12.2393L21.44 9.05149C21.5348 8.97266 21.6597 8.92985 21.7887 8.93201C21.9177 8.93416 22.0408 8.98112 22.1322 9.06306C22.2237 9.145 22.2763 9.25557 22.2793 9.37167C22.2822 9.48776 22.2352 9.60039 22.148 9.68599L18.618 12.8747C18.5243 12.9588 18.3974 13.006 18.265 13.006C18.1327 13.006 18.0057 12.9597 17.912 12.8756Z" fill="#D92211"/>
<path fill-rule="evenodd" clip-rule="evenodd" d="M27.04 5.1545C27.0547 5.08274 27.0497 5.00885 27.0256 4.9392C27.0015 4.86954 26.9589 4.80622 26.9015 4.75467C26.8441 4.70312 26.7737 4.66491 26.6962 4.64331C26.6188 4.62171 26.5367 4.61738 26.457 4.6307L23.857 5.0672C23.7577 5.08384 23.6664 5.12714 23.595 5.1914L17.2 10.9676C17.1063 11.052 17.0536 11.1664 17.0536 11.2857C17.0536 11.4051 17.1063 11.5195 17.2 11.6039L19.326 13.5092C19.4198 13.5936 19.5469 13.641 19.6795 13.641C19.8121 13.641 19.9392 13.5936 20.033 13.5092L26.427 7.7321C26.4986 7.6676 26.5467 7.58506 26.565 7.4954L27.04 5.1545ZM26.274 3.746C26.513 3.70598 26.7592 3.71884 26.9915 3.78346C27.2237 3.84809 27.435 3.96255 27.6072 4.11699C27.7794 4.27143 27.9073 4.46122 27.9799 4.67002C28.0525 4.87881 28.0676 5.10037 28.024 5.3156L27.55 7.6574C27.4956 7.92659 27.3515 8.17454 27.137 8.3684L20.743 14.1437C20.604 14.2694 20.4388 14.3692 20.2569 14.4374C20.075 14.5056 19.8799 14.5409 19.6828 14.5412C19.4858 14.5415 19.2906 14.5069 19.1084 14.4393C18.9262 14.3717 18.7606 14.2725 18.621 14.1473L16.496 12.242C16.3564 12.1169 16.2455 11.9682 16.1697 11.8045C16.0939 11.6408 16.0547 11.4652 16.0543 11.2878C16.054 11.1105 16.0924 10.9348 16.1675 10.7708C16.2426 10.6069 16.3529 10.4578 16.492 10.3322L22.886 4.556C23.1005 4.36224 23.3753 4.23168 23.674 4.1816L26.274 3.746Z" fill="#D92211"/>
<path fill-rule="evenodd" clip-rule="evenodd" d="M13.31 10.6562C13.4954 10.4885 13.7156 10.3553 13.9582 10.2643C14.2008 10.1732 14.4609 10.1261 14.7238 10.1256C14.9866 10.1251 15.247 10.1712 15.49 10.2613C15.733 10.3515 15.9539 10.4838 16.14 10.6508L20.39 14.4623C20.7658 14.7992 20.9775 15.2567 20.9786 15.7341C20.9796 16.2115 20.7699 16.6697 20.3955 17.008C20.0212 17.3462 19.5128 17.5367 18.9824 17.5376C18.452 17.5386 17.9428 17.3498 17.567 17.0129L13.316 13.2014C12.9404 12.8644 12.7289 12.407 12.7279 11.9297C12.727 11.4524 12.9367 10.9943 13.311 10.6562M15.434 11.2889C15.3416 11.2031 15.2311 11.1348 15.1089 11.0879C14.9868 11.041 14.8556 11.0164 14.7228 11.0156C14.59 11.0148 14.4584 11.0379 14.3356 11.0834C14.2129 11.1288 14.1014 11.1959 14.0077 11.2806C13.914 11.3652 13.84 11.4658 13.79 11.5765C13.7399 11.6872 13.7149 11.8058 13.7163 11.9253C13.7178 12.0448 13.7456 12.1628 13.7983 12.2725C13.8509 12.3822 13.9273 12.4814 14.023 12.5642L18.273 16.3748C18.4609 16.5433 18.7155 16.6378 18.9808 16.6373C19.2461 16.6369 19.5003 16.5417 19.6875 16.3726C19.8748 16.2034 19.9797 15.9743 19.9792 15.7356C19.9787 15.4968 19.8729 15.268 19.685 15.0995L15.434 11.2889Z" fill="#D92211"/>
<path fill-rule="evenodd" clip-rule="evenodd" d="M15.121 14.1797L12.298 16.7303C12.2044 16.8148 12.1519 16.9293 12.1521 17.0486C12.1523 17.168 12.2051 17.2823 12.299 17.3666L13.008 18.002C13.1019 18.0862 13.2291 18.1335 13.3617 18.1333C13.4943 18.1331 13.6214 18.0856 13.715 18.0011L16.538 15.4505L17.247 16.0859L14.423 18.6365C14.1422 18.8897 13.7611 19.0322 13.3636 19.0327C12.9661 19.0332 12.5847 18.8917 12.303 18.6392L11.593 18.0047C11.4534 17.8795 11.3426 17.7308 11.2669 17.567C11.1912 17.4033 11.1521 17.2277 11.1518 17.0504C11.1515 16.873 11.1901 16.6973 11.2653 16.5334C11.3405 16.3694 11.4508 16.2204 11.59 16.0949L14.413 13.5452L15.121 14.1797Z" fill="#D92211"/>
</svg>
