<svg width="450" height="161" viewBox="0 0 450 161" fill="none" xmlns="http://www.w3.org/2000/svg">
<path d="M13.9816 42.7397L16.7623 41.499C19.4825 40.2853 20.6579 37.0504 19.3731 34.3136C18.6614 32.7975 17.2976 31.6886 15.6789 31.3098L14.3561 31.0003C11.907 30.4273 9.35794 31.2049 7.6642 33.0418C6.2413 34.585 5.58853 36.6982 5.8851 38.8013L6.15485 40.7141C6.48468 43.053 7.54019 45.2369 9.17009 46.9529L13.884 51.9159L17.6468 54.9373C21.2386 57.8214 25.2001 60.2005 29.4202 62.008L36.402 64.9983C59.1839 76.2822 75.0516 77.8781 103.386 80.6699M103.386 80.6699L94.1222 76.9171C90.2124 75.3333 86.5101 73.2616 83.1031 70.7512L80.821 69.0697C78.845 67.6137 76.9961 65.9894 75.2951 64.215L71.1423 59.8831C68.1031 56.7128 66.0427 52.727 65.2167 48.4199L65.098 47.8008C64.4492 44.4178 64.677 40.9355 65.7593 37.6913L66.1573 36.4982C67.2052 33.357 69.2043 30.6364 71.8764 28.715C74.5839 26.768 77.845 25.7404 81.1944 25.7786L82.0915 25.7889C83.9423 25.81 85.7733 26.2248 87.4642 27.006L89.0992 27.7614C90.1226 28.2342 91.0088 28.9669 91.6698 29.8865C93.1338 31.9234 93.3115 34.6114 92.1259 36.7889L90.8944 39.0508L89.7829 40.5963C88.3275 42.62 85.6093 43.2534 83.3794 42.0883C81.5825 41.1495 80.4934 39.2365 80.6047 37.2147L80.8499 32.7583M103.386 80.6699C324.932 70.2117 345.904 64.3741 432.133 116.915" stroke="#4DA653"/>
<path d="M47.8411 67.8884C41.9904 70.9641 35.1262 66.3967 35.5848 59.8043C35.9009 55.261 38.5864 51.1527 42.6391 49.074L55.3396 42.5596L54.7373 56.9957C54.5458 61.5866 51.9105 65.749 47.8411 67.8884Z" fill="#5DB964"/>
<path d="M136.706 82.1085C130.855 85.1842 123.991 80.6168 124.45 74.0244C124.766 69.4811 127.451 65.3728 131.504 63.2941L144.204 56.7797L143.602 71.2158C143.411 75.8067 140.775 79.9691 136.706 82.1085Z" fill="#5DB964"/>
<path d="M193.296 78.3333C189.332 73.0089 181.237 74.0518 178.897 80.2618C177.297 84.5059 178 89.3294 180.744 92.9406L189.596 104.59L194.982 91.4289C196.749 87.1111 196.085 82.0794 193.296 78.3333Z" fill="#5DB964"/>
<path d="M296.371 76.823C292.407 71.4987 284.313 72.5415 281.973 78.7515C280.373 82.9957 281.076 87.8191 283.82 91.4303L292.671 103.08L298.058 89.9187C299.825 85.6009 299.161 80.5692 296.371 76.823Z" fill="#5DB964"/>
<path d="M385.1 91.6681C381.136 86.3438 373.042 87.3866 370.702 93.5966C369.102 97.8408 369.805 102.664 372.549 106.275L381.4 117.925L386.787 104.764C388.554 100.446 387.89 95.4143 385.1 91.6681Z" fill="#5DB964"/>
<path d="M241.612 75.1127C235.761 78.1885 228.897 73.6211 229.355 67.0286C229.671 62.4854 232.357 58.3771 236.41 56.2983L249.11 49.784L248.508 64.2201C248.316 68.811 245.681 72.9734 241.612 75.1127Z" fill="#5DB964"/>
<path d="M332.326 77.9382C326.476 81.0139 319.612 76.4465 320.07 69.8541C320.386 65.3108 323.072 61.2025 327.124 59.1238L339.825 52.6094L339.223 67.0456C339.031 71.6365 336.396 75.7989 332.326 77.9382Z" fill="#5DB964"/>
<path d="M437.29 117.02C433.326 111.695 425.232 112.738 422.891 118.948C421.292 123.192 421.994 128.016 424.738 131.627L433.59 143.277L438.976 130.115C440.743 125.798 440.079 120.766 437.29 117.02Z" fill="#5DB964"/>
</svg>
