<svg width="450" height="161" viewBox="0 0 450 161" fill="none" xmlns="http://www.w3.org/2000/svg">
<path d="M13.9816 117.495L16.7623 118.736C19.4825 119.95 20.6579 123.185 19.3732 125.922C18.6614 127.438 17.2976 128.547 15.6789 128.925L14.3561 129.235C11.907 129.808 9.35795 129.03 7.66421 127.193C6.24131 125.65 5.58853 123.537 5.88511 121.434L6.15486 119.521C6.48469 117.182 7.5402 114.998 9.17009 113.282L13.884 108.319L17.6468 105.298C21.2386 102.414 25.2001 100.035 29.4202 98.2272L36.402 95.2369C59.1839 83.9531 75.0516 82.3571 103.386 79.5653M103.386 79.5653L94.1222 83.3181C90.2124 84.9019 86.5101 86.9736 83.1031 89.484L80.821 91.1656C78.845 92.6215 76.9961 94.2459 75.2951 96.0202L71.1423 100.352C68.1031 103.522 66.0427 107.508 65.2168 111.815L65.098 112.434C64.4492 115.817 64.677 119.3 65.7593 122.544L66.1573 123.737C67.2052 126.878 69.2043 129.599 71.8764 131.52C74.5839 133.467 77.8451 134.495 81.1944 134.457L82.0915 134.446C83.9423 134.425 85.7733 134.01 87.4642 133.229L89.0992 132.474C90.1226 132.001 91.0088 131.268 91.6698 130.349C93.1338 128.312 93.3115 125.624 92.1259 123.446L90.8944 121.184L89.7829 119.639C88.3275 117.615 85.6093 116.982 83.3794 118.147C81.5826 119.086 80.4934 120.999 80.6047 123.021L80.85 127.477M103.386 79.5653C324.932 90.0235 345.904 95.8611 432.133 43.32" stroke="#4DA653"/>
<path d="M47.8411 92.3469C41.9905 89.2711 35.1262 93.8385 35.5848 100.431C35.9009 104.974 38.5864 109.083 42.6391 111.161L55.3396 117.676L54.7373 103.239C54.5458 98.6486 51.9105 94.4862 47.8411 92.3469Z" fill="#5DB964"/>
<path d="M136.706 78.1268C130.855 75.051 123.991 79.6184 124.45 86.2109C124.766 90.7541 127.451 94.8624 131.504 96.9412L144.204 103.456L143.602 89.0194C143.41 84.4285 140.775 80.2661 136.706 78.1268Z" fill="#5DB964"/>
<path d="M193.296 81.9019C189.332 87.2263 181.237 86.1834 178.897 79.9735C177.297 75.7293 178 70.9059 180.744 67.2947L189.596 55.645L194.982 68.8063C196.749 73.1241 196.085 78.1558 193.296 81.9019Z" fill="#5DB964"/>
<path d="M296.372 83.4122C292.407 88.7366 284.313 87.6937 281.973 81.4837C280.373 77.2395 281.076 72.4161 283.82 68.8049L292.671 57.1553L298.058 70.3166C299.825 74.6344 299.161 79.666 296.372 83.4122Z" fill="#5DB964"/>
<path d="M385.101 68.5671C381.136 73.8915 373.042 72.8486 370.702 66.6386C369.102 62.3944 369.805 57.571 372.549 53.9598L381.4 42.3102L386.787 55.4715C388.554 59.7893 387.89 64.821 385.101 68.5671Z" fill="#5DB964"/>
<path d="M241.612 85.1225C235.761 82.0467 228.897 86.6142 229.355 93.2066C229.671 97.7498 232.357 101.858 236.41 103.937L249.11 110.451L248.508 96.0151C248.316 91.4242 245.681 87.2618 241.612 85.1225Z" fill="#5DB964"/>
<path d="M332.327 82.297C326.476 79.2213 319.612 83.7887 320.07 90.3812C320.386 94.9244 323.072 99.0327 327.124 101.111L339.825 107.626L339.223 93.1897C339.031 88.5988 336.396 84.4364 332.327 82.297Z" fill="#5DB964"/>
<path d="M437.29 43.2155C433.326 48.5399 425.232 47.497 422.891 41.2871C421.292 37.0429 421.994 32.2195 424.738 28.6083L433.59 16.9586L438.976 30.1199C440.743 34.4377 440.079 39.4694 437.29 43.2155Z" fill="#5DB964"/>
</svg>
