<svg width="711" height="411" viewBox="0 0 711 411" fill="none" xmlns="http://www.w3.org/2000/svg">
<path d="M139.522 132.808C130.428 15.8414 282.962 -39.7749 351.363 48.1191L355.533 53.4775L359.412 47.9053C368.835 34.3699 385.891 23.7944 406.707 18.2598C427.452 12.7443 451.441 12.3802 474.157 18.7686C496.83 25.1448 518.162 38.2201 533.849 59.5566C549.532 80.8883 559.82 110.817 559.82 151.308V157.597L565.948 156.179C603.274 147.537 638.139 159.575 663.806 181.54C689.563 203.582 705.618 235.245 705.618 265.113V265.306L705.633 265.498C707.904 294.922 699.553 316.388 683.197 332.419C666.616 348.67 641.345 359.788 608.982 367.258C544.187 382.213 453.672 382 355.309 382C257.264 382 169.024 375.951 105.433 357.897C73.638 348.871 48.4321 336.957 31.2471 321.656C14.2223 306.498 4.99994 287.979 5 265.113C5.00022 198.561 55.6911 138.195 134.537 138.195H139.941L139.522 132.808Z" fill="#F9BBD6" stroke="#F195C1" stroke-width="10"/>
<path d="M253.494 29.7412C260.241 29.0183 267.045 28.8181 273.818 29.1689L273.69 31.665C280.331 32.0091 286.936 32.8932 293.419 34.3428L293.964 31.9043C300.566 33.3805 307.049 35.4312 313.324 38.085L312.351 40.3867C318.401 42.9455 324.253 46.0768 329.822 49.8047L331.212 47.7266C336.751 51.434 342.019 55.72 346.941 60.6074L345.182 62.3818C347.503 64.6869 349.746 67.13 351.902 69.7139L353.932 72.1445L355.825 69.6074C357.657 67.1533 359.784 64.8101 362.178 62.5908L360.479 60.7568C365.09 56.481 370.606 52.6901 376.805 49.458L377.961 51.6748C383.452 48.8116 389.514 46.3895 395.986 44.4707L395.275 42.0732C401.464 40.2386 408.001 38.8594 414.752 37.9814L415.075 40.4609C421.421 39.6356 427.961 39.2615 434.574 39.3789L434.617 36.8789C441.188 36.9955 447.831 37.5877 454.432 38.6943L454.019 41.1602C460.406 42.231 466.749 43.7915 472.942 45.875L473.738 43.5059C479.996 45.6111 486.109 48.2419 491.975 51.4316L490.781 53.627C496.423 56.6954 501.825 60.291 506.892 64.4453L508.476 62.5127C513.514 66.6439 518.232 71.3171 522.539 76.5625L520.609 78.1494C524.598 83.006 528.228 88.369 531.424 94.2666L533.621 93.0752C536.659 98.6812 539.308 104.755 541.512 111.316L539.145 112.112C541.119 117.993 542.73 124.284 543.928 131.003L546.388 130.564C547.499 136.8 548.258 143.389 548.63 150.344H548.631L546.135 150.477C546.307 153.692 546.395 156.988 546.395 160.367V163.465L549.422 162.812C552.5 162.147 555.56 161.62 558.596 161.225L558.272 158.748C564.703 157.911 571.036 157.647 577.233 157.904L577.131 160.402C583.422 160.664 589.571 161.472 595.536 162.764L596.063 160.321C602.329 161.678 608.396 163.557 614.217 165.888L613.289 168.208C619.098 170.534 624.659 173.321 629.924 176.497L631.213 174.358C636.69 177.662 641.852 181.375 646.647 185.423L645.036 187.333C649.833 191.382 654.254 195.77 658.244 200.414L660.139 198.785C664.331 203.664 668.06 208.823 671.267 214.169L669.125 215.454C672.369 220.862 675.061 226.459 677.138 232.143L679.483 231.284C681.7 237.351 683.24 243.527 684.029 249.699L681.553 250.017C681.945 253.08 682.145 256.138 682.145 259.176V259.279L682.153 259.382C682.421 262.613 682.532 265.737 682.492 268.757L684.991 268.789C684.902 275.614 684.061 281.955 682.515 287.846L680.099 287.212C678.481 293.375 676.066 299.015 672.908 304.185L675.04 305.486C671.737 310.894 667.651 315.81 662.839 320.279L661.139 318.449C656.768 322.509 651.758 326.206 646.145 329.571L647.43 331.715C642.18 334.862 636.438 337.711 630.237 340.291L629.278 337.984C623.692 340.309 617.714 342.417 611.371 344.327L612.092 346.72C606.189 348.498 599.986 350.102 593.503 351.551L592.958 349.113C586.955 350.455 580.704 351.663 574.223 352.751L574.636 355.213C568.476 356.247 562.114 357.172 555.566 357.999L555.255 355.521C549.082 356.301 542.74 356.993 536.24 357.608L536.475 360.096C530.22 360.688 523.824 361.209 517.297 361.667L517.123 359.175C510.848 359.615 504.449 359.997 497.938 360.328L498.063 362.824C491.768 363.145 485.369 363.417 478.875 363.65L478.786 361.153C472.476 361.38 466.074 361.569 459.59 361.726L459.649 364.223C453.309 364.376 446.891 364.497 440.403 364.596L440.366 362.1C434.019 362.196 427.603 362.27 421.127 362.325L421.148 364.825C414.796 364.88 408.385 364.916 401.924 364.941L401.915 362.443C395.556 362.469 389.146 362.482 382.692 362.49L382.694 364.987C376.323 364.995 369.909 364.999 363.46 364.999V362.5C360.256 362.5 357.044 362.5 353.822 362.5C350.686 362.5 347.56 362.494 344.444 362.481L344.435 364.98C338.148 364.955 331.906 364.903 325.712 364.823L325.743 362.325C319.461 362.245 313.229 362.136 307.053 361.996L306.996 364.494C300.703 364.352 294.466 364.178 288.292 363.971L288.376 361.474C282.082 361.262 275.853 361.015 269.694 360.731L269.579 363.228C263.264 362.937 257.024 362.607 250.862 362.236L251.012 359.742C244.709 359.363 238.491 358.941 232.363 358.473L232.173 360.965C225.861 360.483 219.644 359.952 213.529 359.371L213.767 356.884C207.471 356.285 201.284 355.633 195.216 354.924L194.926 357.404C188.596 356.665 182.392 355.864 176.322 354.998L176.676 352.525C170.393 351.629 164.257 350.662 158.278 349.623L157.851 352.083C151.541 350.986 145.401 349.809 139.444 348.545L139.963 346.101C133.724 344.777 127.69 343.359 121.874 341.844L121.243 344.26C114.99 342.63 108.981 340.888 103.234 339.024L104.006 336.648C97.8941 334.667 92.0892 332.55 86.6094 330.294L85.6572 332.604C79.6287 330.122 73.9788 327.468 68.7324 324.632L69.9219 322.434C64.2496 319.368 59.0771 316.096 54.4307 312.611L52.9307 314.61C47.6995 310.687 43.0981 306.483 39.1719 301.981L41.0557 300.339C36.9754 295.661 33.6673 290.671 31.168 285.352L28.9043 286.414C26.281 280.83 24.5045 274.876 23.6299 268.532L26.1064 268.191C25.7551 265.643 25.5544 263.025 25.5098 260.334L25.5 259.176C25.5 256.08 25.6342 252.999 25.8984 249.94L23.4082 249.726C23.9539 243.409 25.0434 237.185 26.6504 231.111L29.0664 231.751C30.6438 225.789 32.7311 219.975 35.3027 214.368L33.0312 213.326C35.6514 207.614 38.7628 202.113 42.3379 196.881L44.4014 198.29C47.854 193.238 51.7498 188.441 56.0645 183.958L54.2646 182.225C58.5868 177.733 63.3195 173.551 68.4375 169.729L69.9326 171.73C74.801 168.095 80.0281 164.792 85.5928 161.87L84.4307 159.657C89.9046 156.783 95.6966 154.273 101.786 152.169L102.603 154.529C108.31 152.557 114.289 150.948 120.521 149.741L120.046 147.289C126.071 146.122 132.326 145.325 138.795 144.931L138.947 147.424C142.004 147.237 145.111 147.143 148.266 147.143H150.982L150.757 144.435L150.659 143.172C150.449 140.233 150.362 137.341 150.394 134.496L147.895 134.468C147.972 127.451 148.751 120.707 150.157 114.261L152.6 114.794C154.036 108.206 156.143 101.939 158.834 96.0166L156.559 94.9824C159.386 88.7591 162.841 82.9078 166.829 77.459L168.846 78.9355C172.752 73.598 177.187 68.6507 182.057 64.124L180.354 62.293C185.302 57.6945 190.683 53.5257 196.403 49.8164L197.764 51.9141C203.314 48.315 209.195 45.155 215.315 42.4639L214.31 40.1758C220.499 37.4542 226.926 35.204 233.5 33.4541L234.144 35.8701C240.569 34.1598 247.137 32.9362 253.76 32.2266L253.494 29.7412Z" stroke="white" stroke-width="5" stroke-dasharray="19 19"/>
<g filter="url(#filter0_f_2_4)">
<path d="M615.719 271.239C622.708 361.718 498.48 361 353.859 361C209.238 361 91.9998 343.215 92 271.239C92.0001 220.33 130.875 174.09 191.153 174.09C184.164 84.2764 301.226 41.5931 353.859 109.175C384.217 65.6025 508.267 65.6026 508.267 187.428C565.924 174.09 615.719 224.741 615.719 271.239Z" fill="white"/>
</g>
<defs>
<filter id="filter0_f_2_4" x="42" y="26" width="624" height="385" filterUnits="userSpaceOnUse" color-interpolation-filters="sRGB">
<feFlood flood-opacity="0" result="BackgroundImageFix"/>
<feBlend mode="normal" in="SourceGraphic" in2="BackgroundImageFix" result="shape"/>
<feGaussianBlur stdDeviation="25" result="effect1_foregroundBlur_2_4"/>
</filter>
</defs>
</svg>
