<svg width="337" height="137" viewBox="0 0 337 137" fill="none" xmlns="http://www.w3.org/2000/svg">
<path d="M61.3331 49.0117C94.1969 28.5451 133.312 18.5228 170.896 17.2053C208.322 15.8933 243.849 23.2253 269.85 37.0707L256.548 86.4412C218.777 79.4545 193.024 75.0686 167.995 75.7691C142.837 76.4733 118.641 82.2969 83.7875 95.2303L61.3331 49.0117Z" fill="url(#paint0_linear_1_40)" stroke="#EF97C1" stroke-width="9"/>
<path d="M290.458 47.5506L292.394 47.9942C294.453 48.4661 296.365 49.4361 297.962 50.8194C298.546 51.3249 299.083 51.882 299.567 52.4835L300.417 53.5386C301.552 54.9486 302.326 56.6142 302.672 58.3906C302.833 59.2157 302.9 60.0563 302.872 60.8964L302.77 63.8591L299.891 70.1296L297.843 74.5138L297.83 74.5413L297.817 74.5698L294.744 81.3847L292.03 86.5909L291.93 86.783L291.849 86.9844L289.244 93.428C288.821 93.851 288.386 94.2608 287.94 94.6574C287.75 94.4262 287.549 94.2088 287.339 94.0087C286.069 92.7979 284.391 92.0127 282.837 91.4445C281.192 90.843 279.211 90.3201 276.965 89.8445C273.594 89.1305 269.375 88.4711 264.346 87.8251L275.813 48.7156L290.458 47.5506Z" fill="url(#paint1_linear_1_40)" stroke="#EF97C1" stroke-width="9"/>
<path d="M43.7906 62.951L41.9493 63.695C39.9903 64.4865 38.2556 65.7467 36.8973 67.365C36.4009 67.9565 35.9587 68.5914 35.5757 69.2619L34.9032 70.4381C34.0057 72.0097 33.5046 73.7768 33.4435 75.5857C33.4152 76.4257 33.4821 77.2664 33.6428 78.0914L34.2113 81.0008L38.0454 86.7373L40.7612 90.7426L40.7779 90.7677L40.7956 90.7937L44.9072 97.0372L48.41 101.749L48.5394 101.923L48.6512 102.109L52.2418 108.06C52.7268 108.41 53.2211 108.746 53.7238 109.067C53.875 108.809 54.0392 108.563 54.2149 108.332C55.2778 106.935 56.8099 105.895 58.2546 105.088C59.784 104.234 61.6577 103.405 63.7997 102.58C67.0158 101.342 71.0772 100.024 75.9406 98.591L58.4358 61.786L43.7906 62.951Z" fill="url(#paint2_linear_1_40)" stroke="#EF97C1" stroke-width="9"/>
<path d="M324.998 68.8548L322.695 72.9527L322.619 73.0881L322.551 73.2286L319.951 78.7119L319.933 78.7495L319.916 78.7881L317.198 84.8087L316.945 85.3666L316.852 85.9726L316.218 90.068L316.156 90.4716L316.167 90.8793L316.336 97.0209L316.34 97.1382L316.89 104.058L316.915 104.219L317.187 105.997L312.198 105.164L312.116 105.151L312.035 105.14L307.836 104.595L307.718 104.58L307.6 104.57L301.972 104.138L296.343 103.707L296.279 103.702L296.214 103.699L289.614 103.382L283.379 102.236C283.664 102.037 283.968 101.824 284.286 101.594C286.602 99.9238 289.741 97.4394 293.094 94.1459C299.162 88.1842 306.071 79.4274 309.926 67.9171L324.998 68.8548Z" fill="url(#paint3_linear_1_40)" stroke="#EF97C1" stroke-width="9"/>
<path d="M13.0527 89.4477L15.975 93.1299L16.0719 93.2515L16.1604 93.3797L19.5953 98.3828L19.6186 98.4172L19.642 98.4526L23.2773 103.968L23.6148 104.479L23.8033 105.062L25.076 109.006L25.201 109.395L25.2547 109.799L26.0586 115.89L26.0737 116.007L26.6241 122.926L26.6254 123.09L26.6382 124.888L31.4327 123.276L31.511 123.251L31.5894 123.227L35.6495 122.025L35.7634 121.992L35.8787 121.964L41.3678 120.647L46.8579 119.332L46.9204 119.316L46.984 119.303L53.4505 117.946L59.4264 115.829C59.1126 115.678 58.7793 115.515 58.4293 115.339C55.8783 114.056 52.3853 112.099 48.5544 109.377C41.6197 104.45 33.4132 96.8952 27.787 86.139L13.0527 89.4477Z" fill="url(#paint4_linear_1_40)" stroke="#EF97C1" stroke-width="9"/>
<defs>
<linearGradient id="paint0_linear_1_40" x1="162.723" y1="13.0992" x2="178.841" y2="151.481" gradientUnits="userSpaceOnUse">
<stop stop-color="#FBD3ED"/>
<stop offset="0.5" stop-color="#FF9EDB"/>
<stop offset="1" stop-color="#F2B4D2"/>
</linearGradient>
<linearGradient id="paint1_linear_1_40" x1="280.379" y1="43.8381" x2="299.471" y2="141.994" gradientUnits="userSpaceOnUse">
<stop stop-color="#FBD3ED"/>
<stop offset="0.5" stop-color="#FF9EDB"/>
<stop offset="1" stop-color="#F2B4D2"/>
</linearGradient>
<linearGradient id="paint2_linear_1_40" x1="53.1555" y1="57.6919" x2="49.8217" y2="157.632" gradientUnits="userSpaceOnUse">
<stop stop-color="#FBD3ED"/>
<stop offset="0.5" stop-color="#FF9EDB"/>
<stop offset="1" stop-color="#F2B4D2"/>
</linearGradient>
<linearGradient id="paint3_linear_1_40" x1="301.789" y1="63.5907" x2="314.063" y2="142.232" gradientUnits="userSpaceOnUse">
<stop stop-color="#FBD3ED"/>
<stop offset="0.5" stop-color="#FF9EDB"/>
<stop offset="1" stop-color="#F2B4D2"/>
</linearGradient>
<linearGradient id="paint4_linear_1_40" x1="35.1385" y1="80.5806" x2="35.4506" y2="160.173" gradientUnits="userSpaceOnUse">
<stop stop-color="#FBD3ED"/>
<stop offset="0.5" stop-color="#FF9EDB"/>
<stop offset="1" stop-color="#F2B4D2"/>
</linearGradient>
</defs>
</svg>
