<svg width="304" height="191" viewBox="0 0 304 191" fill="none" xmlns="http://www.w3.org/2000/svg">
<path d="M99.0817 33.5002C116.314 28.0894 136.558 30.8223 148.792 43.6467L152.616 47.6555L156.213 43.4406C159.237 39.8967 165.148 36.7332 172.994 35.0315C180.712 33.3575 189.669 33.2465 198.122 35.1858C206.568 37.1236 214.265 41.0451 219.823 47.2121C225.316 53.3076 229.035 61.9384 229.035 73.967V80.0002L234.963 78.8801C248.778 76.2708 261.627 79.9221 271.004 86.468C280.523 93.1139 285.837 102.237 285.838 110.138V110.374L285.859 110.609C286.622 118.675 283.924 124.339 278.395 128.76C272.525 133.454 263.242 136.886 250.753 139.238C225.81 143.934 190.84 143.877 152.41 143.877C114.238 143.877 80.1148 141.95 55.6549 136.285C43.398 133.447 34.014 129.765 27.7985 125.25C21.7463 120.854 18.982 115.922 18.9821 110.138C18.9822 91.6689 36.4901 73.2103 66.3971 73.2102H71.8971L71.3746 67.7365C69.841 51.6457 81.8048 38.925 99.0817 33.5002Z" fill="#F9BBD6" stroke="#F195C1" stroke-width="10"/>
<path d="M112.176 37.955C117.666 37.4021 123.258 37.6046 128.606 38.6376L129.078 36.1835C134.779 37.2845 140.238 39.291 145.08 42.2978L143.764 44.4208C146.046 45.8382 148.175 47.4878 150.11 49.3788L151.957 51.1845L153.701 49.2792C155.15 47.6965 157.183 46.2158 159.728 44.9218L158.595 42.6942C163.021 40.4434 168.595 38.8573 174.651 38.12L174.952 40.6015C180.097 39.9751 185.608 39.9863 191.028 40.7548L191.378 38.2792C196.942 39.0679 202.423 40.6251 207.38 43.0683L206.276 45.3095C211.034 47.6547 215.218 50.8347 218.443 54.9433L220.408 53.4013C223.647 57.5265 226.018 62.5501 227.152 68.5751L224.698 69.037C225.156 71.4697 225.402 74.0947 225.402 76.9228V79.9013L228.336 79.3847C231.099 78.8983 233.821 78.6504 236.483 78.6142L236.448 76.1142C242.443 76.0327 248.15 76.9788 253.356 78.6776L252.581 81.0507C258.044 82.8334 262.906 85.4863 266.894 88.6493L268.446 86.6903C273.328 90.5617 277.005 95.1811 279.036 99.995L276.735 100.967C277.784 103.452 278.321 105.938 278.321 108.339V108.465L278.334 108.591C278.64 111.602 278.379 114.238 277.651 116.563L280.034 117.309C278.311 122.815 274.228 127.092 268.213 130.415L267.005 128.227C262.671 130.621 257.176 132.54 250.638 134.058L251.202 136.491C245.82 137.74 239.83 138.703 233.332 139.449L233.048 136.969C227.448 137.611 221.455 138.09 215.13 138.447L215.27 140.941C209.478 141.268 203.424 141.493 197.157 141.647L197.097 139.149C191.248 139.293 185.21 139.376 179.024 139.423L179.042 141.921C173.122 141.966 167.071 141.977 160.925 141.98L160.924 139.483C157.923 139.485 154.9 139.485 151.858 139.485C148.887 139.485 145.939 139.473 143.02 139.449L142.999 141.947C136.98 141.897 131.074 141.793 125.31 141.628L125.382 139.131C119.342 138.957 113.461 138.715 107.772 138.395L107.631 140.891C101.518 140.547 95.6205 140.112 89.9796 139.575L90.2159 137.088C84.0695 136.503 78.2404 135.797 72.7794 134.955L72.3986 137.424C66.1235 136.456 60.3154 135.308 55.0519 133.955L55.674 131.535C49.3865 129.919 43.9669 128.025 39.5167 125.832L38.4113 128.073C32.138 124.982 27.5845 121.262 25.09 116.809L27.2697 115.589C26.1143 113.527 25.4767 111.291 25.4015 108.833L25.3937 108.339C25.3937 105.759 25.7774 103.21 26.5226 100.736L24.132 100.015C25.6927 94.835 28.6964 89.9845 32.9474 85.8192L34.6954 87.6034C38.212 84.1578 42.6746 81.1806 47.9777 78.9306L47.0011 76.6298C51.8323 74.58 57.2935 73.1202 63.296 72.411L63.59 74.8925C66.1929 74.585 68.9073 74.4228 71.7257 74.4228H74.4943L74.213 71.6689L74.1652 71.1571C73.9543 68.6043 74.131 66.1812 74.6378 63.8935L72.1993 63.3534C73.4426 57.7417 76.4918 52.8064 80.7638 48.6991L82.4972 50.5019C86.1752 46.9657 90.8747 44.0396 96.1906 41.8749L95.2472 39.5585C100.43 37.4481 106.114 36.054 111.925 35.4687L112.176 37.955Z" stroke="white" stroke-width="5" stroke-dasharray="19 19"/>
<g filter="url(#filter0_f_3_117)">
<path d="M253.745 112.106C256.463 140.888 208.135 140.659 151.872 140.659C95.6098 140.659 49.9999 135.002 50 112.106C50 95.9118 65.1237 81.2027 88.5738 81.2027C85.855 52.6327 131.396 39.055 151.872 60.5532C163.682 46.6925 211.942 46.6925 211.942 85.4456C234.373 81.2027 253.745 97.3151 253.745 112.106Z" fill="white"/>
</g>
<defs>
<filter id="filter0_f_3_117" x="0" y="0" width="303.854" height="190.659" filterUnits="userSpaceOnUse" color-interpolation-filters="sRGB">
<feFlood flood-opacity="0" result="BackgroundImageFix"/>
<feBlend mode="normal" in="SourceGraphic" in2="BackgroundImageFix" result="shape"/>
<feGaussianBlur stdDeviation="25" result="effect1_foregroundBlur_3_117"/>
</filter>
</defs>
</svg>
