<svg width="31" height="31" viewBox="0 0 31 31" fill="none" xmlns="http://www.w3.org/2000/svg">
<path opacity="0.5" d="M29.8932 12.2401C29.3023 9.92726 28.7888 8.91007 27.7353 8.7139C26.723 8.52499 25.2844 9.18132 24.9259 9.37507L24.9211 9.35812C24.9211 9.35812 25.0034 8.91007 24.8872 8.4596C24.7709 8.00913 24.3059 7.82749 24.1727 7.8614L6.19515 10.5061L6.07406 11.2205L5.8464 12.3661C5.2603 12.2595 3.71273 12.0537 2.87718 12.6688C1.83335 13.4366 1.41195 14.8485 1.15523 16.6964C0.898509 18.5443 1.0632 19.5106 1.64929 20.1379C2.36859 20.9105 3.49718 21.1284 4.0857 21.1914L3.74663 22.8867C3.74663 22.8867 3.33007 23.0369 3.08062 23.7344C2.83116 24.4319 3.16296 25.0979 3.16296 25.0979C3.16296 25.0979 3.85804 23.8724 9.22007 24.8194C14.662 25.7809 14.9139 26.9603 14.9139 26.9603C14.9139 26.9603 15.2142 26.66 15.4467 25.9455C15.6792 25.2311 15.2481 24.4827 15.2481 24.4827L16.2944 19.8618L17.3406 22.7196C17.3406 22.7196 16.9531 23.1894 17.1251 23.8676C17.3309 24.6837 19.266 26.3451 24.0613 24.5384C28.8155 22.7438 28.9656 20.2154 28.6919 19.4307C28.5055 18.893 27.8782 18.7501 27.8782 18.7501L27.6021 17.871C27.8709 17.716 28.2851 17.4448 28.9099 16.9701C30.3727 15.8608 30.4914 14.5845 29.8932 12.2401ZM2.69312 18.5806C2.32741 17.4641 2.94984 14.6548 3.48023 14.2406C4.26491 13.6279 5.09562 13.9258 5.49281 14.1316L4.41507 19.5397C3.99609 19.5445 2.98132 19.4622 2.69312 18.5806ZM28.5636 14.4368C28.4425 15.3862 27.3793 15.7494 26.9676 15.856L25.4151 10.9275C25.7857 10.6756 26.5098 10.3099 27.1129 10.3777C27.7426 10.4504 28.7137 13.2573 28.5636 14.4368Z" fill="white"/>
<path opacity="0.7" d="M29.8932 12.2401C29.3023 9.92726 28.7767 8.96577 27.7353 8.7139C26.2894 8.36272 24.9211 9.35812 24.9211 9.35812C24.9211 9.35812 25.0034 8.91007 24.8872 8.4596C24.7709 8.00913 24.3059 7.82749 24.1727 7.8614L6.19515 10.5061L6.07406 11.2205L5.8464 12.3661C5.2603 12.2595 3.71273 12.0537 2.87718 12.6688C1.83335 13.4366 1.41195 14.8485 1.15523 16.6964C0.898509 18.5443 1.0632 19.5106 1.64929 20.1379C2.36859 20.9105 3.49718 21.1284 4.0857 21.1914L3.74663 22.8867C3.74663 22.8867 3.33007 23.0369 3.08062 23.7344C2.83116 24.4319 3.16296 25.0979 3.16296 25.0979C3.16296 25.0979 3.53593 24.4851 5.69866 24.4755C6.56085 24.4706 7.69429 24.5457 9.22007 24.8194C14.5409 25.7736 14.9139 26.9603 14.9139 26.9603C14.9139 26.9603 15.2142 26.66 15.4467 25.9455C15.6792 25.2311 15.2481 24.4827 15.2481 24.4827L16.2944 19.8618L17.3406 22.7196C17.3406 22.7196 16.9531 23.1894 17.1251 23.8676C17.3309 24.6837 19.266 26.3451 24.0613 24.5384C28.8155 22.7438 28.9656 20.2154 28.6919 19.4307C28.5055 18.893 27.8782 18.7501 27.8782 18.7501L27.6021 17.871C27.8709 17.716 28.2851 17.4448 28.9099 16.9701C30.3727 15.8608 30.4914 14.5845 29.8932 12.2401ZM2.69312 18.5806C2.32741 17.4641 2.94984 14.6548 3.48023 14.2406C4.26491 13.6279 5.09562 13.9258 5.49281 14.1316L4.41507 19.5397C3.99609 19.5445 2.98132 19.4622 2.69312 18.5806ZM28.5636 14.4368C28.4425 15.3862 27.3793 15.7494 26.9676 15.856L25.4151 10.9275C25.7857 10.6756 26.5098 10.3099 27.1129 10.3777C27.7426 10.4504 28.7137 13.2573 28.5636 14.4368Z" fill="#E0E0E0"/>
<path opacity="0.7" d="M8.79624 27.4447C3.58195 26.6648 3.16296 25.0979 3.16296 25.0979C3.16296 25.0979 3.8096 23.887 9.22007 24.8194C14.4949 25.7276 14.9139 26.9603 14.9139 26.9603C14.9139 26.9603 14.4828 28.2972 8.79624 27.4447Z" fill="#BCBCBC"/>
<path d="M7.06218 11.8938C7.06218 11.8938 5.18281 21.2544 5.12953 21.6758C5.07625 22.0972 5.07625 22.5016 5.55093 22.6252C6.02562 22.7487 7.97523 22.7826 9.95875 23.1531C11.9423 23.5237 13.2961 24.1195 13.6109 24.2236C13.9258 24.3277 14.2794 24.1364 14.4707 23.5043C14.6644 22.8722 16.7352 13.812 16.7352 13.812L12.1021 10.6829L7.06218 11.8938Z" fill="url(#paint0_radial_1_132)"/>
<path d="M16.7885 17.9461L17.6991 13.2598L23.6787 9.69717C23.6787 9.69717 26.4033 18.1326 26.5195 18.4958C26.6649 18.9512 25.977 20.4866 23.221 21.6515C20.4649 22.8165 18.6097 22.3127 18.3772 21.8671C18.1471 21.4239 16.7885 17.9461 16.7885 17.9461Z" fill="url(#paint1_radial_1_132)"/>
<path d="M18.0381 10.8548L23.2452 8.36514L23.7998 10.0532C23.7998 10.0532 23.3711 11.189 20.9589 12.2765C18.8591 13.2234 17.6458 12.9958 17.6458 12.9958L18.0381 10.8548ZM7.39883 10.3608L6.67953 13.6739C6.67953 13.6739 7.75 12.9958 10.4867 13.0781C13.2234 13.1605 16.5002 14.8751 16.5002 14.8751L16.6625 14.1413L17.2583 11.4337L7.39883 10.3608Z" fill="#F4D097"/>
<path d="M5.66477 9.48648C5.46617 11.0873 6.25813 12.1917 8.17625 12.3927C9.87641 12.5695 10.8452 11.7219 11.7945 12.5913C13.0006 13.6981 11.3586 17.2946 11.2399 17.8492C11.1213 18.4038 11.0413 19.0941 11.6153 19.2515C12.1893 19.4089 12.601 18.692 12.7609 18.0648C13.1556 16.522 13.887 14.151 14.817 13.9137C16.12 13.5819 15.9166 14.57 17.268 14.3496C18.4741 14.151 18.9076 12.9861 18.9875 12.4727C19.0674 11.9592 18.7889 11.2084 18.7889 11.2084C18.7889 11.2084 19.4816 10.9711 20.2517 10.5158C21.0219 10.0605 21.1963 9.69476 21.7945 9.37023C22.6639 8.89555 23.9499 9.02633 24.5627 7.96797C25.2335 6.80062 25.1754 4.28187 22.6736 4.03242C21.8841 3.9525 21.4578 4.23828 20.925 4.19226C20.3171 4.13898 20.1016 3.72969 19.048 3.92586C17.9921 4.12203 17.7427 4.9043 17.1299 5.06172C16.4518 5.23609 15.4491 5.08109 14.4804 5.79312C13.5116 6.50516 13.2743 7.43273 13.2743 7.43273C13.2743 7.43273 12.5308 7.12515 11.516 7.19539C10.4116 7.27047 9.95391 7.7282 9.16438 7.67008C8.37485 7.61195 5.98688 6.8757 5.66477 9.48648Z" fill="#FFEBC9"/>
<path d="M21.252 13.6545C20.9686 13.5988 20.7167 13.8338 20.6974 14.2091C20.678 14.5845 20.8281 14.8001 21.017 14.8098C21.206 14.8195 21.4118 14.679 21.4869 14.323C21.562 13.9645 21.4869 13.7006 21.252 13.6545ZM20.7797 16.8345C20.6635 17.0331 20.8088 17.2462 20.9662 17.36C21.1236 17.4738 21.3779 17.4448 21.436 17.314C21.4917 17.1832 21.5111 16.9386 21.3246 16.7884C21.1381 16.6383 20.9032 16.6286 20.7797 16.8345ZM22.2256 17.4908C21.9713 17.4617 21.7654 17.67 21.7654 18.1011C21.7654 18.5322 21.9252 18.6945 22.1602 18.7114C22.4314 18.7308 22.5816 18.29 22.5913 18.026C22.601 17.7645 22.5452 17.5295 22.2256 17.4908ZM22.7027 19.9102C22.5235 19.7141 22.2159 19.8061 22.073 20.041C21.9567 20.2324 21.9325 20.5278 22.102 20.6513C22.2716 20.7724 22.5283 20.6998 22.6373 20.5109C22.7777 20.2687 22.7971 20.0144 22.7027 19.9102ZM10.6877 15.0423C10.5618 15.1391 10.5473 15.4177 10.6877 15.6235C10.8282 15.8294 11.0728 15.8681 11.1576 15.7349C11.2424 15.6041 11.2036 15.3595 11.1285 15.2094C11.0535 15.0616 10.8839 14.8921 10.6877 15.0423ZM9.98298 17.36C10.201 17.5683 10.5449 17.3963 10.695 17.1808C10.8452 16.9652 10.8815 16.7206 10.7313 16.5705C10.5812 16.4203 10.2954 16.4494 10.0847 16.5995C9.83283 16.7788 9.76744 17.1541 9.98298 17.36ZM9.13048 17.7814C8.85923 17.7451 8.61462 18.0115 8.61462 18.3917C8.61462 18.8131 8.86892 19.1691 9.1208 19.1425C9.38236 19.1134 9.5422 18.7865 9.55189 18.4571C9.56158 18.1302 9.41142 17.8202 9.13048 17.7814ZM8.9222 20.7603C8.72845 20.7942 8.62189 21.0049 8.65822 21.2834C8.69212 21.5474 8.84955 21.7678 9.1208 21.7194C9.32423 21.6855 9.39205 21.407 9.3654 21.143C9.34119 20.879 9.14259 20.7216 8.9222 20.7603Z" fill="#FFE267"/>
<path d="M2.66891 14.0081C2.96438 14.2237 3.2332 13.6448 3.64977 13.4172C4.06149 13.1919 4.44172 13.0418 4.26735 12.7439C4.09297 12.4484 3.51414 12.4896 3.11211 12.7705C2.71008 13.0539 2.29594 13.7369 2.66891 14.0081ZM6.97016 12.3128C6.64805 12.245 6.50031 12.4484 6.44703 12.7027C6.39375 12.9619 6.47367 13.2404 6.73039 13.3082C6.98711 13.376 7.25352 13.1726 7.30922 12.8916C7.36008 12.6155 7.26078 12.3734 6.97016 12.3128ZM6.72313 13.6618C6.24602 13.5698 6.07649 14.2406 5.85125 15.4612C5.64539 16.5705 4.94789 20.3413 4.94789 20.6368C4.94789 20.9323 4.94789 21.2544 5.25789 21.3343C5.56789 21.4142 5.8343 21.1357 5.94813 20.5932C6.04985 20.1112 6.97742 14.7201 7.0307 14.3569C7.08399 13.9936 6.97985 13.7102 6.72313 13.6618Z" fill="white"/>
<path d="M3.08547 14.9745C3.1 14.9963 3.52141 14.2891 4.495 14.352C5.06899 14.3884 5.3136 14.5797 5.39594 14.5385C5.47829 14.4973 5.6454 13.8846 5.59211 13.7514C5.54125 13.6158 4.95516 13.4148 4.34243 13.5165C3.2768 13.6981 2.98133 14.8243 3.08547 14.9745ZM1.28602 19.5784C1.24485 19.668 1.67594 20.7143 2.5454 21.1527C3.31555 21.5402 4.03 21.5329 4.06875 21.4118C4.10024 21.3173 4.1729 21.017 4.18258 20.707C4.18985 20.5036 3.77571 20.6416 2.84571 20.3534C1.67352 19.995 1.32719 19.484 1.28602 19.5784Z" fill="#B0B0B0"/>
<path d="M9.6003 8.56375C9.25639 8.6582 8.57585 8.34336 7.91468 8.40633C7.29952 8.46445 6.69405 8.87375 6.62382 9.73594C6.50514 11.1939 7.88803 11.2884 8.54436 11.2617C9.20311 11.2351 11.0849 10.8016 11.9931 11.4845C12.9086 12.1748 12.9812 13.393 12.848 14.0517C12.7148 14.7105 11.9592 17.2244 11.8599 17.5513C11.6758 18.1689 11.9907 18.2367 12.2159 17.8662C12.4387 17.498 13.2283 14.6427 13.5722 14.0105C13.9161 13.3784 14.2818 12.9062 14.9018 12.8384C15.8899 12.7342 15.8754 13.1677 16.9555 13.1677C17.9025 13.1677 18.2851 12.2547 17.8371 11.3392C17.2437 10.1283 15.4152 10.0241 15.1924 9.90547C14.9696 9.7868 14.323 8.43055 12.7584 8.12781C11.1939 7.82508 10.4019 8.34094 9.6003 8.56375ZM14.1825 7.67977C14.1825 7.67977 14.5773 7.96797 14.9357 8.34336C15.1633 8.5807 15.4322 9.0675 15.7494 9.15953C16.0667 9.25156 16.4712 9.20313 17.1493 9.50344C17.8274 9.80375 18.1737 10.2106 18.1737 10.2106C18.1737 10.2106 18.8979 10.1041 19.5445 9.62211C20.1912 9.14016 20.8087 8.35789 21.6394 8.17625C22.4677 7.99461 24.4367 7.69188 23.8385 6.11281C23.1894 4.40297 21.5474 5.26758 21.0655 5.22398C20.5835 5.18039 20.2493 4.62094 19.0311 4.9382C18.2101 5.15133 18.0405 5.91906 17.2268 6.00867C16.413 6.09828 15.8245 5.93117 15.1173 6.45914C14.4101 6.98711 14.1825 7.67977 14.1825 7.67977Z" fill="white"/>
<path d="M14.1849 4.76626C14.1728 4.76626 14.1607 4.76626 14.1462 4.76383C13.9258 4.74204 13.766 4.54829 13.7853 4.3279L14.0275 1.76797C14.0469 1.54758 14.2431 1.38532 14.4635 1.40711C14.6838 1.42891 14.8437 1.62266 14.8243 1.84305L14.5821 4.40297C14.5627 4.61126 14.3884 4.76626 14.1849 4.76626ZM13.0685 5.38383C12.9401 5.38383 12.8117 5.32086 12.7342 5.20461L10.9711 2.55266C10.85 2.3686 10.8985 2.12157 11.0825 1.99805C11.2666 1.87696 11.5136 1.9254 11.6371 2.10946L13.4002 4.76141C13.5213 4.94547 13.4729 5.19251 13.2888 5.31602C13.221 5.36204 13.146 5.38383 13.0685 5.38383ZM12.0585 6.31626C12.0101 6.31626 11.9617 6.30657 11.9132 6.28961L9.29275 5.26516C9.19388 5.22656 9.11438 5.15029 9.07169 5.05312C9.02901 4.95595 9.02664 4.8458 9.06509 4.74688C9.14501 4.54102 9.37751 4.4393 9.58337 4.51922L12.2063 5.5461C12.4121 5.62602 12.5138 5.85852 12.4339 6.06438C12.371 6.2218 12.2184 6.31626 12.0585 6.31626Z" fill="#FF2A23"/>
<path d="M17.6191 16.2944C17.2437 16.4518 17.3164 17.0936 17.6191 17.8928C17.9219 18.692 18.6242 20.7385 18.7816 21.0776C18.9391 21.4166 19.1449 21.6709 19.5324 21.5498C19.9199 21.4287 19.7625 20.9565 19.6293 20.4842C19.4961 20.012 18.6 17.469 18.4547 17.0694C18.3094 16.6698 18.1374 16.0764 17.6191 16.2944Z" fill="#FEFFFF"/>
<path d="M4.44656 24.5602C4.44656 24.5602 4.86555 25.713 8.95609 26.2991C13.0466 26.8852 14.0154 26.2216 14.0154 26.2216C14.0154 26.2216 12.601 25.3594 9.17406 24.7951C5.56063 24.1994 4.44656 24.5602 4.44656 24.5602Z" fill="#BCBCBC"/>
<path d="M4.05422 23.1846C3.69578 23.1386 3.48266 23.4583 3.39789 23.6375C3.31555 23.8167 3.23078 24.2938 3.54078 24.3423C3.85078 24.3907 4.11235 24.0928 4.20922 23.841C4.30367 23.5891 4.32789 23.221 4.05422 23.1846Z" fill="white"/>
<path d="M4.50711 23.4704C4.46836 23.8288 4.88977 23.8652 5.46133 23.8748C6.03289 23.8845 7.99703 24.0516 9.2782 24.2914C11.9495 24.7927 13.6448 25.483 14.1922 25.7591C14.742 26.0327 14.7952 25.7397 14.8001 25.6646C14.8122 25.4491 14.4416 25.1052 13.9524 24.8654C13.5746 24.6813 12.2595 23.9112 9.47922 23.4825C6.78609 23.0659 5.40078 23.1846 5.11258 23.1967C4.82922 23.2088 4.53133 23.2573 4.50711 23.4704Z" fill="#D4D4D4"/>
<path d="M18.399 22.5331C18.3457 22.7075 18.6339 22.9521 19.2902 23.0732C20.1524 23.2306 21.7436 23.1023 23.4607 22.4193C25.1681 21.7412 26.1853 20.8427 26.752 20.1573C27.1056 19.7286 27.1032 19.2321 26.9676 19.1231C26.7956 18.9851 26.7012 19.4138 26.3112 19.8812C25.9334 20.3341 25.0446 21.1551 23.2766 21.9446C21.5232 22.7269 20.1718 22.7196 19.3895 22.6203C18.8446 22.5525 18.4741 22.2861 18.399 22.5331Z" fill="#9E9E9E"/>
<path d="M17.7596 23.3081C17.6991 23.6399 18.2464 23.9548 18.5031 24.0686C19.2466 24.3931 21.2035 24.5627 23.7489 23.5769C27.0523 22.2958 27.7498 20.8257 27.9702 20.4116C28.1955 19.9853 28.0986 19.7891 27.9945 19.7334C27.8322 19.6462 27.6384 19.7673 27.4156 20.0604C26.7254 20.9637 25.7712 21.9059 23.497 22.8359C21.2229 23.7659 19.6511 23.7271 18.5976 23.388C18.307 23.2936 17.8226 22.9691 17.7596 23.3081Z" fill="#D5D5D5"/>
<path d="M27.5052 17.5707C27.3914 17.8516 27.6045 18.1737 27.6433 18.1858L27.682 18.198C27.682 18.198 28.8663 17.6337 29.6123 16.7376C30.3776 15.8197 30.3534 14.5506 30.2395 14.5361C30.1523 14.524 29.9344 15.5678 28.8639 16.5777C27.9751 17.4157 27.6505 17.205 27.5052 17.5707ZM25.2626 10.5037L25.4951 11.2181C25.4951 11.2181 26.1199 10.5715 26.9434 10.6344C27.7668 10.6974 27.9387 11.6008 27.9727 11.6008C28.1616 11.6032 28.164 10.3656 27.3648 10.0459C26.3936 9.65358 25.2626 10.5037 25.2626 10.5037Z" fill="#B0B0B0"/>
<defs>
<radialGradient id="paint0_radial_1_132" cx="0" cy="0" r="1" gradientUnits="userSpaceOnUse" gradientTransform="translate(9.24623 25.8249) scale(14.5533)">
<stop offset="0.331" stop-color="#FDB408"/>
<stop offset="0.502" stop-color="#F1A20D"/>
<stop offset="0.745" stop-color="#DB8116"/>
</radialGradient>
<radialGradient id="paint1_radial_1_132" cx="0" cy="0" r="1" gradientUnits="userSpaceOnUse" gradientTransform="translate(18.5632 8.93937) scale(10.9013)">
<stop offset="0.628" stop-color="#DB8116"/>
<stop offset="0.786" stop-color="#EE9D0E"/>
<stop offset="0.939" stop-color="#FDB408"/>
</radialGradient>
</defs>
</svg>
