<svg width="27" height="26" viewBox="0 0 27 26" fill="none" xmlns="http://www.w3.org/2000/svg">
<g clip-path="url(#clip0_1_29)">
<path d="M4.5 7.22227L6.75 23.8334C6.75 25.0301 9.77175 26.0001 13.5 26.0001C17.2283 26.0001 20.25 25.0301 20.25 23.8334L22.5 7.22227H4.5Z" fill="#8899A6"/>
<path d="M5.25 7.22227L7.5 23.5763C7.5 24.474 10.1865 25.2013 13.5 25.2013C16.8135 25.2013 19.5 24.474 19.5 23.5763L21.75 7.22227H5.25Z" fill="#D3A471"/>
<path d="M20.817 14.1108L21.75 7.22227H5.25L6.183 14.1108H20.817Z" fill="#CCD6DD"/>
<path d="M19.4865 14.1108L20.25 7.22227H6.75L7.5135 14.1108H19.4865Z" fill="#E1E8ED"/>
<path d="M13.5 15.7517C17.5444 15.7517 20.823 14.9902 20.823 14.0509C20.823 13.1115 17.5444 12.3501 13.5 12.3501C9.45562 12.3501 6.177 13.1115 6.177 14.0509C6.177 14.9902 9.45562 15.7517 13.5 15.7517Z" fill="#ECD2A7"/>
<path d="M16.377 13.8263L17.5973 0.777886L15.3563 0.582886L14.118 13.8263H16.377Z" fill="#AA8DD8"/>
<path d="M4.272 7.22443C4.13775 7.98277 4.1505 8.93104 4.58175 9.04949C4.92675 9.14482 5.40975 8.98449 5.811 9.17732C6.21225 9.37016 6.53325 9.87427 6.9405 10.0086C7.7205 10.2657 8.199 9.79266 8.66775 9.84899C9.55875 9.95588 9.9585 10.7763 10.6942 10.8406C11.43 10.9049 12.03 10.3076 12.72 10.3285C13.458 10.3517 13.422 10.8825 14.58 10.9042C15.717 10.9251 15.9045 10.2115 16.5727 10.1682C17.241 10.1249 17.676 10.5633 18.3 10.4564C18.924 10.3495 19.1827 9.72188 19.695 9.5926C20.2072 9.46404 20.4787 9.82804 20.9242 9.72043C21.3697 9.61354 21.6045 8.87543 21.8722 8.68188C22.1392 8.48904 23.0505 9.59188 22.83 7.48082C22.428 3.63282 8.4825 7.07421 7.1685 6.98899C5.8545 6.90377 4.55025 5.65649 4.272 7.22443Z" fill="#55ACEE"/>
<path d="M13.5 9.97465C18.6155 9.97465 22.7625 8.74592 22.7625 7.23021C22.7625 5.71449 18.6155 4.48576 13.5 4.48576C8.38445 4.48576 4.23749 5.71449 4.23749 7.23021C4.23749 8.74592 8.38445 9.97465 13.5 9.97465Z" fill="#88C9F9"/>
<path d="M17.5973 0.777881L15.3563 0.583603L14.7165 7.42594C14.7158 7.43099 14.712 7.43533 14.712 7.43966C14.712 7.63899 15.216 7.80077 15.837 7.80077C16.458 7.80077 16.962 7.63899 16.962 7.43966L16.9748 7.43894L17.5973 0.777881Z" fill="#9266CC"/>
<path d="M17.5972 0.777875C17.5785 0.976486 17.0617 1.09421 16.443 1.04004C15.8242 0.986597 15.3375 0.781486 15.3562 0.582875C15.375 0.384263 15.8917 0.266541 16.5105 0.320708C17.1292 0.374875 17.616 0.579263 17.5972 0.777875Z" fill="#553788"/>
<path d="M15.2355 14.2206C15.8568 14.2206 16.3605 14.0589 16.3605 13.8595C16.3605 13.6601 15.8568 13.4984 15.2355 13.4984C14.6142 13.4984 14.1105 13.6601 14.1105 13.8595C14.1105 14.0589 14.6142 14.2206 15.2355 14.2206Z" fill="#AA8DD8"/>
<path d="M8.47125 21.3446C8.226 21.5808 7.788 21.5432 7.494 21.2601C7.2 20.977 7.16025 20.5552 7.40625 20.3191C7.6515 20.0829 8.0895 20.1204 8.3835 20.4036C8.6775 20.6867 8.7165 21.1077 8.47125 21.3446ZM10.6748 24.4848C10.608 24.7383 10.2998 24.8813 9.987 24.8055C9.67425 24.7297 9.474 24.4617 9.54075 24.2082C9.6075 23.9547 9.91575 23.811 10.2285 23.8876C10.5413 23.9641 10.7415 24.2313 10.6748 24.4848ZM13.338 19.7247C13.2675 19.9919 12.957 20.1457 12.6435 20.0699C12.3308 19.9933 12.1335 19.7153 12.204 19.4481C12.2745 19.1808 12.585 19.027 12.8985 19.1028C13.2113 19.1794 13.4085 19.4582 13.338 19.7247Z" fill="#292F33"/>
<path d="M12.9127 25.0662C13.3564 25.0662 13.716 24.7736 13.716 24.4126C13.716 24.0516 13.3564 23.759 12.9127 23.759C12.4691 23.759 12.1095 24.0516 12.1095 24.4126C12.1095 24.7736 12.4691 25.0662 12.9127 25.0662Z" fill="#292F33"/>
<path d="M18.861 19.1982C18.9375 19.5232 18.7065 19.851 18.345 19.9298C17.9835 20.0092 17.628 19.8099 17.5507 19.4849C17.4735 19.1599 17.7052 18.8327 18.0667 18.7533C18.4282 18.6738 18.7837 18.8732 18.861 19.1982ZM16.6163 22.446C16.4782 22.8512 16.0537 23.0808 15.6675 22.9588C15.2812 22.8367 15.081 22.4099 15.219 22.004C15.357 21.5981 15.7815 21.3692 16.1677 21.4912C16.554 21.6133 16.7542 22.0401 16.6163 22.446ZM12.7717 22.1C12.8962 22.4835 12.6862 22.888 12.3022 23.0035C11.9182 23.1191 11.5065 22.9017 11.382 22.5182C11.2575 22.1347 11.4675 21.7303 11.8515 21.6147C12.2347 21.4992 12.6472 21.7165 12.7717 22.1ZM14.5575 21.8892C14.2162 22.061 13.8 21.944 13.6282 21.6284C13.4565 21.3121 13.5937 20.9163 13.9357 20.7444C14.2777 20.5725 14.6932 20.6888 14.865 21.0052C15.0367 21.3215 14.8987 21.7173 14.5575 21.8892ZM15.8317 23.7727C15.8932 24.1345 15.5812 24.4848 15.135 24.5549C14.6887 24.6249 14.277 24.3888 14.2162 24.0269C14.1555 23.6651 14.4667 23.3148 14.913 23.2448C15.3593 23.1747 15.7702 23.4109 15.8317 23.7727ZM10.7602 20.9669C10.497 21.1756 10.0507 21.0716 9.7635 20.735C9.47625 20.3985 9.4575 19.9572 9.72075 19.7485C9.984 19.5398 10.4302 19.6438 10.7175 19.9796C11.004 20.3169 11.0235 20.7589 10.7602 20.9669ZM17.853 23.6297C18.0413 23.9143 17.9025 24.3238 17.544 24.5441C17.1847 24.7643 16.7415 24.7116 16.5532 24.4263C16.365 24.1418 16.5037 23.7323 16.8622 23.512C17.2207 23.2924 17.6648 23.3444 17.853 23.6297ZM19.1865 23.0418C19.4145 23.192 19.4265 23.5575 19.2135 23.8579C19.0005 24.1591 18.6427 24.2812 18.414 24.1309C18.186 23.9807 18.174 23.6153 18.387 23.3148C18.6 23.0144 18.9585 22.8916 19.1865 23.0418ZM7.296 18.369C7.5045 18.3582 7.6875 18.611 7.70625 18.9345C7.72425 19.2581 7.5705 19.5289 7.36275 19.5398C7.15425 19.5506 6.97125 19.2978 6.9525 18.9743C6.93375 18.6507 7.08825 18.3799 7.296 18.369ZM17.8837 20.8723C18.0262 21.1077 17.9167 21.424 17.6392 21.58C17.3617 21.736 17.0212 21.6718 16.8787 21.4363C16.7362 21.2009 16.8457 20.8845 17.1232 20.7285C17.4007 20.5725 17.7412 20.6368 17.8837 20.8723ZM13.9155 22.6547C14.118 22.7876 14.1547 23.0743 13.998 23.2953C13.8412 23.5163 13.551 23.5871 13.3485 23.4542C13.146 23.3213 13.1092 23.0346 13.266 22.8136C13.4227 22.5933 13.7137 22.5218 13.9155 22.6547ZM19.4085 20.9893C19.6298 21.0456 19.7393 21.3453 19.6537 21.6595C19.5675 21.9737 19.3193 22.1831 19.098 22.1268C18.8768 22.0704 18.7672 21.7707 18.8527 21.4565C18.939 21.1424 19.1873 20.9329 19.4085 20.9893ZM19.5 19.5939C19.6733 19.638 19.7558 19.8864 19.6838 20.1493C19.6118 20.4122 19.413 20.5899 19.2397 20.5458C19.0665 20.5018 18.984 20.2533 19.056 19.9904C19.128 19.7275 19.3267 19.5506 19.5 19.5939ZM18.546 22.0466C18.771 22.2445 18.7365 22.633 18.4695 22.9154C18.2017 23.1978 17.8027 23.2664 17.5777 23.0685C17.3527 22.8707 17.3872 22.4821 17.6542 22.1997C17.922 21.9173 18.321 21.8487 18.546 22.0466ZM9.954 22.542C9.7725 22.7992 9.35325 22.8302 9.01725 22.6107C8.68125 22.3911 8.556 22.0047 8.7375 21.7469C8.919 21.489 9.33825 21.4587 9.67425 21.6783C10.0102 21.8978 10.1355 22.2849 9.954 22.542ZM16.6927 20.0143C16.7182 20.3443 16.4115 20.6354 16.0065 20.665C15.6015 20.6946 15.2527 20.4505 15.2265 20.1212C15.201 19.7911 15.5077 19.5 15.9127 19.4704C16.3177 19.4408 16.6665 19.6842 16.6927 20.0143ZM11.3767 23.6398C11.1765 23.8839 10.7557 23.8854 10.437 23.6427C10.1182 23.4008 10.0222 23.0064 10.2225 22.7623C10.4227 22.5182 10.8435 22.5168 11.1615 22.7594C11.4802 23.0014 11.577 23.3957 11.3767 23.6398ZM8.84025 23.2115C9.096 23.5373 9.08925 23.9583 8.82375 24.1512C8.559 24.344 8.13675 24.2364 7.88025 23.9099C7.62375 23.5835 7.63125 23.1632 7.89675 22.9703C8.1615 22.7775 8.58375 22.8851 8.84025 23.2115Z" fill="#292F33"/>
</g>
<defs>
<clipPath id="clip0_1_29">
<rect width="27" height="26" fill="white"/>
</clipPath>
</defs>
</svg>
