<svg width="24" height="24" viewBox="0 0 24 24" fill="none" xmlns="http://www.w3.org/2000/svg">
<path d="M9.51764 1.24912C9.10078 1.25203 8.68927 1.31128 8.28985 1.43067C7.89356 1.54926 7.5285 1.72115 7.19719 1.94006C7.55916 2.85984 8.48321 4.0274 9.5536 5.0241C10.6712 6.06482 11.9527 6.94903 12.7802 7.34779L12.7899 7.35248L12.7995 7.35731C13.56 7.74801 14.0984 8.36292 14.4091 9.04125C14.6093 9.47803 14.7259 9.93553 14.7938 10.4006C15.4032 9.92531 16.0456 9.54468 16.6987 9.26845C16.649 8.41017 16.4602 7.51017 16.1163 6.609C15.3951 4.719 14.1353 3.19743 12.7087 2.26949C11.6833 1.60256 10.583 1.24171 9.51764 1.24912ZM5.93602 3.23217C5.69635 3.60407 5.4998 4.01873 5.35045 4.46906C4.8517 5.97253 4.89216 7.8585 5.61342 9.74859C6.04992 10.8925 6.68391 11.9011 7.43264 12.7252C8.17027 12.9458 8.89983 13.2868 9.58514 13.7495C10.1146 14.107 10.5865 14.5162 10.9954 14.9613C11.1288 14.9937 11.2623 15.0214 11.3957 15.0431C11.6498 14.3804 11.9795 13.7211 12.3859 13.0814C12.6317 12.694 12.9011 12.3221 13.1926 11.9678C13.196 11.7244 13.194 11.4886 13.1824 11.2634C13.151 10.6545 13.0535 10.1338 12.8749 9.74404C12.6964 9.35432 12.4638 9.08207 12.0284 8.85839L12.0476 8.86785C10.9752 8.35106 9.636 7.40667 8.40352 6.25903C7.42383 5.34684 6.51502 4.3251 5.93602 3.23217ZM19.0494 9.59428C18.4163 9.59943 17.7465 9.74648 17.0688 10.0278C15.6232 10.6279 14.1717 11.8442 13.098 13.5339C12.5488 14.3984 12.1541 15.2997 11.9087 16.1834C12.872 17.7996 13.1086 19.656 12.4147 21.2151C12.5269 21.3753 12.6521 21.526 12.789 21.6657C13.8036 20.7903 14.9728 20.0652 15.8038 19.3206C16.258 18.9137 16.602 18.5108 16.7931 18.1272C16.9842 17.7434 17.0499 17.3914 16.9506 16.912L16.9448 16.8841L16.9409 16.856C16.5634 14.1235 17.2257 12.5176 18.1908 11.5352C18.9668 10.7454 19.7393 10.3294 20.2723 9.78014C19.8872 9.65217 19.4767 9.59076 19.0494 9.59428ZM21.7094 10.7171C20.9298 11.686 19.9688 12.1335 19.3945 12.718C18.7347 13.3896 18.2792 14.1981 18.611 16.6135C18.7708 17.4347 18.6304 18.2234 18.3036 18.8795C17.9709 19.5473 17.4735 20.0904 16.9299 20.5774C16.1043 21.3172 15.152 21.9507 14.3553 22.5687C15.2588 22.8034 16.2875 22.6898 17.3349 22.2549C18.7805 21.6549 20.2321 20.4385 21.3057 18.7488C22.3793 17.0591 22.8638 15.2282 22.7929 13.6646C22.7387 12.4688 22.3694 11.4442 21.7094 10.7171L21.7094 10.7171ZM18.611 16.6135C18.6082 16.5987 18.606 16.584 18.6029 16.5693L18.6126 16.6252C18.6122 16.6213 18.6117 16.6174 18.6111 16.6135H18.611ZM5.47556 13.2655C4.61386 13.2577 3.80213 13.4466 3.11892 13.8189C3.12361 13.8191 3.12769 13.8194 3.13238 13.8195C3.53691 13.8338 4.04475 13.7861 4.62947 13.8659C5.21414 13.9458 5.89908 14.2113 6.41794 14.7984C6.93685 15.3855 7.29263 16.2178 7.54046 17.4131L7.54632 17.441L7.55016 17.4692C7.66514 18.3032 8.19638 18.7857 9.11738 19.2374C9.90319 19.6229 10.9121 19.8981 11.8697 20.1783C12.2986 18.2564 11.281 15.9124 9.11302 14.4488C7.94405 13.6596 6.66267 13.2762 5.47566 13.2655H5.47556ZM1.67503 15.2083C0.490502 17.2488 1.44047 20.2429 4.02375 21.987C6.56555 23.7031 9.63872 23.4999 11.1178 21.7198C10.2536 21.4735 9.27394 21.1939 8.37422 20.7526C7.21406 20.1835 6.10828 19.2273 5.88516 17.7422C5.67267 16.725 5.38875 16.1822 5.15344 15.9159C4.91719 15.6484 4.73297 15.5834 4.4011 15.5381C4.06922 15.4927 3.61313 15.5251 3.07299 15.5061C2.65205 15.4913 2.15817 15.4309 1.67503 15.2084V15.2083ZM5.88521 17.7421C5.88624 17.7468 5.88727 17.7511 5.88825 17.7559L5.87855 17.6998C5.88052 17.7141 5.8831 17.7279 5.88525 17.7422L5.88521 17.7421Z" fill="#654132"/>
</svg>
