<svg width="30" height="31" viewBox="0 0 30 31" fill="none" xmlns="http://www.w3.org/2000/svg">
<g clip-path="url(#clip0_1_96)">
<path d="M10.276 17.9616C10.276 17.9616 11.617 18.4914 15.4819 17.9245C19.3469 17.3577 20.4407 16.4708 20.4407 16.4708L10.276 17.9616Z" fill="#B17F4A"/>
<path d="M8.28797 14.9053L9.04178 17.353C9.20741 18.2131 11.8513 18.2043 15.407 17.6828C18.9627 17.1613 21.4978 16.4105 21.4095 15.5391L21.4286 12.978L8.28797 14.9053Z" fill="#FFC861"/>
<path d="M8.74208 16.3863C8.74208 16.3863 10.3353 17.2896 15.2438 16.5697C20.1522 15.8498 21.4259 14.3049 21.4259 14.3049L8.74208 16.3863Z" fill="#B17F4A"/>
<path d="M8.90687 7.55008C5.7763 8.00924 3.23979 12.5188 7.5286 15.1114C7.83243 17.183 11.3881 16.6615 15.2144 16.1003C20.4707 15.3294 21.9944 13.8741 21.9944 13.8741L8.90687 7.55008Z" fill="#FFE0B5"/>
<path d="M21.1339 10.9682C21.391 10.2988 21.5734 8.85076 20.6167 7.98038C19.3486 6.87141 17.9164 6.7972 16.5799 6.29837C15.8253 5.99846 14.5161 5.14818 16.0034 3.98252C16.0034 3.98252 12.3006 2.69371 9.95339 5.53312C9.28471 6.35764 8.96841 7.16205 8.87039 7.8397C4.13882 9.76545 5.89112 16.8676 12.9099 14.3853C6.97391 15.098 7.06667 10.3467 8.83391 8.12931C8.72899 9.02906 8.97428 9.62477 8.97428 9.62477C8.34384 11.5175 9.51155 13.5572 11.6483 14.1281C12.062 14.257 12.5053 14.3183 12.9485 14.3796C12.9485 14.3796 10.3632 15.8643 8.06278 15.2541C9.69449 16.6888 11.9843 15.3422 13.2642 15.1861C14.6601 15.013 14.3801 16.0647 17.4973 14.9759C19.7868 14.1663 20.4713 13.7185 22.0717 13.8628C22.033 13.8684 24.0639 11.8334 21.1339 10.9682Z" fill="#8F6453"/>
<path d="M16.0033 3.98253C8.08545 3.5646 8.0735 11.0203 13.2041 11.8154C14.0725 11.8144 14.8796 11.6644 15.6777 11.4526C10.5309 11.3547 9.42374 5.4213 14.0936 4.42055C10.2438 6.97499 13.3997 11.534 17.999 10.8595C13.9052 9.59643 12.788 6.28601 14.9937 4.63595C13.1937 9.32176 19.2096 7.80775 21.0952 10.9739C21.3311 6.39113 14.0669 8.81468 16.0033 3.98253Z" fill="#FFE0B5"/>
<path d="M8.9447 9.69227C9.7488 11.4062 12.1218 12.5111 14.6726 12.137C17.4167 11.7345 19.5404 10.6018 22.0017 12.5781C18.9693 11.8226 17.4594 12.8337 14.754 13.2305C11.5461 13.701 8.69147 12.0035 8.9447 9.69227Z" fill="#FFE0B5"/>
</g>
<path fill-rule="evenodd" clip-rule="evenodd" d="M6.32305 16.6362C6.34205 16.8347 6.40156 17.0681 6.5209 17.5373L7.47729 21.2948C7.85187 22.7662 8.69172 24.0507 9.83738 24.9042C10.983 25.7578 12.3547 26.1212 13.692 25.9252L17.2678 25.4008C18.3183 25.2459 19.2964 24.7534 20.0846 23.9823C20.8729 23.2113 21.4379 22.1944 21.712 21.0536L23.854 20.7394C24.8381 20.5951 25.7173 20.0169 26.2983 19.132C26.8793 18.2472 27.1145 17.1282 26.9522 16.0211C26.7898 14.9141 26.2432 13.9097 25.4325 13.229C24.6219 12.5482 23.6137 12.2469 22.6296 12.3912L20.3748 12.7219C20.1669 12.6309 19.9481 12.5785 19.7274 12.5667C19.5503 12.5586 19.3366 12.5899 18.9112 12.6523L8.45702 14.1856C8.03157 14.248 7.81885 14.2792 7.65159 14.3378C7.22686 14.4896 6.86502 14.7989 6.62437 15.2158C6.38373 15.6327 6.27828 16.1329 6.32503 16.6359M21.6269 14.2438C21.6392 14.2913 21.6503 14.339 21.66 14.3868C21.6988 14.5824 21.7098 14.8229 21.7302 15.3066L21.8931 19.1805L21.8975 19.3208L23.6092 19.0698C24.1996 18.9832 24.7271 18.6363 25.0757 18.1053C25.4243 17.5744 25.5655 16.903 25.468 16.2388C25.3706 15.5746 25.0426 14.972 24.5563 14.5635C24.0699 14.1551 23.4649 13.9743 22.8745 14.0608L21.6269 14.2438Z" fill="#D7CCBC"/>
<defs>
<clipPath id="clip0_1_96">
<rect width="25" height="20" fill="white" transform="translate(0.3237 5.01883) rotate(-8.34389)"/>
</clipPath>
</defs>
</svg>
