<svg width="34" height="34" viewBox="0 0 34 34" fill="none" xmlns="http://www.w3.org/2000/svg">
<g clip-path="url(#clip0_1_11)">
<path d="M26.8265 13.4787L19.987 12.9237L16.3227 20.4539L17.897 22.8329L21.5383 23.8446C21.5383 23.8446 22.7147 25.1619 22.3063 25.9165C21.8979 26.6712 21.1701 27.4924 19.0793 28.4839C16.9868 29.4763 15.9568 29.1461 15.6454 29.0306C15.3339 28.9151 14.5998 28.2822 14.5998 28.2822C14.5998 28.2822 12.7856 28.7882 11.2651 28.0286C9.90006 27.3468 9.51607 26.3108 9.38624 25.7436C9.25547 25.1746 9.44875 24.6788 9.44875 24.6788L9.18991 24.4636C9.18991 24.4636 7.90534 24.5203 7.12747 23.4135C6.3496 22.3067 5.93406 20.2947 6.14052 18.512C6.34698 16.7293 6.69617 16.7177 6.69617 16.7177C6.69617 16.7177 6.19241 16.7064 5.78094 15.6854C5.36948 14.6643 6.13233 12.7932 7.0033 11.2567C7.87428 9.72018 8.60059 8.74869 9.65147 8.39217C10.7023 8.03565 11.3217 8.37077 11.3217 8.37077C11.3217 8.37077 12.2456 6.63676 14.1957 6.0415C16.1458 5.44624 17.6253 6.20811 17.8968 6.38087C18.1682 6.55364 18.3582 6.37953 18.3582 6.37953C18.3582 6.37953 18.9407 5.81484 20.3798 5.78102C21.8189 5.74719 22.8292 6.69245 23.0903 6.97743C23.3515 7.2624 23.7891 7.80718 23.7891 7.80718C23.7891 7.80718 24.4643 7.87652 25.2159 8.45545C26.1917 9.20609 26.878 10.2915 27.2564 11.5793C27.6287 12.8438 27.5937 13.316 27.5937 13.316L26.8265 13.4787Z" fill="#F6AF3D"/>
<path d="M7.03028 13.937C7.64887 14.2215 8.0163 13.5224 8.39609 12.6166C8.77588 11.7108 8.97383 11.0925 8.43528 10.9023C7.89673 10.7122 7.34003 11.7384 7.07266 12.3188C6.80607 12.8966 6.44984 13.6697 7.03028 13.937ZM10.931 24.6549C10.5876 24.8411 10.6589 25.329 10.8563 25.693C11.0536 26.057 11.251 26.421 11.6468 26.233C11.9566 26.0873 12.0353 25.7736 11.7421 25.1838C11.474 24.636 11.2315 24.492 10.931 24.6549Z" fill="#F9E0CA"/>
<path d="M20.1102 23.448L19.8522 23.759L17.9285 24.4111L16.2465 25.6319L15.3194 26.7945C15.4162 27.9728 17.4066 29.2753 19.0767 28.4831C21.1691 27.4907 21.8952 26.6704 22.3036 25.9157C22.712 25.1611 21.5356 23.8438 21.5356 23.8438L20.1102 23.448Z" fill="url(#paint0_radial_1_11)"/>
<path d="M17.6709 21.5513L17.1378 17.999L12.6951 15.7222L9.70397 15.6555C9.70397 15.6555 8.88853 17.0486 9.1275 18.7964C9.41255 20.8792 11.1114 22.5331 11.1114 22.5331L14.3301 21.2944L17.6709 21.5513Z" fill="url(#paint1_radial_1_11)"/>
<path d="M15.2012 16.6851L11.905 15.433L7.88533 15.6041C7.88533 15.6041 11.0856 13.1023 12.2568 11.3697C13.4281 9.63707 12.6173 8.19927 12.6173 8.19927L15.5179 9.25041L18.0952 11.3567L19.7863 13.7746L16.7041 16.9655L15.8001 17.2446L15.2012 16.6851Z" fill="url(#paint2_radial_1_11)"/>
<path d="M13.2439 8.43277C13.2439 8.43277 14.0256 7.4979 15.5224 7.01732C17.2994 6.44704 19.0347 6.61924 19.0347 6.61924L21.0949 8.75927L22.1236 11.1564L22.0427 12.72L19.4688 13.1891L17.6948 10.7739L15.6101 9.49817L13.2439 8.43277Z" fill="url(#paint3_radial_1_11)"/>
<path d="M12.6259 25.0067C14.0883 26.9088 15.529 26.5542 15.529 26.5542L17.3134 24.7846L18.9854 24.1313L16.1915 21.0027L12.8581 21.6282C12.8581 21.6282 10.9078 22.7723 12.6259 25.0067Z" fill="url(#paint4_radial_1_11)"/>
<path d="M8.23783 17.3237C7.17492 17.3179 7.10628 19.0925 7.09954 19.7316C7.09338 20.3882 7.70791 21.8657 8.2235 21.7594C8.72521 21.6562 8.42535 20.5746 8.54096 19.8454C8.72072 18.7059 9.47641 17.3297 8.23783 17.3237Z" fill="#F9E0CA"/>
<path d="M22.2338 13.1051L24.3553 13.2768L24.8125 11.7269L24.4264 9.28571L23.7872 7.80375C23.7872 7.80375 23.3496 7.25896 23.0885 6.97399C22.8273 6.68902 21.8167 5.7595 20.3779 5.77758C19.2038 5.79211 18.5397 6.21444 18.334 6.36373L21.0957 8.75662L22.0098 11.4669L22.2338 13.1051Z" fill="url(#paint5_radial_1_11)"/>
<path d="M25.2133 8.45467C24.5809 7.96442 23.9734 7.83165 23.79 7.80891L24.4282 9.28915L25.0229 11.9061L24.4097 13.2828L26.8292 13.4795L27.5928 13.3143C27.5928 13.3143 27.6261 12.843 27.2554 11.5776C26.8744 10.289 26.1856 9.20717 25.2133 8.45467Z" fill="url(#paint6_radial_1_11)"/>
<path d="M14.6579 16.5887C14.6579 16.5887 16.4102 16.6161 17.347 14.1685C18.0385 12.3583 17.6571 11.1099 17.6571 11.1099C17.6571 11.1099 18.8538 11.9607 20.188 11.7661C21.5221 11.5714 22.0062 10.7801 22.0062 10.7801C22.0062 10.7801 22.5089 11.654 23.4197 11.8667C24.3287 12.0803 24.8151 11.7277 24.8151 11.7277C24.8151 11.7277 25.202 12.9288 26.1869 12.9546C27.1709 12.9787 27.506 12.6215 27.506 12.6215C27.506 12.6215 28.0914 14.4592 27.0095 15.0658C25.3853 15.9754 24.0915 13.913 24.0915 13.913C24.0915 13.913 23.5993 14.091 23.2081 14.1276C22.8169 14.1642 22.3858 14.1314 22.3858 14.1314C22.3858 14.1314 22.0193 14.5945 21.6581 14.8503C21.296 15.1044 20.7005 15.2518 20.7005 15.2518C20.7005 15.2518 20.9423 16.296 20.3648 17.6689C19.7873 19.0418 18.6825 19.9341 18.6825 19.9341C18.6825 19.9341 19.0295 20.3037 19.1092 20.9381C19.1773 21.4899 18.9331 22.24 18.9331 22.24C18.9331 22.24 19.3047 22.274 19.6378 22.5644C19.9708 22.8549 20.1923 23.2635 20.1923 23.2635C20.1923 23.2635 21.4911 22.8726 22.2659 23.7278C23.1422 24.6923 22.2618 26.0517 22.2618 26.0517C22.2618 26.0517 22.1895 24.689 21.1819 24.1667C19.712 23.4062 17.5854 24.5282 17.5854 24.5282C17.5854 24.5282 17.2526 23.5334 16.6023 22.7684C15.952 22.0035 14.3327 21.2952 14.3327 21.2952C14.3327 21.2952 15.026 20.566 15.1073 19.1999C15.1887 17.8339 14.6579 16.5887 14.6579 16.5887Z" fill="#CF7118"/>
<path d="M18.8855 22.1769C18.9367 22.6646 16.2404 20.5562 13.1061 22.2291C9.97177 23.9019 9.33917 25.3003 9.33917 25.3003C9.33917 25.3003 9.27984 24.9614 9.20027 24.8024C9.12071 24.6433 8.99569 24.4579 8.99569 24.4579C8.99569 24.4579 9.37316 22.9823 11.4615 21.7856C13.446 20.6473 15.1686 20.2554 16.7642 20.7477C18.3605 21.2374 18.8558 21.8886 18.8855 22.1769Z" fill="url(#paint7_radial_1_11)"/>
<path d="M19.8532 23.7607C20.0357 24.1506 18.3656 24.3363 16.746 25.8565C15.1264 27.3768 15.0087 28.6759 15.0087 28.6759C15.0087 28.6759 14.7783 28.5254 14.5912 28.4468C14.4042 28.3683 14.0762 28.3328 14.0762 28.3328C14.0762 28.3328 14.3229 26.6038 16.1158 25.1696C17.9087 23.7353 19.6904 23.4113 19.8532 23.7607Z" fill="url(#paint8_radial_1_11)"/>
<path d="M6.06325 16.2388C6.06325 16.2388 6.22807 16.4649 6.31706 16.7233C6.40697 16.9833 6.40291 17.1766 6.40291 17.1766C6.40291 17.1766 8.80691 15.9598 10.971 16.2016C13.135 16.4435 15.236 17.2861 16.4806 18.1554C17.7251 19.0247 18.1578 19.921 18.3717 19.6517C18.5856 19.3824 17.7087 17.9538 16.1983 16.971C14.6878 15.9881 12.3743 14.852 9.98329 15.0931C7.59232 15.3342 6.06325 16.2388 6.06325 16.2388Z" fill="url(#paint9_radial_1_11)"/>
<path d="M11.3521 8.33656C11.3749 8.49748 14.0361 8.84081 15.8925 10.1093C17.7499 11.3795 18.8913 13.0379 19.4724 13.8515C20.0535 14.665 20.3297 15.3218 20.5442 15.1233C20.7596 14.9265 20.4934 14.3043 19.8888 13.0214C19.2064 11.5784 17.6954 10.1071 16.3315 9.24698C14.9381 8.36951 13.137 7.95303 12.1431 8.02538C11.7072 8.05734 11.3228 8.13915 11.3521 8.33656Z" fill="url(#paint10_radial_1_11)"/>
<path d="M18.0496 6.45795C18.0269 6.56358 19.8258 7.23007 20.9498 9.44227C22.0044 11.5143 22.0618 13.796 22.2499 13.7741C22.4396 13.7511 22.5568 13.2255 22.4948 12.0705C22.4328 10.9154 22.0452 9.27042 21.045 8.01982C20.2991 7.08675 19.2836 6.43094 18.6823 6.35041C18.4786 6.32309 18.0775 6.32505 18.0496 6.45795Z" fill="url(#paint11_radial_1_11)"/>
<path d="M24.2598 13.6129C24.4988 13.7544 25.3708 12.6706 25.2643 11.1753C25.1588 9.68175 24.236 7.97587 23.9408 8.16483C23.7876 8.26343 24.481 9.56268 24.5511 11.4376C24.5973 12.6701 24.1699 13.5617 24.2598 13.6129Z" fill="url(#paint12_radial_1_11)"/>
</g>
<defs>
<radialGradient id="paint0_radial_1_11" cx="0" cy="0" r="1" gradientUnits="userSpaceOnUse" gradientTransform="translate(20.4465 22.5661) rotate(-28.4676) scale(7.61445 7.61445)">
<stop offset="0.34" stop-color="#E07F16"/>
<stop offset="0.821" stop-color="#E07F16" stop-opacity="0"/>
</radialGradient>
<radialGradient id="paint1_radial_1_11" cx="0" cy="0" r="1" gradientUnits="userSpaceOnUse" gradientTransform="translate(15.3729 18.0613) rotate(-28.4676) scale(6.09395)">
<stop offset="0.254" stop-color="#E07F16"/>
<stop offset="1" stop-color="#E07F16" stop-opacity="0"/>
</radialGradient>
<radialGradient id="paint2_radial_1_11" cx="0" cy="0" r="1" gradientTransform="matrix(6.6561 3.24573 -7.39113 15.158 10.7226 11.0791)" gradientUnits="userSpaceOnUse">
<stop offset="0.243" stop-color="#E07F16" stop-opacity="0"/>
<stop offset="0.924" stop-color="#E07F16"/>
</radialGradient>
<radialGradient id="paint3_radial_1_11" cx="0" cy="0" r="1" gradientTransform="matrix(7.35429 7.41369 -9.7085 9.63086 15.2218 5.03956)" gradientUnits="userSpaceOnUse">
<stop offset="0.31" stop-color="#E07F16" stop-opacity="0"/>
<stop offset="0.6" stop-color="#E07F16"/>
</radialGradient>
<radialGradient id="paint4_radial_1_11" cx="0" cy="0" r="1" gradientUnits="userSpaceOnUse" gradientTransform="translate(19.8076 20.5199) rotate(-28.4676) scale(8.4957)">
<stop offset="0.454" stop-color="#E07F16"/>
<stop offset="0.913" stop-color="#E07F16" stop-opacity="0"/>
</radialGradient>
<radialGradient id="paint5_radial_1_11" cx="0" cy="0" r="1" gradientUnits="userSpaceOnUse" gradientTransform="translate(21.7517 12.9937) rotate(-28.4676) scale(7.50664)">
<stop offset="0.585" stop-color="#E07F16"/>
<stop offset="1" stop-color="#E07F16" stop-opacity="0"/>
</radialGradient>
<radialGradient id="paint6_radial_1_11" cx="0" cy="0" r="1" gradientUnits="userSpaceOnUse" gradientTransform="translate(25.9065 13.1653) rotate(-28.4676) scale(6.90234)">
<stop offset="0.098" stop-color="#E07F16"/>
<stop offset="0.759" stop-color="#E07F16" stop-opacity="0.125"/>
<stop offset="0.854" stop-color="#E07F16" stop-opacity="0"/>
</radialGradient>
<radialGradient id="paint7_radial_1_11" cx="0" cy="0" r="1" gradientUnits="userSpaceOnUse" gradientTransform="translate(8.87997 25.0574) rotate(-28.4676) scale(5.96172)">
<stop offset="0.353" stop-color="#F8C975"/>
<stop offset="0.508" stop-color="#F9C368"/>
<stop offset="0.794" stop-color="#FCB445"/>
<stop offset="1" stop-color="#FFA828"/>
</radialGradient>
<radialGradient id="paint8_radial_1_11" cx="0" cy="0" r="1" gradientUnits="userSpaceOnUse" gradientTransform="translate(14.0867 29.0603) rotate(-28.4676) scale(5.21465)">
<stop offset="0.353" stop-color="#F8C975"/>
<stop offset="0.508" stop-color="#F9C368"/>
<stop offset="0.794" stop-color="#FCB445"/>
<stop offset="1" stop-color="#FFA828"/>
</radialGradient>
<radialGradient id="paint9_radial_1_11" cx="0" cy="0" r="1" gradientUnits="userSpaceOnUse" gradientTransform="translate(5.51385 16.9691) rotate(-28.4676) scale(8.70742)">
<stop offset="0.221" stop-color="#F8C975"/>
<stop offset="0.535" stop-color="#FBBA53"/>
<stop offset="0.881" stop-color="#FFA828"/>
</radialGradient>
<radialGradient id="paint10_radial_1_11" cx="0" cy="0" r="1" gradientUnits="userSpaceOnUse" gradientTransform="translate(11.5004 7.91153) rotate(-28.4676) scale(7.1002)">
<stop offset="0.353" stop-color="#F8C975"/>
<stop offset="0.508" stop-color="#F9C368"/>
<stop offset="0.794" stop-color="#FCB445"/>
<stop offset="1" stop-color="#FFA828"/>
</radialGradient>
<radialGradient id="paint11_radial_1_11" cx="0" cy="0" r="1" gradientUnits="userSpaceOnUse" gradientTransform="translate(17.7844 6.14296) rotate(-28.4676) scale(5.3252 5.3252)">
<stop offset="0.353" stop-color="#F8C975"/>
<stop offset="0.508" stop-color="#F9C368"/>
<stop offset="0.794" stop-color="#FCB445"/>
<stop offset="1" stop-color="#FFA828"/>
</radialGradient>
<radialGradient id="paint12_radial_1_11" cx="0" cy="0" r="1" gradientUnits="userSpaceOnUse" gradientTransform="translate(23.3194 6.95566) rotate(-28.4676) scale(3.81875 3.81875)">
<stop offset="0.353" stop-color="#F8C975"/>
<stop offset="0.508" stop-color="#F9C368"/>
<stop offset="0.794" stop-color="#FCB445"/>
<stop offset="1" stop-color="#FFA828"/>
</radialGradient>
<clipPath id="clip0_1_11">
<rect width="25" height="25" fill="white" transform="translate(0.0348053 11.9513) rotate(-28.4676)"/>
</clipPath>
</defs>
</svg>
