<svg width="24" height="24" viewBox="0 0 24 24" fill="none" xmlns="http://www.w3.org/2000/svg">
<path d="M20.466 14.035C20.8165 13.4141 21.0007 12.7131 21.0007 12C21.0007 11.287 20.8165 10.586 20.466 9.96504L17.961 5.53504C17.6181 4.92028 17.1179 4.40775 16.5116 4.04998C15.9054 3.69221 15.2149 3.50207 14.511 3.49904H9.49001C8.78618 3.50197 8.09578 3.69196 7.48955 4.04955C6.88332 4.40714 6.38306 4.91946 6.04001 5.53404L3.53401 9.96404C3.18333 10.5851 2.99905 11.2863 2.99905 11.9995C2.99905 12.7128 3.18333 13.4139 3.53401 14.035L6.03901 18.465C6.38193 19.0798 6.88214 19.5923 7.48838 19.9501C8.09462 20.3079 8.78508 20.498 9.48901 20.501H14.51C15.2138 20.4981 15.9042 20.3081 16.5105 19.9505C17.1167 19.5929 17.617 19.0806 17.96 18.466L20.466 14.035ZM14.37 11.475C14.545 11.8 14.545 12.2 14.37 12.525L13.605 13.975C13.5259 14.1306 13.406 14.2617 13.258 14.3542C13.1099 14.4468 12.9395 14.4972 12.765 14.5H11.235C10.885 14.5 10.57 14.3 10.395 13.975L9.63001 12.525C9.54586 12.3628 9.50193 12.1828 9.50193 12C9.50193 11.8173 9.54586 11.6372 9.63001 11.475L10.395 10.025C10.4741 9.86944 10.5941 9.73833 10.7421 9.64583C10.8901 9.55333 11.0605 9.50292 11.235 9.50004H12.765C13.115 9.50004 13.43 9.70004 13.605 10.025L14.37 11.475Z" fill="#631134"/>
<path fill-rule="evenodd" clip-rule="evenodd" d="M19.586 13.58C19.8576 13.0977 20.0003 12.5536 20.0003 12C20.0003 11.4465 19.8576 10.9023 19.586 10.42L17.136 6.08005C16.8692 5.60163 16.4797 5.20301 16.0076 4.92529C15.5354 4.64756 14.9978 4.50077 14.45 4.50005H9.55001C8.45001 4.50005 7.42501 5.10005 6.87401 6.08005L4.42001 10.42C4.14841 10.9023 4.00572 11.4465 4.00572 12C4.00572 12.5536 4.14841 13.0977 4.42001 13.58L6.87001 17.92C7.13628 18.3976 7.52487 18.7956 7.99586 19.0733C8.46685 19.351 9.00327 19.4983 9.55001 19.5H14.462C15.562 19.5 16.587 18.901 17.137 17.92L19.592 13.58H19.586ZM15.006 12.895C15.316 12.345 15.316 11.66 15.006 11.105L14.256 9.79005C14.1062 9.52042 13.8875 9.29545 13.6221 9.13818C13.3568 8.98092 13.0544 8.89701 12.746 8.89505H11.255C10.63 8.89505 10.055 9.23505 9.74001 9.79005L9.00001 11.1C8.84579 11.3731 8.76474 11.6814 8.76474 11.995C8.76474 12.3087 8.84579 12.617 9.00001 12.89L9.75001 14.1C9.89831 14.3691 10.1152 14.5942 10.3787 14.7522C10.6422 14.9103 10.9428 14.9958 11.25 15H12.74C13.365 15 13.94 14.66 14.255 14.105L15 12.9L15.006 12.895Z" fill="#E8B4D0"/>
<path d="M19.587 10.42C19.8586 10.9023 20.0013 11.4465 20.0013 12C20.0013 12.5536 19.8586 13.0977 19.587 13.58L17.137 17.921C16.8702 18.3995 16.4807 18.7981 16.0086 19.0758C15.5364 19.3535 14.9988 19.5003 14.451 19.501H9.55101C8.45101 19.501 7.43501 18.901 6.88101 17.936L4.85001 14.351C4.5784 13.8687 4.43571 13.3246 4.43571 12.771C4.43571 12.2175 4.5784 11.6733 4.85001 11.191L7.30001 7.08005C7.56669 6.60178 7.95606 6.20326 8.42801 5.92554C8.89996 5.64782 9.43741 5.50095 9.98501 5.50005H15.016C16.116 5.50005 17.126 6.10005 17.681 7.06505L19.591 10.415L19.587 10.42ZM10.371 15.126C10.5068 15.3907 10.7132 15.6125 10.9674 15.767C11.2216 15.9214 11.5136 16.0024 11.811 16.001H13.181C13.806 16.001 14.381 15.661 14.696 15.106L15.441 13.66C15.751 13.11 15.751 12.43 15.441 11.875C15.056 11.2 14.686 10.54 14.261 9.89505C14.1108 9.62468 13.8913 9.39924 13.625 9.24192C13.3587 9.08461 13.0553 9.00112 12.746 9.00005H11.256C10.631 9.00005 10.056 9.34005 9.74001 9.89505L9.00001 11.1C8.84578 11.3731 8.76474 11.6814 8.76474 11.995C8.76474 12.3087 8.84578 12.617 9.00001 12.89C9.40001 13.585 9.98001 14.425 10.376 15.12L10.371 15.126Z" fill="#DD679F"/>
<path d="M3.694 9.01603C3.394 8.61603 3.444 8.03103 3.824 7.70603C3.91189 7.62971 4.01467 7.57249 4.12584 7.538C4.23701 7.5035 4.35413 7.49249 4.46978 7.50565C4.58543 7.51881 4.69708 7.55587 4.79765 7.61446C4.89822 7.67306 4.98552 7.75192 5.054 7.84603L6.304 9.48603C6.604 9.88603 6.554 10.471 6.174 10.796C6.08612 10.8724 5.98334 10.9296 5.87217 10.9641C5.761 10.9986 5.64388 11.0096 5.52823 10.9964C5.41258 10.9833 5.30093 10.9462 5.20035 10.8876C5.09978 10.829 5.01249 10.7502 4.944 10.656L3.694 9.01603Z" fill="black"/>
<path d="M3.87001 8.86403C3.75935 8.71936 3.70808 8.5379 3.72666 8.3567C3.74525 8.17551 3.83228 8.00824 3.97001 7.88903C4.03502 7.83288 4.11092 7.79074 4.19295 7.76523C4.27499 7.73972 4.3614 7.7314 4.44679 7.74079C4.53219 7.75017 4.61473 7.77706 4.68927 7.81977C4.7638 7.86248 4.82874 7.9201 4.88001 7.98903L6.13001 9.63403C6.36001 9.93403 6.31401 10.369 6.03001 10.61C5.96531 10.6669 5.88948 10.7097 5.80735 10.7356C5.72521 10.7615 5.63858 10.7701 5.55296 10.7606C5.46735 10.7512 5.38463 10.7241 5.31009 10.6809C5.23554 10.6378 5.17081 10.5796 5.12001 10.51L3.87001 8.86403Z" fill="#6CBDDE"/>
<path d="M12.045 18.865C11.8193 18.7507 11.6452 18.5551 11.558 18.3176C11.4708 18.08 11.4769 17.8183 11.575 17.585C11.6176 17.4709 11.6832 17.3666 11.7678 17.2788C11.8523 17.1911 11.954 17.1216 12.0665 17.0747C12.179 17.0278 12.3 17.0045 12.4218 17.0063C12.5437 17.0081 12.6639 17.0349 12.775 17.085L13.955 17.635C14.1808 17.7493 14.3548 17.945 14.442 18.1825C14.5292 18.42 14.5231 18.6818 14.425 18.915C14.3824 19.0292 14.3168 19.1335 14.2322 19.2212C14.1477 19.309 14.046 19.3785 13.9335 19.4254C13.821 19.4723 13.7 19.4955 13.5782 19.4938C13.4563 19.492 13.3361 19.4652 13.225 19.415L12.045 18.865Z" fill="black"/>
<path d="M12.14 18.635C11.795 18.475 11.64 18.05 11.79 17.685C11.94 17.315 12.34 17.15 12.685 17.31L13.86 17.86C14.205 18.025 14.36 18.45 14.21 18.815C14.06 19.185 13.66 19.35 13.315 19.19L12.14 18.64V18.635Z" fill="#6CBDDE"/>
<path d="M17.52 14.525C17.42 14.08 17.68 13.63 18.105 13.525C18.53 13.415 18.955 13.69 19.055 14.135L19.481 15.975C19.581 16.421 19.321 16.871 18.896 16.975C18.471 17.085 18.046 16.811 17.946 16.365L17.52 14.525Z" fill="black"/>
<path d="M17.72 14.476C17.6803 14.3203 17.7031 14.1552 17.7834 14.0161C17.8638 13.8769 17.9953 13.7746 18.15 13.731C18.47 13.651 18.786 13.856 18.86 14.186L19.28 16.026C19.3199 16.1818 19.2973 16.347 19.2169 16.4862C19.1366 16.6255 19.0048 16.7277 18.85 16.771C18.7348 16.7993 18.6136 16.7915 18.503 16.7488C18.3923 16.7061 18.2974 16.6304 18.231 16.532C18.1871 16.4666 18.1565 16.3933 18.141 16.316L17.72 14.476Z" fill="#DC3C46"/>
<path d="M16.27 4.56003C16.3151 4.44913 16.3819 4.34841 16.4667 4.26387C16.5514 4.17933 16.6523 4.11269 16.7633 4.06792C16.8743 4.02314 16.9932 4.00114 17.1129 4.00322C17.2326 4.0053 17.3506 4.03142 17.46 4.08003C17.915 4.28503 18.125 4.83503 17.925 5.31003L17.225 6.94003C17.1803 7.05058 17.1138 7.15101 17.0294 7.23535C16.9451 7.31969 16.8447 7.38622 16.7342 7.431C16.6236 7.47577 16.5052 7.49787 16.386 7.49599C16.2667 7.49411 16.1491 7.46827 16.04 7.42003C15.8181 7.31533 15.6456 7.12852 15.5589 6.89903C15.4721 6.66955 15.4779 6.41533 15.575 6.19003L16.275 4.56003H16.27Z" fill="black"/>
<path d="M16.48 4.65004C16.63 4.30004 17.03 4.14404 17.366 4.30004C17.706 4.45004 17.866 4.86004 17.716 5.21004L17.016 6.84504C16.9821 6.92726 16.9322 7.00193 16.8692 7.06467C16.8062 7.12742 16.7313 7.17699 16.649 7.2105C16.5666 7.24401 16.4784 7.26078 16.3894 7.25984C16.3005 7.25891 16.2127 7.24027 16.131 7.20504C15.965 7.1279 15.8359 6.98882 15.7712 6.8176C15.7065 6.64638 15.7115 6.45664 15.785 6.28904L16.485 4.65404L16.48 4.65004Z" fill="#F1DF73"/>
<path d="M10.3 6.03005C10.54 5.96508 10.7958 5.99675 11.0127 6.11827C11.2296 6.23979 11.3902 6.44147 11.46 6.68005C11.595 7.18005 11.295 7.68005 10.79 7.81505L10.19 7.96505C9.95062 8.02883 9.69578 7.99657 9.47983 7.87514C9.26387 7.75372 9.1039 7.55273 9.03402 7.31505C8.89402 6.82505 9.19402 6.31505 9.70402 6.18505L10.299 6.03505L10.3 6.03005Z" fill="black"/>
<path d="M10.36 6.26004C10.74 6.16004 11.124 6.38004 11.224 6.74504C11.324 7.11004 11.104 7.48504 10.724 7.58504L10.129 7.74004C9.95005 7.78805 9.75941 7.7642 9.5978 7.67358C9.43618 7.58297 9.31639 7.43276 9.264 7.25504C9.24151 7.16705 9.23661 7.07548 9.24958 6.98559C9.26255 6.89571 9.29314 6.80926 9.3396 6.73122C9.38605 6.65318 9.44745 6.58508 9.52028 6.53082C9.59311 6.47656 9.67594 6.43722 9.764 6.41504L10.364 6.26004H10.36Z" fill="#F0EFF4"/>
<path d="M15.93 9.20004C16.0337 9.11915 16.1531 9.06067 16.2805 9.02831C16.408 8.99594 16.5408 8.99039 16.6705 9.01201C16.8002 9.03363 16.9241 9.08195 17.0341 9.15391C17.1442 9.22587 17.2382 9.3199 17.31 9.43004C17.63 9.90004 17.535 10.555 17.09 10.9L16.57 11.3C16.4661 11.3805 16.3468 11.4386 16.2194 11.4707C16.092 11.5028 15.9593 11.5083 15.8297 11.4867C15.7002 11.4651 15.5764 11.4169 15.4663 11.3452C15.3562 11.2735 15.2622 11.1798 15.19 11.07C15.0339 10.8427 14.9698 10.5645 15.0106 10.2917C15.0514 10.0189 15.1941 9.77176 15.41 9.60004L15.93 9.20004Z" fill="black"/>
<path d="M16.075 9.41504C16.1529 9.35554 16.2422 9.31271 16.3373 9.28922C16.4325 9.26572 16.5315 9.26207 16.6281 9.27849C16.7247 9.29491 16.8169 9.33104 16.899 9.38464C16.981 9.43824 17.0512 9.50816 17.105 9.59004C17.345 9.94004 17.275 10.426 16.945 10.68L16.425 11.08C16.3477 11.1404 16.2587 11.184 16.1636 11.2082C16.0686 11.2324 15.9695 11.2367 15.8728 11.2207C15.776 11.2047 15.6836 11.1689 15.6014 11.1154C15.5191 11.0619 15.4489 10.992 15.395 10.91C15.2793 10.7417 15.2315 10.5358 15.2612 10.3337C15.2908 10.1315 15.3958 9.94806 15.555 9.82004L16.075 9.42004V9.41504Z" fill="#F0EFF4"/>
<path d="M8.09401 15.11C8.20654 15.0513 8.3296 15.0155 8.45608 15.0046C8.58255 14.9937 8.70992 15.0081 8.83082 15.0467C8.95172 15.0854 9.06375 15.1477 9.16042 15.23C9.25709 15.3123 9.33648 15.4129 9.39401 15.526C9.5089 15.7547 9.52981 16.0192 9.45226 16.263C9.37471 16.5069 9.20486 16.7107 8.97901 16.831L7.90401 17.391C7.73437 17.4799 7.54208 17.516 7.35176 17.4949C7.16144 17.4738 6.98175 17.3964 6.83569 17.2726C6.68963 17.1487 6.58385 16.9841 6.53189 16.7998C6.47992 16.6155 6.48414 16.4199 6.54401 16.238C6.6222 15.9942 6.79269 15.7907 7.01901 15.671L8.09401 15.11Z" fill="black"/>
<path d="M8.21001 15.331C8.56001 15.146 8.99001 15.281 9.17501 15.641C9.35501 15.991 9.22001 16.426 8.86501 16.611L7.79001 17.171C7.70648 17.215 7.61503 17.2418 7.52102 17.2499C7.427 17.2581 7.3323 17.2474 7.24245 17.2186C7.1526 17.1897 7.0694 17.1432 6.99773 17.0818C6.92605 17.0204 6.86734 16.9454 6.82501 16.861C6.78167 16.777 6.7553 16.6852 6.74742 16.591C6.73954 16.4968 6.7503 16.4019 6.77909 16.3118C6.80788 16.2218 6.85413 16.1382 6.9152 16.066C6.97627 15.9938 7.05096 15.9344 7.13501 15.891L8.21001 15.331Z" fill="#F1DF73"/>
</svg>
