<svg width="43" height="44" viewBox="0 0 43 44" fill="none" xmlns="http://www.w3.org/2000/svg">
<g clip-path="url(#clip0_1_178)">
<path d="M7.78784 26.3383C8.21249 25.3578 8.54803 24.2823 8.30144 23.4726C8.05485 22.6629 9.56944 20.3665 10.0801 20.3927C10.5916 20.4203 10.8648 19.92 10.7391 19.2388C10.6133 18.5577 12.1146 15.8374 12.872 15.8168C13.6293 15.7962 14.4016 14.896 14.5185 14.3361C14.6355 13.7762 17.0926 12.1958 17.7103 12.5466C18.328 12.8974 18.7463 12.5016 19.1754 11.9065C19.6047 11.3102 21.4105 10.2301 21.9484 10.5783C22.4867 10.9272 23.2922 10.8678 23.6542 10.4637C24.0163 10.0596 25.9981 9.44588 26.2193 10.2001C26.4412 10.9539 27.1366 11.1663 27.7166 10.7614C28.2964 10.3576 30.1282 10.9309 30.2144 11.3026C30.3006 11.6743 30.9416 11.7992 31.4668 11.726C31.992 11.6529 33.117 13.2384 32.2398 14.3671C31.3627 15.4959 13.9842 28.5451 11.5587 27.8326C9.13325 27.1201 7.78784 26.3383 7.78784 26.3383Z" fill="#FFD983"/>
<path d="M21.5004 17.0073C23.1558 20.4517 22.8386 24.1593 21.4794 24.7939C20.1202 25.4285 17.6757 23.1514 16.0203 19.707C14.3657 16.264 13.8522 13.6434 15.5321 12.6013C17.38 11.4549 19.8451 13.5648 21.5004 17.0073Z" fill="#FFD983"/>
<path d="M25.3392 14.9838C26.9947 18.4283 26.6774 22.1358 25.3182 22.7704C23.959 23.405 21.5146 21.1279 19.8591 17.6835C18.2046 14.2405 18.5269 12.5875 19.798 11.0609C21.4491 9.08002 23.6847 11.5408 25.3392 14.9838Z" fill="#FFD983"/>
<path d="M28.1459 15.884C28.8341 19.6186 28.3248 22.8015 27.0075 22.996C25.6909 23.19 24.3999 20.2556 23.3765 16.5885C22.0051 11.6783 23.7254 9.74766 25.0428 9.55317C26.3582 9.35885 27.4581 12.1502 28.1459 15.884Z" fill="#FFD983"/>
<path d="M30.0727 17.1746C29.5728 20.8852 28.0904 23.691 26.7623 23.4429C25.4341 23.1949 24.7622 19.9877 25.2618 16.2783C25.7614 12.5689 27.5906 10.264 28.9213 10.1605C30.7614 10.0167 30.5723 13.4652 30.0727 17.1746Z" fill="#FFD983"/>
<path d="M31.1409 19.063C28.6832 21.7579 25.7612 23.0512 24.6144 21.9495C23.4686 20.8493 24.5288 17.7719 26.9865 15.077C29.4429 12.3819 31.8531 10.7273 33.5129 12.1906C34.7041 13.2395 33.5985 16.3682 31.1409 19.063ZM18.2709 18.2155C15.3618 15.7634 12.3305 14.9634 11.1122 16.6268C9.78935 18.4321 11.1182 21.3291 14.0268 23.7805C16.934 26.2328 20.8192 26.5471 21.6434 25.5044C22.4676 24.4616 21.179 20.6662 18.2709 18.2155Z" fill="#FFD983"/>
<path d="M15.2075 21.7234C11.6868 20.4368 8.64879 19.5177 8.11027 21.729C7.5766 23.9222 9.99084 26.4868 13.5111 27.7726C17.0303 29.0601 20.4578 27.6748 20.8571 26.3852C21.2566 25.0975 18.7277 23.0092 15.2075 21.7234Z" fill="#FFD983"/>
<path d="M13.3612 24.054C7.45665 24.7618 7.31087 26.7575 7.59692 28.1093C7.88181 29.4608 11.5241 30.722 15.1276 30.089C18.7311 29.458 21.4212 27.8473 21.1363 26.4958C20.8519 25.145 17.0007 23.6183 13.3612 24.054Z" fill="#FFD983"/>
<path d="M37.2194 18.487C39.6056 22.3335 34.8467 27.193 27.922 31.4888C20.9973 35.7846 13.4671 37.3423 11.0809 33.4959C8.69475 29.6494 10.7347 19.2415 17.6594 14.9458C24.5833 10.6504 34.8327 14.6398 37.2194 18.487Z" fill="#FFD983"/>
<path d="M22.2254 20.3631C23.5681 22.5275 24.2665 24.5229 23.7857 24.8212C23.3049 25.1195 21.8273 23.6074 20.4846 21.443C19.142 19.2786 18.444 17.2839 18.9248 16.9856C19.4056 16.6873 20.8832 18.1994 22.2254 20.3631ZM25.5138 18.0925C27.0231 19.6962 27.9404 21.2831 27.5646 21.6376C27.1877 21.9917 25.6604 20.9798 24.1499 19.3758C22.6411 17.7728 21.7226 16.1855 22.0996 15.8314C22.4765 15.4772 24.0038 16.4892 25.5138 18.0925ZM28.404 16.5231C29.9615 17.5063 31.0002 18.6569 30.7251 19.0943C30.4487 19.5315 28.9631 19.0894 27.4044 18.1059C25.8468 17.1227 24.8081 15.9721 25.0833 15.5347C25.3596 15.0975 26.8462 15.5411 28.404 16.5231ZM18.5828 22.5025C19.3283 24.7485 19.5497 26.6959 19.0751 26.8539C18.6006 27.012 17.6116 25.3191 16.8646 23.074C16.1183 20.8284 16.1897 19.1767 16.6647 19.0194C17.14 18.8609 17.837 20.2576 18.5828 22.5025ZM15.6205 24.7152C15.8634 26.5099 15.647 28.02 15.1337 28.0897C14.6211 28.159 14.0091 26.7618 13.765 24.9668C13.5209 23.1718 13.966 21.919 14.4786 21.8497C14.9911 21.7804 15.3773 22.9217 15.6205 24.7152Z" fill="#FFAC33"/>
<path d="M13.2111 16.6173C13.8542 16.823 14.2817 17.344 14.1664 17.7805C14.0504 18.2175 13.4349 18.4038 12.7919 18.198C12.1488 17.9923 11.7213 17.4713 11.8366 17.0348C11.9518 16.5982 12.568 16.4115 13.2111 16.6173ZM10.1377 21.9955C10.6705 22.4291 10.8844 23.0665 10.6153 23.42C10.3462 23.7734 9.69664 23.7091 9.1639 23.2755C8.63117 22.8418 8.41724 22.2044 8.68633 21.851C8.95542 21.4975 9.60546 21.5626 10.1377 21.9955ZM9.81206 27.1151C10.5491 27.2315 11.1081 27.693 11.0597 28.1451C11.0113 28.5973 10.3743 28.8702 9.63659 28.7542C8.89955 28.6379 8.34053 28.1764 8.38893 27.7242C8.43732 27.272 9.07503 26.9988 9.81206 27.1151ZM17.0351 13.3947C17.6782 13.6004 18.1056 14.1214 17.9904 14.5579C17.8744 14.9949 17.2589 15.1812 16.6158 14.9754C15.9728 14.7697 15.5453 14.2487 15.6606 13.8122C15.7758 13.3756 16.3916 13.1882 17.0351 13.3947Z" fill="#FFCC4D"/>
<path d="M22.3239 13.2955C22.7546 12.9932 22.7382 12.2273 22.2874 11.5847C21.8365 10.9422 21.1218 10.6662 20.6911 10.9684C20.2604 11.2706 20.2768 12.0365 20.7276 12.6791C21.1785 13.3217 21.8932 13.5977 22.3239 13.2955Z" fill="#FFCC4D"/>
<path d="M26.1323 11.2157C26.5959 11.7254 26.7105 12.3853 26.3894 12.6888C26.0682 12.9923 25.4317 12.8246 24.9681 12.315C24.5046 11.8054 24.39 11.1454 24.7111 10.8419C25.0323 10.5384 25.6688 10.7061 26.1323 11.2157ZM29.9691 12.2811C30.0352 12.926 29.7286 13.4712 29.2834 13.4987C28.8382 13.5262 28.4233 13.0255 28.3564 12.3811C28.2903 11.7362 28.5969 11.191 29.0421 11.1635C29.4873 11.136 29.9025 11.6355 29.9691 12.2811ZM33.3351 14.0136C33.2743 14.5848 32.8158 14.9836 32.3114 14.9044C31.807 14.8252 31.4481 14.2967 31.5094 13.7263C31.5709 13.1546 32.0287 12.7563 32.5331 12.8355C33.0375 12.9147 33.3959 13.4424 33.3351 14.0136Z" fill="#FFCC4D"/>
</g>
<defs>
<clipPath id="clip0_1_178">
<rect width="30.6767" height="30.6767" fill="white" transform="translate(0.607666 17.0966) rotate(-31.8137)"/>
</clipPath>
</defs>
</svg>
