<svg width="39" height="39" viewBox="0 0 39 39" fill="none" xmlns="http://www.w3.org/2000/svg">
<g clip-path="url(#clip0_1_164)">
<path d="M11.0148 13.4265L8.37402 15.2162L7.45242 18.2233C7.45242 18.2233 8.12328 22.5454 9.2116 23.7272C10.7618 25.4131 12.5182 27.1048 18.0956 27.8906C19.7043 28.1182 19.6455 28.9429 18.3522 29.4832C17.5209 29.8309 15.4259 30.0117 15.4259 30.0117C13.2621 30.9933 13.0023 31.8776 13.0566 32.57C13.1109 33.2624 13.4869 35.0487 17.4416 35.778C20.5253 36.348 24.6053 35.633 26.3061 34.3778C28.0172 33.1136 28.0409 31.8419 27.9841 31.3279C27.9301 30.8494 27.5366 29.9587 26.5791 29.5703C26.1428 29.3933 25.0273 29.9635 24.0781 29.7856C22.9422 29.5703 22.0148 28.5871 22.0148 28.5871C22.0148 28.5871 21.9513 27.7774 22.0899 27.6569C22.2286 27.5363 25.6267 27.0448 27.9981 24.8621C30.3694 22.6794 31.5314 19.659 31.3392 17.2083C31.1469 14.7576 30.3779 14.22 30.3779 14.22L27.3954 12.5614L11.0148 13.4265Z" fill="#6FA3B0"/>
<path d="M20.5249 27.8811C20.5249 27.8811 20.5525 29.072 20.6844 29.495C20.8161 29.9153 21.3679 30.6208 21.2485 30.9868C21.1157 31.3921 20.4027 31.5687 19.3352 31.4906C17.6277 31.3667 18.2281 30.3844 18.0255 30.669C17.5908 31.2819 18.7816 32.2307 20.4557 32.0692C21.9883 31.9216 22.735 31.2651 22.7104 30.8474C22.6871 30.4104 22.3473 30.2039 22.1954 29.7358C22.0433 29.265 22.0093 28.5875 22.0093 28.5875C22.0093 28.5875 27.4926 28.6292 27.7079 30.9546C27.9232 33.2801 25.3449 34.9222 20.5519 35.2186C17.3775 35.4155 13.2886 34.7241 13.1364 32.3635C12.9842 30.003 18.2303 28.9086 18.2303 28.9086L18.4443 28.8753L18.4029 28.3465C18.3924 28.2129 18.3542 27.9361 18.3542 27.9361C18.3542 27.9361 18.8583 27.9981 19.4209 27.9677C19.9974 27.9389 20.5249 27.8811 20.5249 27.8811Z" fill="#B9CED3"/>
<path d="M15.499 22.3756L10.0931 20.9427L7.60913 17.4238L7.14598 16.3795C7.14598 16.3795 6.4346 18.7447 7.59946 21.4619C8.76432 24.1792 12.8624 27.6455 19.7183 27.1078C26.3533 26.5874 29.0753 23.1045 29.8289 21.6274C31.3242 18.6961 31.0559 15.9743 31.0559 15.9743L30.099 17.5881L28.1394 19.7742L25.2292 21.382L20.306 22.5718L15.499 22.3756Z" fill="#BBCED3"/>
<path d="M8.48253 21.2857C8.16401 21.4561 8.91291 23.1362 10.824 24.4921C12.7351 25.848 14.7742 26.4588 14.9764 26.1687C15.1783 25.8758 12.6283 24.7319 11.6546 23.9964C10.0278 22.769 8.86684 21.08 8.48253 21.2857ZM18.0143 30.7357C18.1581 31.38 18.8646 31.3657 19.0345 31.2591C19.1887 31.162 19.3208 30.1533 19.2718 29.529C19.2229 28.9048 18.9711 28.2471 18.6919 28.2196C18.4127 28.1921 18.6556 29.3305 18.5371 29.743C18.4211 30.1525 17.956 30.4825 18.0143 30.7357Z" fill="#FFFFFD"/>
<path d="M19.8403 23.0691C19.7122 23.0792 19.5841 23.0892 19.4558 23.0965C13.1787 23.4956 10.2341 21.8313 8.75797 20.4961C7.70985 19.5471 7.10211 18.4428 7.05641 17.1956C6.9401 14.0341 11.5155 12.6412 11.7052 12.577L11.9925 13.4075C11.9525 13.4216 8.20293 14.9581 8.28803 17.302C8.32362 18.2455 8.69645 18.9074 9.52007 19.6519C11.3859 21.3405 15.0309 22.2121 19.632 21.917C26.9822 21.4557 29.9415 17.8528 29.916 15.954C29.8926 14.291 27.5796 12.7774 25.4387 12.3721L25.4828 11.4662C28.0442 11.951 30.8973 13.4634 31.0581 15.7575C31.2654 18.6458 27.7594 22.448 19.8403 23.0691Z" fill="#DFEEF5"/>
<path d="M12.976 12.3786L11.705 12.5743C11.705 12.5743 11.2725 11.6756 11.7038 11.0905C12.1352 10.5054 12.8769 10.5213 12.8769 10.5213C12.8769 10.5213 12.4631 8.25253 13.6587 6.15105C14.8543 4.04957 16.7776 2.62334 20.06 3.1037C23.5643 3.61603 24.851 6.90792 24.851 6.90792L24.4693 10.2594L18.5745 13.3986L12.976 12.3786Z" fill="#FEA9A6"/>
<path d="M16.4205 12.443C16.4205 12.443 17.4665 12.6654 18.3898 11.954C18.9873 11.4929 19.0732 11.0144 19.0732 11.0144C19.0732 11.0144 21.1456 11.1399 22.4894 9.98402C23.8332 8.82814 24.587 6.37458 24.587 6.37458C24.587 6.37458 25.1357 7.28602 25.3826 8.58045C25.5676 9.53963 25.4634 10.1347 25.4634 10.1347C25.4634 10.1347 26.2536 9.85883 26.7861 10.8429C27.2965 11.7902 26.8247 12.5596 26.8247 12.5596L17.1684 14.3208L16.4205 12.443ZM21.4017 7.16747C21.176 7.12209 21.008 7.35743 20.9968 7.56402C20.9826 7.7681 21.0457 8.01274 21.3255 8.04839C21.6053 8.08405 21.6982 7.79974 21.7113 7.58203C21.7242 7.3616 21.6107 7.20868 21.4017 7.16747ZM16.8179 7.40356C16.5783 7.35652 16.4004 7.60635 16.3873 7.82406C16.3742 8.04177 16.4374 8.32206 16.7375 8.33692C17.0542 8.35323 17.171 8.05882 17.1537 7.83801C17.1355 7.6063 17.0382 7.44937 16.8179 7.40356ZM23.1054 5.45949C22.8859 5.35329 22.718 5.52005 22.6234 5.64267C22.5315 5.76507 22.4936 6.08621 22.6991 6.18803C22.9215 6.29675 23.1319 6.14586 23.2172 5.9746C23.3165 5.77207 23.2738 5.54229 23.1054 5.45949ZM17.8262 5.32774C17.6557 5.18203 17.4245 5.24131 17.2824 5.45816C17.1527 5.65758 17.1948 5.91484 17.3347 6.01907C17.5471 6.1752 17.8117 5.98166 17.8947 5.81606C17.9899 5.63032 17.9527 5.43576 17.8262 5.32774ZM15.3151 8.80505C15.109 8.69505 14.8816 8.80339 14.7773 9.04745C14.6799 9.27451 14.7734 9.52225 14.9411 9.59687C15.1912 9.7089 15.4463 9.46399 15.4812 9.28023C15.5166 9.10191 15.4668 8.8864 15.3151 8.80505Z" fill="#FE7C84"/>
<path d="M20.1664 13.5179C20.16 13.4361 21.7404 11.6253 24.321 11.6204C27.4663 11.6124 28.7649 13.7623 28.7649 13.7623L28.7915 16.3741L26.8294 19.3338C26.8294 19.3338 24.1214 20.3718 24.0233 20.3795C23.9252 20.3872 20.1944 21.0089 20.1944 21.0089L18.9275 14.7533L20.1664 13.5179Z" fill="#FFEBCA"/>
<path d="M20.5758 20.4168C20.6124 20.4633 25.0264 20.0896 27.0092 17.5342C29.0372 14.9258 28.3642 13.2342 28.3844 13.282C28.4046 13.3298 29.0519 13.9236 29.4792 15.245C29.7467 16.0688 29.7341 16.8871 29.7341 16.8871C29.7341 16.8871 28.9735 19.0093 26.1293 20.3734C22.7563 21.9901 19.4502 21.9066 19.4502 21.9066L20.5758 20.4168Z" fill="#EAC183"/>
<path d="M25.3927 15.4585C25.1751 15.3412 24.9429 15.4938 24.8108 15.7318C24.6786 15.9698 24.7356 16.2424 24.9687 16.3475C25.1904 16.4453 25.4418 16.294 25.5427 16.042C25.6165 15.8634 25.6246 15.583 25.3927 15.4585Z" fill="#EAC183"/>
<path d="M19.1336 20.667L21.1711 18.7738L20.8712 15.4758L21.7724 13.817C21.7724 13.817 21.5949 12.882 20.7906 12.594C19.9836 12.3062 19.1705 12.9898 19.1705 12.9898C19.1705 12.9898 16.913 10.8191 13.693 11.5543C10.6941 12.2394 9.46554 14.2008 8.99555 15.5871C8.61909 16.6973 8.96059 18.5685 8.96059 18.5685L10.7736 20.1076C10.7736 20.1076 15.3003 21.0307 15.926 21.1051C16.5517 21.1794 19.1336 20.667 19.1336 20.667Z" fill="#865C50"/>
<path d="M15.192 19.4402C15.192 19.4402 17.4538 20.4422 18.9508 19.6309C20.4478 18.8195 20.719 17.4159 20.5756 16.7771C20.4323 16.1383 20.2351 15.5833 20.2351 15.5833C20.2351 15.5833 20.8574 15.0545 21.171 14.506C21.4845 13.9576 21.4354 13.0865 21.4354 13.0865C21.4354 13.0865 22.103 13.835 22.0239 15.1001C21.9619 16.0924 21.3983 16.6358 21.3983 16.6358C21.3983 16.6358 22.3029 17.363 22.0221 18.8881C21.7624 20.299 20.5032 20.7845 20.5032 20.7845C20.5032 20.7845 20.6624 21.0655 20.649 21.349C20.6355 21.6326 20.5543 21.8557 20.5543 21.8557C20.5543 21.8557 16.3138 22.4131 13.1517 21.4735C9.83484 20.483 9.05018 19.1512 9.05018 19.1512C9.05018 19.1512 8.9057 18.3232 8.94061 18.3836C8.97551 18.4439 10.5774 19.8789 12.457 19.9948C14.3367 20.1107 15.192 19.4402 15.192 19.4402Z" fill="#6C4D42"/>
<path d="M12.7902 16.5841C12.5397 16.398 12.2128 16.5663 12.0812 16.7768C11.9693 16.9584 11.9033 17.3064 12.1444 17.4768C12.4347 17.6817 12.7108 17.4598 12.8261 17.2862C12.9462 17.104 13.0117 16.7505 12.7902 16.5841ZM13.0104 13.9009C12.8202 14.2394 13.0595 14.5278 13.2207 14.5893C13.4385 14.6736 13.7208 14.5308 13.8188 14.2763C13.9167 14.0218 13.921 13.7609 13.6385 13.6212C13.3793 13.4989 13.1208 13.7002 13.0104 13.9009ZM16.6243 16.4397C16.3061 16.3001 16.1127 16.5621 16.0262 16.7527C15.9397 16.9432 15.9123 17.2937 16.2441 17.4323C16.5758 17.5708 16.8054 17.2456 16.8497 17.1105C16.9319 16.8654 16.9082 16.5628 16.6243 16.4397Z" fill="#6C4D42"/>
</g>
<defs>
<clipPath id="clip0_1_164">
<rect width="35" height="35" fill="white" transform="translate(0.685303 3.42194) rotate(-4.48461)"/>
</clipPath>
</defs>
</svg>
