<svg width="30" height="31" viewBox="0 0 30 31" fill="none" xmlns="http://www.w3.org/2000/svg">
<g clip-path="url(#clip0_1_228)">
<path d="M19.724 17.9617C19.724 17.9617 18.383 18.4914 14.5181 17.9246C10.6532 17.3577 9.55934 16.4708 9.55934 16.4708L19.724 17.9617Z" fill="#B17F4A"/>
<path d="M21.712 14.9053L20.9582 17.353C20.7926 18.2131 18.1487 18.2044 14.593 17.6828C11.0373 17.1613 8.50221 16.4105 8.59054 15.5391L8.57137 12.978L21.712 14.9053Z" fill="#FFC861"/>
<path d="M21.2579 16.3863C21.2579 16.3863 19.6647 17.2897 14.7562 16.5697C9.84781 15.8498 8.57414 14.3049 8.57414 14.3049L21.2579 16.3863Z" fill="#B17F4A"/>
<path d="M21.0931 7.55012C24.2237 8.00927 26.7602 12.5188 22.4714 15.1114C22.1676 17.183 18.6118 16.6615 14.7856 16.1003C9.52932 15.3294 8.00563 13.8741 8.00563 13.8741L21.0931 7.55012Z" fill="#FFE0B5"/>
<path d="M8.86613 10.9682C8.60899 10.2988 8.42657 8.85076 9.38331 7.98039C10.6514 6.87142 12.0836 6.79721 13.4201 6.29838C14.1748 5.99847 15.4839 5.14819 13.9967 3.98253C13.9967 3.98253 17.6994 2.69372 20.0466 5.53313C20.7153 6.35764 21.0316 7.16206 21.1296 7.8397C25.8612 9.76546 24.1089 16.8676 17.0901 14.3853C23.0261 15.098 22.9333 10.3467 21.1661 8.12931C21.271 9.02906 21.0257 9.62477 21.0257 9.62477C21.6562 11.5175 20.4885 13.5572 18.3517 14.1282C17.938 14.257 17.4948 14.3183 17.0515 14.3796C17.0515 14.3796 19.6368 15.8643 21.9372 15.2541C20.3055 16.6888 18.0157 15.3423 16.7358 15.1861C15.3399 15.013 15.6199 16.0647 12.5028 14.9759C10.2132 14.1663 9.52873 13.7185 7.92836 13.8628C7.96701 13.8684 5.93613 11.8334 8.86613 10.9682Z" fill="#8F6453"/>
<path d="M13.9967 3.98255C21.9145 3.56463 21.9265 11.0203 16.7959 11.8154C15.9275 11.8144 15.1204 11.6644 14.3223 11.4526C19.4691 11.3547 20.5763 5.42133 15.9064 4.42058C19.7562 6.97502 16.6003 11.5341 12.001 10.8595C16.0948 9.59645 17.212 6.28603 15.0063 4.63598C16.8063 9.32179 10.7904 7.80778 8.90477 10.9739C8.66886 6.39116 15.9331 8.81471 13.9967 3.98255Z" fill="#FFE0B5"/>
<path d="M21.0553 9.69229C20.2512 11.4062 17.8783 12.5111 15.3274 12.137C12.5833 11.7345 10.4596 10.6018 7.99833 12.5781C11.0307 11.8226 12.5406 12.8337 15.246 13.2305C18.4539 13.701 21.3085 12.0035 21.0553 9.69229Z" fill="#FFE0B5"/>
</g>
<path fill-rule="evenodd" clip-rule="evenodd" d="M23.677 16.6362C23.658 16.8347 23.5984 17.0682 23.4791 17.5373L22.5227 21.2948C22.1481 22.7662 21.3083 24.0507 20.1626 24.9043C19.017 25.7579 17.6453 26.1212 16.308 25.9252L12.7322 25.4008C11.6817 25.2459 10.7037 24.7534 9.91539 23.9823C9.12712 23.2113 8.56209 22.1944 8.28804 21.0536L6.14596 20.7394C5.16192 20.5951 4.28269 20.0169 3.70168 19.1321C3.12068 18.2472 2.88549 17.1282 3.04785 16.0212C3.21022 14.9141 3.75684 13.9098 4.56747 13.229C5.3781 12.5483 6.38633 12.2469 7.37036 12.3912L9.62524 12.722C9.83313 12.631 10.0519 12.5785 10.2726 12.5668C10.4497 12.5586 10.6634 12.59 11.0888 12.6524L21.543 14.1856C21.9684 14.248 22.1812 14.2792 22.3484 14.3379C22.7731 14.4897 23.135 14.7989 23.3756 15.2158C23.6163 15.6327 23.7217 16.1329 23.675 16.636M8.37313 14.2439C8.36078 14.2913 8.34975 14.339 8.34004 14.3868C8.30125 14.5824 8.29022 14.823 8.26982 15.3066L8.10694 19.1805L8.10253 19.3208L6.39084 19.0698C5.80042 18.9832 5.27288 18.6363 4.92428 18.1054C4.57567 17.5745 4.43456 16.9031 4.53198 16.2388C4.6294 15.5746 4.95737 14.972 5.44374 14.5635C5.93012 14.1551 6.53506 13.9743 7.12548 14.0609L8.37313 14.2439Z" fill="#D7CCBC"/>
<defs>
<clipPath id="clip0_1_228">
<rect width="25" height="20" fill="white" transform="matrix(-0.989415 -0.145114 -0.145114 0.989415 29.6763 5.01886)"/>
</clipPath>
</defs>
</svg>
