<svg width="30" height="18" viewBox="0 0 30 18" fill="none" xmlns="http://www.w3.org/2000/svg">
<path d="M29.6086 10.8886C29.6086 12.5058 25.1156 14.4506 15 14.4506C3.4172 14.4506 0.391418 12.5058 0.391418 10.8886" fill="#A4B5BE"/>
<path d="M15 13.6181C23.0681 13.6181 29.6086 12.3665 29.6086 10.8225C29.6086 9.27852 23.0681 8.02687 15 8.02687C6.93191 8.02687 0.391418 9.27852 0.391418 10.8225C0.391418 12.3665 6.93191 13.6181 15 13.6181Z" fill="#F6F6F6"/>
<path d="M15 8.32922C23.3133 8.32922 29.1047 9.64406 29.1047 10.8225C29.1047 12.0009 23.3133 13.3158 15 13.3158C6.68673 13.3158 0.895325 12.0023 0.895325 10.8225C0.895325 9.64266 6.68673 8.32922 15 8.32922ZM15 8.02687C6.93048 8.02687 0.391418 9.27844 0.391418 10.8225C0.391418 12.3666 6.93048 13.6181 15 13.6181C23.0695 13.6181 29.6086 12.3666 29.6086 10.8225C29.6086 9.27844 23.0695 8.02687 15 8.02687Z" fill="#E4E7E9"/>
<path d="M4.14845 10.3331C3.20861 11.1319 3.91642 11.5313 6.12189 11.8828C7.5633 12.112 10.0453 12.5353 11.9813 12.6239C16.4297 12.8278 20.686 12.3159 21.9141 12.1289C23.5711 11.8772 26.768 11.6016 26.2781 10.582C24.8086 8.74688 19.4789 10.5736 16.9266 10.6692C12.5742 10.8323 8.37189 10.9575 4.14845 10.3331Z" fill="#9C9C9F"/>
<path d="M11.4328 7.46156C9.02108 7.63735 8.4328 7.89188 6.98202 8.15625C5.74921 8.38125 3.32812 8.60766 3.24843 9.23484C3.15468 9.96188 4.02187 10.7269 4.42968 10.9069C6.29765 11.7338 8.78202 11.6578 10.0336 11.797C11.1633 11.9222 13.4742 12.0755 16.05 11.9841C17.6039 11.9292 18.5695 11.9278 19.9172 11.7506C20.7047 11.648 22.8867 11.4258 23.4844 11.2725C24.2859 11.0686 25.8844 10.5666 25.5891 9.53438C25.418 8.9325 24.3398 9.01125 22.9078 8.39953C22.0875 8.04797 20.4984 7.91156 18.9984 7.71469C15.3773 7.24078 13.8422 7.28578 11.4328 7.46156Z" fill="#F5D385"/>
<path d="M11.4328 6.66563C9.0211 6.84141 8.475 6.795 7.02188 7.06078C5.78907 7.28578 3.45938 8.01281 3.23907 8.63156C3.04922 9.16313 3.27657 9.67641 3.60235 9.89156C4.37578 10.402 4.76485 10.3838 5.84063 10.575C6.86953 10.7578 7.80235 10.7775 9.03282 10.9125C10.1625 11.0377 13.4531 11.2795 16.0289 11.1881C17.5828 11.1333 19.3406 11.0798 20.707 10.98C21.6094 10.9139 22.9453 10.9097 24.2156 10.6523C25.0102 10.4906 25.7742 10.3092 25.5492 9.26578C25.418 8.65125 24.3867 8.23641 22.9078 7.6036C22.0875 7.25203 20.4984 7.11563 18.9984 6.91875C15.3773 6.44344 13.8422 6.48985 11.4328 6.66563Z" fill="#B95930"/>
<path d="M11.4328 6.31266C9.0211 6.48844 8.43282 6.74297 6.98203 7.00734C5.74922 7.23234 3.83203 7.94813 3.4875 8.55C3.27656 8.91984 3.46641 9.24328 3.67969 9.50906C3.99844 9.90422 4.68281 9.99141 5.67422 10.1616C6.68203 10.3345 7.61953 10.4555 8.87344 10.5947C10.0031 10.7198 13.4859 10.9856 16.0617 10.8942C17.6156 10.8394 19.6594 10.6706 21.0281 10.582C21.8016 10.5314 23.7586 10.4836 24.3563 10.3317C26.2102 9.85922 25.4297 8.32922 22.9078 7.25063C22.0875 6.89906 20.4984 6.76266 18.9984 6.56578C15.3773 6.09047 13.8422 6.13688 11.4328 6.31266Z" fill="#E5892F"/>
<path d="M4.97813 8.43047C3.7711 9.13781 6.67032 9.79875 7.41329 9.91406C10.7227 10.4287 14.3367 10.5834 17.7469 10.4681C19.1414 10.4217 23.993 10.3191 24.9399 9.65109C25.7438 9.08437 24.7406 8.45016 24.5742 8.29266C24.368 8.09437 21.4406 8.65406 21.0656 8.68359C15.7172 9.09844 10.3172 8.21953 4.97813 8.43047Z" fill="#CC7B32"/>
<path d="M18.3867 5.66438C20.8312 5.87109 21.4195 6.13125 22.8867 6.41531C24.1312 6.65578 25.9219 6.73453 25.9805 7.36172C26.0484 8.08875 25.5445 8.57813 25.1719 8.78063C23.4609 9.71297 20.8594 9.79313 19.582 9.91547C18.4289 10.0252 16.1484 10.2375 13.5352 10.1123C11.9578 10.0378 10.9758 10.0223 9.61406 9.82969C8.81718 9.71719 7.08515 9.51609 6.48515 9.35719C5.54062 9.10547 4.07343 8.59641 4.27968 7.48266C4.39218 6.87797 5.21484 7.0425 6.69375 6.45047C7.53984 6.11156 9.16172 5.99625 10.6922 5.81906C14.3859 5.39297 15.9422 5.45906 18.3867 5.66438Z" fill="#F5D385"/>
<path d="M18.4148 4.86984C20.8594 5.07656 21.4477 5.33672 22.9148 5.62078C24.1594 5.86125 25.7133 6.23391 25.9148 6.85266C26.0883 7.38422 25.9945 7.75688 25.718 7.99875C25.2469 8.41219 24.7102 8.53031 23.993 8.72438C22.9781 9 21.8391 8.98875 20.5617 9.10969C19.4086 9.21937 16.1977 9.44438 13.5844 9.32062C12.007 9.24609 10.6992 9.19266 9.33515 9C8.53828 8.8875 6.9 8.79187 5.61797 8.51766C4.8164 8.34609 4.01015 8.10703 4.275 7.06922C4.42969 6.4575 5.05547 6.0525 6.5789 5.44078C7.425 5.10187 9.18515 5.20172 10.7156 5.02594C14.4141 4.59844 15.9703 4.66453 18.4148 4.86984Z" fill="#B95930"/>
<path d="M18.4266 4.51828C20.8711 4.725 21.2578 5.13562 22.7226 5.41969C23.9672 5.66016 25.2937 6.14531 25.6242 6.75C25.8258 7.12125 25.8656 7.33219 25.6781 7.60641C25.3125 8.13516 24.9726 8.22234 24.1781 8.415C23.1539 8.66531 22.4789 8.6625 21.1992 8.78344C20.0461 8.89312 16.1742 9.15047 13.5609 9.02531C11.9836 8.95078 9.88827 8.89031 8.52421 8.69766C7.72733 8.58516 6.01639 8.44594 5.46327 8.23078C3.91639 7.62891 4.12733 6.34781 6.72889 5.30437C7.57499 4.96547 9.19686 4.85016 10.7273 4.67297C14.4258 4.24547 15.9844 4.31156 18.4266 4.51828Z" fill="#E5892F"/>
<path d="M5.61329 6.48141C4.74845 7.36875 6.68908 7.73578 9.18048 8.16047C12.4641 8.72016 16.5305 8.5036 17.7375 8.42906C19.6008 8.31375 22.9547 8.27578 24.4524 7.48828C27.0961 6.10031 22.9828 5.63063 21.4195 5.68969C16.3945 5.88094 10.493 5.90203 5.61329 6.48141Z" fill="#CC7B32"/>
<path d="M11.9063 3.48047C9.55079 3.65625 8.97423 3.91078 7.55626 4.17516C6.35157 4.40016 4.56094 4.22719 4.4836 4.85578C4.39219 5.58281 4.94298 6.29297 5.28048 6.51797C6.79688 7.53469 9.39141 7.58813 10.6149 7.72734C11.7188 7.8525 13.9031 8.09438 16.4203 8.00297C17.9391 7.94813 18.8813 7.94672 20.1984 7.76953C20.9672 7.66688 22.7625 7.37438 23.3461 7.2225C24.1289 7.01859 25.6922 6.51656 25.4039 5.48438C25.2352 4.8825 24.5203 5.03156 23.1211 4.41844C22.3195 4.06688 20.7656 3.93047 19.3008 3.73359C15.7617 3.25828 14.2617 3.30469 11.9063 3.48047Z" fill="#F5D385"/>
<path d="M11.9062 2.68313C9.55078 2.85891 8.96719 2.94469 7.54922 3.21047C6.37734 3.42984 4.85391 3.51 4.56328 4.34531C4.37813 4.87688 4.55156 5.22 4.71328 5.49703C4.95234 5.90906 5.29688 6.15234 6.34219 6.42094C7.28906 6.66422 8.27344 6.68109 9.49922 6.81891C10.6031 6.94406 13.882 7.29703 16.3992 7.20563C17.918 7.15078 19.7836 6.97219 21.1008 6.795C21.8695 6.69234 22.8422 6.75984 24.082 6.5025C24.8578 6.34078 25.5844 6.25641 25.3664 5.21297C25.2375 4.59844 24.7617 3.98813 23.3156 3.35531C22.5141 3.00375 20.7656 3.13313 19.3008 2.93625C15.7617 2.46234 14.2617 2.50734 11.9062 2.68313Z" fill="#B95930"/>
<path d="M11.9063 2.33016C9.55078 2.50594 8.97422 2.76047 7.55625 3.02484C6.35156 3.24984 5.26406 3.54094 4.92891 4.14422C4.72266 4.51406 4.71563 4.87266 4.92656 5.13984C5.23828 5.535 4.97813 5.82328 6.02578 6.09187C6.97266 6.33516 7.7625 6.36328 8.98594 6.5025C10.0898 6.62766 13.9125 7.00312 16.4297 6.91172C17.9484 6.85687 19.9078 6.70641 21.225 6.52922C21.9938 6.42656 23.6156 6.43078 24.1992 6.27891C25.7859 5.86406 25.3734 4.25391 23.1211 3.26812C22.3195 2.91656 20.7656 2.78016 19.3008 2.58328C15.7617 2.10937 14.2617 2.15437 11.9063 2.33016Z" fill="#E5892F"/>
<path d="M9.64453 11.5073C9.0211 11.4525 8.30625 11.4947 7.5211 11.4019C7.08985 11.3512 6.21328 10.9125 6.37266 10.5075C6.4711 10.2628 5.88516 9.97453 6.44297 9.81844C6.74531 9.73406 7.23516 9.80297 7.42031 9.55687C7.45313 9.51187 7.08281 9.50062 6.95156 9.44156C6.42656 9.20109 7.63828 8.94094 7.47188 8.25047C7.44375 8.13375 7.16016 7.98469 7.12031 7.77094C7.0875 7.59656 8.08828 7.45594 7.19063 7.28297C7.02188 7.25062 6.75703 7.04391 6.91875 6.795C7.18828 6.38016 8.11172 6.53625 8.24297 6.00469C8.30625 5.74734 8.43985 5.66719 8.77735 5.6025C9.74297 5.41547 10.4602 5.67562 11.4984 5.92734C13.1297 6.32391 12.1359 6.37734 11.9133 6.83156C11.8102 7.0425 11.8734 7.25625 12.0844 7.41656C12.1969 7.50094 12.3773 7.875 12.1523 7.88344C11.8641 7.89469 11.9461 8.13375 11.8641 8.25047C11.7023 8.47969 11.318 8.50219 11.2758 8.77078C11.2219 9.11531 11.2477 9.23625 11.5688 9.50906C11.7633 9.675 11.7375 9.95203 11.5453 9.97453C11.2031 10.0139 11.4633 10.267 11.2547 10.4639C11.0602 10.6481 10.9523 10.8619 10.9922 11.0152C11.0578 11.2683 10.4672 11.5439 9.46172 11.4933C7.68985 11.4047 7.26328 12.9052 8.77266 13.1611C10.4906 13.4522 11.9602 13.4114 13.7367 13.3861C15.1664 13.3664 15.2742 13.4733 16.8562 13.3622C17.5617 13.313 18.6281 13.0852 18.6094 12.4875C18.5977 12.1275 17.0273 12.0108 15.4852 11.9053C14.9086 11.8659 14.5828 11.7127 14.6648 11.2837C14.7234 10.9758 14.8008 10.8028 14.5969 10.5792C14.4305 10.395 14.6578 10.215 14.3297 10.1053C14.2008 10.0617 14.2922 9.85359 14.4281 9.67359C14.5969 9.45422 15.0328 9.48937 15.1336 8.87344C15.1828 8.56687 14.8969 8.54578 14.6766 8.42766C14.4281 8.29547 14.4961 8.05922 14.2688 8.00578C14.0039 7.94391 14.1164 7.63875 14.3766 7.51078C14.7 7.35328 14.7773 6.91594 14.6086 6.74859C14.4797 6.62062 14.4844 6.43922 14.6813 6.35766C15.1734 6.15516 15.6633 6.31406 16.3078 6.23391C17.025 6.14531 18.375 5.92453 18.8438 6.31969C19.2797 6.68812 19.4227 6.78234 19.5094 7.22109C19.5398 7.37578 19.5844 7.74422 18.8367 7.90453C18.4875 7.97906 18.9047 8.22797 18.9586 8.31094C19.0805 8.49937 19.0313 8.69625 19.2305 8.92828C19.418 9.14766 19.7227 9.23906 19.8164 9.56109C19.868 9.73828 19.4789 9.91266 19.3711 9.93516C18.7383 10.0645 19.6055 10.2572 19.4086 10.5033C19.1086 10.8759 20.5641 11.5762 19.8258 11.7605C19.2961 11.8927 18.7758 12.2147 18.8859 12.465C19.0992 12.9516 20.1187 12.7125 20.857 12.6675C21.3188 12.6394 22.3125 12.6267 23.3625 12.4608C23.5828 12.4256 24.2016 12.3947 25.3102 12.2189C25.7484 12.15 26.707 11.9419 26.9953 11.8195C27.4031 11.6466 28.0898 11.3906 28.0453 11.1192C27.9961 10.8211 27.0844 10.4048 26.257 10.2994C26.0719 10.2755 25.5469 10.1841 25.3758 10.3697C25.1742 10.5862 24.7969 10.5933 24.3281 10.627C23.6836 10.6734 24.2109 10.035 23.5219 9.94641C23.1703 9.95344 22.3078 9.76641 22.6266 9.60187C22.9688 9.42469 23.0484 9.26437 23.3789 8.99859C23.7703 8.68359 23.7305 8.28703 23.0555 8.02125C22.7461 7.89891 22.2164 7.84547 21.9563 7.59656C21.7664 7.41656 22.4414 7.31109 22.3969 6.85406C22.3781 6.66 21.8836 6.33516 21.9281 6.15094C22.0289 5.74312 22.7039 5.57016 22.8797 5.34234C23.1563 4.98656 23.3063 4.86422 23.9766 4.65891C24.3398 4.54781 24.3773 4.43953 24.6797 4.40297C24.8133 4.38609 25.1227 4.68281 25.2023 4.35516C25.2422 4.18922 24.818 3.76875 24.4898 3.58453C24.0539 3.33984 23.4 3.23437 22.7461 3.13453C22.4461 3.08812 21.9937 2.98969 21.4289 2.78578C20.8219 2.565 21.0867 2.52703 19.8914 2.35547C18.7336 2.18812 17.9883 2.41031 16.7578 2.43703C15.7805 2.45953 14.8359 2.35125 13.8891 2.25844C13.1484 2.18531 13.2938 2.025 12.0703 2.10656C10.6055 2.26125 10.4297 2.33859 9.59063 2.64797C9.12188 2.82094 7.9336 3.05016 7.48828 3.26391C6.95391 3.51984 6.37735 3.77156 5.77266 4.05422C5.41172 4.22297 4.71797 4.28766 4.35469 4.56609C3.33047 5.35781 4.89844 6.21984 4.77422 6.65297C4.6336 7.14797 3.1711 6.84281 4.0125 8.15625C4.15078 8.37141 4.48125 8.80031 4.08281 8.91422C3.72188 9.01687 3.3375 8.99297 3.1125 9.25312C2.71875 9.70734 3.3 9.97031 3.23906 10.44C3.21563 10.6144 2.78203 10.6594 2.31094 10.7592C1.3711 10.9603 1.85625 11.5861 2.92969 11.9531C3.69844 12.2161 4.81172 12.825 6.09375 12.832C6.71719 12.8348 7.43906 13.0247 9.02344 13.2019" fill="#D87D2B"/>
<path d="M13.4883 2.76047C12.8086 3.05719 11.7187 3.71672 10.8844 4.12875C10.5328 4.30313 10.5047 4.68844 10.8586 4.83609C11.9344 5.28328 13.507 5.38453 15.007 5.71219C15.3562 5.78812 16.1508 5.78109 16.643 5.52234C17.4539 5.09766 18.6562 4.52953 19.0242 4.00781C19.2937 3.62672 19.3008 3.41437 18.4336 3.3075C17.7047 3.2175 16.0453 2.8575 15.0469 2.70562C14.4117 2.60859 13.8305 2.62266 13.4883 2.76047Z" fill="#F8E1AA"/>
<path d="M5.41406 4.83469C5.22656 5.65734 7.50468 5.77406 7.57031 5.53922C7.60077 5.42391 7.22577 5.47453 6.69374 5.36344C6.4289 5.30859 6.17577 5.17641 6.00468 5.04281C5.87812 4.94438 5.89687 4.77844 5.71171 4.71797C5.61093 4.68703 5.43749 4.73344 5.41406 4.83469ZM21.9773 3.28781C23.632 3.87703 22.65 4.58438 22.0547 4.86703C21.5766 5.09484 20.557 5.61375 19.7789 5.64469C19.5516 5.65453 19.5469 5.49984 19.732 5.46188C20.543 5.29594 21.7195 4.73906 22.1039 4.30734C22.7273 3.60844 20.7891 3.51703 21.1805 3.22313C21.4617 3.21609 21.7359 3.20063 21.9773 3.28781ZM4.87734 7.37578C4.94296 7.5825 5.73515 7.98188 5.87343 7.83844C6.01171 7.65984 5.92265 7.61766 5.64843 7.52484C5.5664 7.49672 5.37187 7.44328 5.21952 7.37438C5.05077 7.29844 4.99687 7.19297 4.91718 7.22953C4.8539 7.25484 4.86562 7.33922 4.87734 7.37578Z" fill="#E9BDAA"/>
<path d="M4.62657 11.6705C4.50938 11.8575 4.90313 12.1036 5.63438 12.2737C6.85313 12.5578 8.50782 12.7378 9.04219 12.7547C9.21094 12.7603 10.1602 12.8869 10.3148 12.7223C10.4578 12.5691 9.84844 12.5691 9.76172 12.5662C9.09376 12.5494 6.34922 12.1542 6.07735 12.0966C5.76563 12.0305 5.28985 11.8856 4.99688 11.7928C4.85626 11.7478 4.79063 11.6184 4.62657 11.6705Z" fill="#E9BDAA"/>
<path d="M29.1047 10.8225C29.1047 12.0023 23.3109 13.3158 15 13.3158C6.68908 13.3158 0.895325 12.0023 0.895325 10.8225H0.391418C0.391418 12.3666 6.93283 13.6181 15 13.6181C23.0695 13.6181 29.6086 12.3666 29.6086 10.8225H29.1047Z" fill="#E4E7E9"/>
<path d="M4.01954 9.17297C3.90939 9.225 3.88361 9.35156 3.96329 9.42047C4.00079 9.45281 4.0547 9.47672 4.11095 9.49781C4.26095 9.55547 4.42267 9.59906 4.58439 9.64406L4.80236 9.70313C4.92423 9.73688 5.19611 9.78188 5.29689 9.73969C5.37658 9.70594 5.37189 9.58641 5.28048 9.56953C5.07658 9.52594 4.87267 9.48234 4.66642 9.44016C4.6172 9.43031 4.57033 9.41906 4.52345 9.40641C4.25392 9.33188 4.20236 9.21094 4.18126 9.18703C4.15783 9.15469 4.07111 9.15609 4.01954 9.17297ZM11.2055 5.54625C11.4211 5.56875 12.4805 5.75297 12.7453 6.01031C12.8602 6.12141 12.9258 6.24797 13.0125 6.3675C13.0547 6.42656 13.1414 6.49547 13.2422 6.47438C13.3008 6.46313 13.3336 6.42375 13.3524 6.38859C13.4555 6.19734 13.3711 5.96953 13.1297 5.82891C12.757 5.61234 11.482 5.39859 11.1633 5.45906C11.1024 5.47313 11.1281 5.535 11.2055 5.54625ZM12.286 8.66813C12.457 8.71594 12.6516 8.72156 12.8414 8.72156H13.1766C13.268 8.72156 13.3781 8.71453 13.418 8.66531C13.4508 8.62453 13.4133 8.57391 13.3524 8.54859C13.2914 8.52188 13.2164 8.51344 13.1438 8.50641C12.8602 8.47688 12.5766 8.44594 12.293 8.41641C12.2461 8.41078 12.1945 8.40656 12.1524 8.41922C12.1078 8.43188 11.9625 8.57672 12.286 8.66813ZM12.0563 10.582C11.9742 10.5848 11.8899 10.5891 11.8078 10.5919C11.7492 10.5947 11.6719 10.6088 11.6766 10.6439C11.6789 10.665 11.7117 10.6791 11.7422 10.6889C12.061 10.7958 12.4477 10.8056 12.811 10.7859C12.9047 10.7803 13.0031 10.7733 13.0805 10.7395C13.1578 10.7058 13.2 10.6383 13.1485 10.5905C13.0477 10.5384 12.4219 10.5933 12.0563 10.582ZM11.4422 3.29203C11.4422 3.38344 10.9992 3.40594 10.7766 3.46359C10.6688 3.49172 10.5586 3.51984 10.4602 3.56063C10.2492 3.64781 10.1086 3.78422 9.97736 3.91641C9.80861 4.08375 9.63517 4.26938 9.68908 4.46203C9.75001 4.68703 10.0969 4.91344 10.418 5.03719C10.4836 5.0625 10.5539 5.11594 10.4977 5.14828C10.2211 5.17781 9.78986 5.12016 9.62579 4.98234C9.56017 4.9275 9.53908 4.85578 9.47814 4.79813C9.35392 4.67578 9.15939 4.60828 9.12892 4.46625C9.11486 4.39734 9.16876 4.32984 9.22033 4.26797C9.33048 4.13578 9.44298 4.005 9.55314 3.87281C9.59533 3.82219 9.63751 3.77297 9.6797 3.72234C9.71954 3.67453 9.75939 3.62672 9.81798 3.58734C10.0617 3.42422 10.3781 3.43828 10.6922 3.32859C10.7883 3.29484 11.0016 3.27094 11.1024 3.24563C11.2055 3.22172 11.3766 3.23859 11.4422 3.29203Z" fill="#E9BDAA"/>
</svg>
