<svg width="35" height="28" viewBox="0 0 35 28" fill="none" xmlns="http://www.w3.org/2000/svg">
<path d="M18.5515 6.54304C18.5515 6.54304 16.0285 6.34315 15.7019 7.72682C15.3752 9.11049 16.556 10.2538 17.1262 10.3149C17.1262 10.3149 15.8842 12.7625 18.0367 14.0848C20.1892 15.407 22.4904 14.5479 23.3722 13.2595C23.3722 13.2595 27.3019 13.6356 27.475 10.7485C27.475 10.7485 27.0059 8.25026 24.6235 8.30121C24.6235 8.30121 25.286 5.58793 22.7286 5.00693C20.1712 4.42593 18.5515 6.54304 18.5515 6.54304Z" fill="#EA5A47"/>
<path d="M12.6049 12.679C14.5449 14.5791 13.9679 17.5253 13.9679 17.5253C13.9679 17.5253 10.2443 17.3907 8.30327 15.4906C6.36222 13.5905 6.93972 10.6443 6.93972 10.6443C6.93972 10.6443 10.6643 10.7804 12.6049 12.679Z" fill="#B1CC33"/>
<path d="M21.5892 14.87C22.0315 15.6384 22.5001 16.3155 23.2891 16.6445C24.1194 16.9906 25.0795 16.9073 25.7819 16.5958C26.5237 16.2665 27.0725 15.6197 27.0929 14.8089C27.1104 14.1237 26.5553 13.4385 26.0488 12.7077L23.6002 13.6535L21.5892 14.87ZM25.2545 7.80657C25.2545 7.80657 25.3497 6.53295 25.1067 6.22223C25.1067 6.22223 25.6618 5.57123 26.6078 5.71006C27.3282 5.81584 27.7414 7.0004 27.8974 7.55923C27.9519 7.75484 28.0374 7.8404 27.8731 7.99168C27.6082 8.23551 26.9967 8.69362 26.4342 8.79201L25.2545 7.80657Z" fill="#D22F27"/>
<path d="M23.5113 8.82935C23.5113 9.46362 22.4938 9.97812 21.2387 9.97812C19.9835 9.97812 18.9661 9.46362 18.9661 8.82935" fill="#EA5A47"/>
<path d="M24.5608 12.1217C24.3172 12.3884 23.8685 12.551 23.4495 12.6486C22.8911 12.7806 22.3035 12.8143 21.7272 12.7474C20.7321 12.6312 19.8065 12.2711 19.0779 11.7164C18.4092 11.2097 17.9499 10.5516 17.7615 9.83033L17.7547 9.79572C17.721 9.54698 17.7652 9.29544 17.8833 9.06375C18.0013 8.83206 18.1895 8.62748 18.4309 8.46844C18.7498 8.25299 19.2009 8.12544 19.6345 8.07799C20.2112 8.01305 20.7986 8.04874 21.3563 8.18261C22.314 8.41315 23.1572 8.87801 23.7674 9.51183C24.3275 10.0922 24.6497 10.7969 24.6901 11.5294" fill="#D22F27"/>
<path d="M18.9661 8.88185C18.9651 9.50874 19.898 9.91901 21.1609 9.96218C22.4238 10.0053 23.4743 9.52662 23.5079 8.89274V8.77024C23.4981 8.13557 22.4666 7.61368 21.2037 7.60435C19.9408 7.59501 18.9569 8.24679 18.9661 8.88185Z" fill="#EA5A47"/>
<path d="M20.9874 9.65145C20.6908 9.10039 21.1473 8.41323 22.0072 8.11611C22.4535 7.96211 22.96 7.97845 23.4048 8.1025C24.0936 8.29461 24.5763 8.83361 24.5593 9.41772C24.5596 9.498 24.5427 9.57771 24.5092 9.65339" fill="#D22F27"/>
<path d="M20.9874 9.26723C20.6908 9.8179 21.1473 10.5055 22.0072 10.8022C22.4535 10.9566 22.96 10.9398 23.4048 10.8158C24.0936 10.6237 24.5763 10.0847 24.5593 9.50057C24.5596 9.42043 24.5426 9.34084 24.5092 9.26529" fill="#D22F27"/>
<path d="M24.2414 11.8214C24.026 12.0684 23.6294 12.2181 23.259 12.3087C22.7665 12.4303 22.2461 12.4615 21.7365 12.4001C20.849 12.2893 20.0287 11.9553 19.3944 11.4466C18.7982 10.9708 18.3932 10.3635 18.2311 9.70239M19.4459 8.87523C19.4459 8.24134 20.2494 7.72684 21.2406 7.72684C22.2318 7.72684 23.0353 8.24095 23.0353 8.87523" stroke="black" stroke-width="0.5" stroke-miterlimit="10" stroke-linecap="round" stroke-linejoin="round"/>
<path d="M24.0187 9.71718C24.0187 10.1683 23.4471 10.5346 22.7417 10.5346C22.3757 10.5346 22.0315 10.4024 21.7705 10.2103C21.3656 9.91318 21.2324 9.42551 21.4618 9.02612C21.4953 8.96779 21.5357 8.91568 21.5843 8.87523M25.9136 6.18451C26.39 5.94184 27.0827 6.13084 27.4619 6.60684C27.841 7.08284 27.7618 7.6654 27.2859 7.90806M26.3448 13.9705C26.6109 14.3635 26.6723 14.8247 26.5158 15.2538C26.3592 15.6829 25.9973 16.0453 25.5087 16.2621C25.0201 16.479 24.4443 16.5328 23.9063 16.412C23.3684 16.2911 22.9118 16.0053 22.6358 15.6166M18.5515 6.29729C17.4562 5.96479 15.6746 6.77601 15.3859 7.72684C15.1088 8.63723 15.8234 10.1434 16.9186 10.4759C16.6789 10.8272 16.5285 11.2129 16.4761 11.6109C16.4237 12.0089 16.4703 12.4113 16.6132 12.7948C16.7561 13.1783 16.9926 13.5354 17.3088 13.8454C17.6251 14.1555 18.015 14.4124 18.456 14.6013C18.897 14.7902 19.3804 14.9074 19.8783 14.9461C20.3762 14.9849 20.8788 14.9443 21.357 14.8269C21.8352 14.7095 22.2797 14.5175 22.6647 14.2619C23.0497 14.0064 23.3676 13.6924 23.6002 13.3381C24.9273 13.6146 27.1187 12.8501 27.5474 11.5142C27.8362 10.6147 27.3598 8.34634 24.727 8.10212C24.8751 7.77773 24.9419 7.43317 24.9235 7.08813C24.9052 6.74309 24.8021 6.40432 24.6201 6.09115C24.4381 5.77799 24.1808 5.49658 23.8628 5.26298C23.5449 5.02937 23.1725 4.84816 22.767 4.72968C22.3615 4.61119 21.9308 4.55777 21.4995 4.57244C21.0682 4.58712 20.6448 4.66962 20.2533 4.81522C19.4627 5.10928 18.8506 5.64214 18.5515 6.29729Z" stroke="black" stroke-width="0.5" stroke-miterlimit="10" stroke-linecap="round" stroke-linejoin="round"/>
<path d="M12.6049 12.565C14.5449 14.4647 13.9679 17.411 13.9679 17.411C13.9679 17.411 10.2443 17.276 8.30327 15.3759C6.36222 13.4758 6.93972 10.5296 6.93972 10.5296C6.93972 10.5296 10.6638 10.6661 12.6044 12.5646M18.0367 15.8916C16.3654 17.2713 14.3053 19.8761 15.2031 23.9552" stroke="black" stroke-width="0.5" stroke-linecap="round" stroke-linejoin="round"/>
</svg>
