<svg width="34" height="34" viewBox="0 0 34 34" fill="none" xmlns="http://www.w3.org/2000/svg">
<g clip-path="url(#clip0_1_64)">
<path d="M12.092 22.3173C10.3355 23.0459 9.45621 23.4104 8.87376 22.9636C8.29058 22.5174 8.39002 21.5545 8.58679 19.6281L8.63751 19.1304C8.69337 18.5833 8.72164 18.3101 8.64001 18.0526C8.55977 17.7966 8.37902 17.5847 8.01679 17.1616L7.68639 16.7773C6.41125 15.291 5.77475 14.5475 5.99863 13.8606C6.22325 13.1716 7.16139 12.9947 9.03626 12.6411L9.52166 12.5494C10.0546 12.4494 10.3214 12.3991 10.5356 12.2481C10.7498 12.0971 10.887 11.8633 11.1621 11.3952L11.4131 10.9683C12.3827 9.32031 12.8665 8.49665 13.5882 8.51889C14.3106 8.54043 14.7909 9.39424 15.7523 11.1012L16.001 11.542C16.2752 12.0279 16.4115 12.2701 16.625 12.4338C16.8384 12.5975 17.1045 12.6645 17.6368 12.7972L18.1219 12.9184C19.996 13.3865 20.9324 13.6198 21.1538 14.3219C21.376 15.0232 20.7345 15.7266 19.4537 17.1356L19.1225 17.5009C18.7582 17.901 18.5763 18.1014 18.494 18.3531C18.4116 18.6048 18.4378 18.8796 18.4915 19.4308L18.5411 19.9317C18.7303 21.8694 18.8252 22.8393 18.2407 23.2502C17.6562 23.6612 16.779 23.2429 15.0253 22.4071L14.5724 22.191C14.0731 21.9528 13.8249 21.8338 13.5606 21.8262C13.2955 21.8179 13.0461 21.9223 12.5466 22.1289L12.092 22.3173Z" fill="#F7AE01"/>
<path opacity="0.5" d="M19.9118 23.4862C23.2785 23.6249 27.1849 22.0774 30.9101 17.0173C28.3819 18.1456 25.0362 17.7839 21.989 16.4784C21.6358 16.9664 21.148 17.5036 20.6335 18.0692L20.2323 18.5104C20.1355 18.6166 20.0397 18.7238 19.945 18.8319L19.9536 18.9431L19.9849 19.2852L20.044 19.8882C20.13 20.7695 20.2113 21.5885 20.1791 22.235C20.1612 22.6039 20.1021 23.054 19.9118 23.4862ZM20.6113 15.8135L20.5397 15.9034L20.5735 15.793L20.6113 15.8135Z" fill="#FFE267"/>
</g>
<defs>
<clipPath id="clip0_1_64">
<rect width="24" height="24" fill="white" transform="translate(16.6934 33.9678) rotate(-133.965)"/>
</clipPath>
</defs>
</svg>
