<svg width="24" height="24" viewBox="0 0 24 24" fill="none" xmlns="http://www.w3.org/2000/svg">
<path d="M11.58 4.77601C12.275 3.00601 12.623 2.12001 13.349 2.01101C14.075 1.90101 14.699 2.64101 15.949 4.12001L16.272 4.50201C16.627 4.92201 16.804 5.13201 17.046 5.25201C17.286 5.37201 17.564 5.38901 18.12 5.42201L18.626 5.45101C20.581 5.56501 21.558 5.62301 21.897 6.26101C22.237 6.90101 21.713 7.69901 20.666 9.29401L20.395 9.70701C20.097 10.16 19.948 10.387 19.908 10.646C19.868 10.905 19.941 11.166 20.087 11.689L20.22 12.166C20.733 14.008 20.99 14.928 20.473 15.432C19.956 15.937 19.008 15.69 17.112 15.197L16.622 15.07C16.082 14.93 15.813 14.86 15.547 14.9C15.281 14.94 15.048 15.085 14.583 15.376L14.159 15.641C12.521 16.665 11.703 17.177 11.044 16.849C10.385 16.522 10.324 15.572 10.199 13.672L10.166 13.18C10.131 12.64 10.113 12.37 9.98899 12.136C9.86499 11.902 9.64899 11.73 9.21499 11.386L8.81999 11.074C7.29399 9.86501 6.52999 9.26001 6.63999 8.55401C6.74999 7.84801 7.65999 7.50701 9.47899 6.82501L9.94899 6.64901C10.467 6.45501 10.725 6.35901 10.914 6.17401C11.104 5.98901 11.202 5.73701 11.4 5.23401L11.58 4.77601Z" fill="#F7AE01"/>
<path opacity="0.5" d="M5.30999 9.59299C2.87299 11.92 1.27499 15.806 2.33099 22C3.27399 19.397 5.85699 17.24 8.91199 15.953C8.80599 15.36 8.75799 14.636 8.70799 13.873L8.66899 13.278C8.65973 13.1346 8.64906 12.9912 8.63699 12.848L8.55099 12.777L8.28299 12.562L7.80799 12.186C7.11399 11.636 6.46799 11.126 6.02499 10.654C5.77199 10.385 5.48899 10.03 5.30999 9.59299ZM10.347 15.423L10.332 15.309L10.388 15.41L10.347 15.423Z" fill="#FFE267"/>
</svg>
