<svg width="31" height="31" viewBox="0 0 31 31" fill="none" xmlns="http://www.w3.org/2000/svg">
<g clip-path="url(#clip0_1_121)">
<path d="M15.3547 15.0738C15.3547 15.0738 1.69531 16.292 1.75828 17.222C1.82125 18.152 1.98352 21.5499 2.81664 22.5452C3.64977 23.5406 6.79336 25.4951 9.1668 26.7448C11.5402 27.9945 15.8681 30.1112 18.273 30.0482C20.678 29.9852 25.0398 26.1684 25.2311 25.1754C25.4224 24.1824 25.1681 20.6223 25.1681 20.6223L15.3547 15.0738Z" fill="#C9CABB"/>
<path d="M10.8016 7.1203L6.60203 8.56374C6.60203 8.56374 6.70859 9.79163 6.92172 10.6151C7.17843 11.608 7.78633 13.95 9.84008 14.8146C11.8914 15.6792 23.1144 18.181 23.7877 17.9897C24.4609 17.7983 26.5462 16.0982 27.3139 15.4564C28.0841 14.8146 19.8739 6.57538 19.8739 6.57538L10.8016 7.1203Z" fill="#C9CABB"/>
<path d="M12.5332 6.80063L7.69187 7.7936C7.69187 7.7936 8.26828 12.3782 9.26367 13.1169C10.2591 13.8556 22.2183 16.8684 22.9545 16.7715C23.6932 16.6746 26.4178 14.6548 26.4178 14.6548C26.4178 14.6548 27.1565 12.09 27.1226 11.9931C27.0911 11.8987 12.5332 6.80063 12.5332 6.80063ZM2.94742 17.5416C2.94742 17.5416 3.13875 21.0049 3.6207 21.6128C4.10265 22.2231 6.73039 24.3059 10.1937 25.9746C13.6569 27.6433 16.9919 28.6677 18.3384 28.6992C19.685 28.7307 23.7901 25.4927 24.1098 24.8509C24.4295 24.2091 23.7562 20.5859 23.7562 20.5859L2.94742 17.5416Z" fill="white"/>
<path d="M5.99172 9.58819C7.08883 10.0895 7.82024 7.88804 11.1866 7.85655C14.553 7.82507 17.5998 9.61968 19.7165 10.678C21.8332 11.7364 26.1926 15.2626 27.5077 15.6477C28.8227 16.0328 30.0409 14.7177 30.0095 12.9546C29.978 11.1915 29.2393 6.4446 24.4295 3.3664C19.6196 0.288195 13.4099 0.508586 9.68992 2.3032C5.95781 4.10991 3.93071 8.64609 5.99172 9.58819Z" fill="#FF6110"/>
<path d="M9.06508 9.77227C9.11594 10.1477 9.62938 10.1961 10.1695 10.1065C10.5666 10.0411 11.0946 9.83766 11.0171 9.38719C10.9614 9.0554 10.3366 8.96337 9.87399 9.06751C9.41141 9.17165 9.01422 9.3993 9.06508 9.77227ZM18.152 12.2474C18.0769 12.6931 18.6266 12.8626 19.2176 12.928C19.8085 12.9909 20.2445 12.9788 20.3341 12.555C20.4237 12.1312 19.8206 11.9253 19.3726 11.8745C18.9245 11.8236 18.227 11.7873 18.152 12.2474ZM22.0148 13.686C21.7388 13.9258 21.8477 14.3012 22.3878 14.7904C22.9279 15.2772 23.2863 15.2772 23.4922 15.0471C23.698 14.817 23.3638 14.277 23.0563 13.9936C22.7463 13.7127 22.3079 13.4293 22.0148 13.686ZM4.05907 20.6295C3.72969 21.017 4.04696 21.4772 4.61125 21.9519C5.17555 22.4266 5.64539 22.8722 5.99657 22.5283C6.47125 22.0657 5.75196 21.4239 5.35477 21.0776C4.95758 20.7313 4.41992 20.2057 4.05907 20.6295ZM6.34532 20.7313C6.17578 21.0437 6.36711 21.3779 6.94836 21.6685C7.51266 21.9519 7.82024 21.9374 8.01399 21.6298C8.20774 21.3222 7.75727 20.8984 7.32133 20.7046C6.88297 20.5133 6.51 20.4237 6.34532 20.7313ZM6.83211 23.2524C6.81031 23.6157 6.9411 23.9015 8.04789 24.0081C9.15469 24.117 9.36297 23.778 9.37266 23.4946C9.38719 23.0902 8.99485 22.8601 8.18352 22.8044C7.37219 22.7511 6.85875 22.7923 6.83211 23.2524Z" fill="#D4D3D4"/>
<path d="M7.59985 9.01421C7.47149 8.33124 7.32133 7.4085 7.53446 6.29202C7.87352 4.51194 9.16922 2.85296 11.3877 1.64928C12.3758 1.32718 13.5407 1.13585 14.4659 1.0535C14.8146 1.02202 15.1295 1.00749 15.3886 1.00507C14.8582 1.17702 13.7248 1.441 12.6059 1.96413C10.2324 3.07335 8.85438 4.73475 8.53953 6.38889C8.38938 7.17842 8.41844 7.91467 8.49594 8.47897C8.1811 8.65577 7.85657 8.83741 7.59985 9.01421ZM12.9909 8.00428C12.9837 7.176 13.1556 6.02319 13.9912 5.06171C15.3692 3.47538 17.5586 2.66405 18.9609 2.28866C19.6995 2.09007 20.5545 1.96897 21.3876 1.89874C21.763 2.0271 22.4411 2.26928 23.2694 2.70038C22.2062 2.68585 20.8378 2.74882 19.6923 3.05639C17.4884 3.64975 15.6623 4.62335 14.7783 5.64053C14.0638 6.46155 13.9548 7.51264 13.9815 8.21741C13.5722 8.12053 13.3227 8.06725 12.9909 8.00428ZM17.7427 9.6778C17.9945 8.94881 18.4692 8.0285 19.3702 7.28741C21.7121 5.36444 24.2575 5.14405 25.0495 5.06171C25.5411 5.01085 26.0255 4.98663 26.4638 4.98178C26.7641 5.27241 27.1347 5.66718 27.3478 5.94327C26.8102 5.91905 26.0981 5.91663 25.3667 5.99655C24.8509 6.05225 22.0366 6.40827 20.0895 8.00671C19.2999 8.65577 18.8761 9.49616 18.6509 10.138C18.336 9.98296 18.1205 9.86428 17.7427 9.6778ZM22.0415 12.1166C22.4048 11.579 23.0466 10.7846 24.008 10.1622C25.6162 9.11835 27.0863 8.76233 28.8906 8.76233C28.9463 8.76233 29.002 8.76233 29.0577 8.76475C29.2345 9.15467 29.3531 9.51796 29.4355 9.75772C29.2659 9.74077 29.0843 9.73108 28.8906 9.73108C27.2848 9.73108 25.9819 10.0847 24.5409 11.0195C23.7198 11.5523 23.1604 12.228 22.848 12.6737C22.4605 12.4097 22.2207 12.245 22.0415 12.1166Z" fill="#FE8E6E"/>
<path d="M7.35523 4.8389C7.59258 4.96726 7.50539 5.57757 7.20508 6.04015C6.90476 6.50031 6.59476 6.86601 6.25086 6.70375C5.90695 6.5439 6.14429 5.80281 6.35742 5.46132C6.57297 5.11742 6.96047 4.62578 7.35523 4.8389ZM12.0512 3.97187C12.5211 4.50953 11.6226 4.8825 11.5693 5.38625C11.516 5.89 11.9398 5.67929 11.9132 6.2121C11.8817 6.82242 9.67297 7.25109 9.37265 6.15882C9.06992 5.06414 11.3973 3.22109 12.0512 3.97187ZM16.9991 5.25062C16.6431 4.88492 15.7446 5.19734 15.2191 5.75437C14.6935 6.3114 14.5555 7.27531 15.5073 7.6289C16.4615 7.9825 16.6867 7.45695 16.6213 7.23171C16.5802 7.08398 16.4615 6.73765 16.5995 6.49304C16.7424 6.24843 17.4278 5.6914 16.9991 5.25062Z" fill="#F6FFFE"/>
<path d="M9.83039 14.0251C9.83039 14.0251 1.22063 15.0229 1.04867 15.8148C0.845234 16.7545 1.00266 17.4496 1.38289 17.9146C2.04164 18.7211 4.77594 19.0069 8.45477 20.7385C11.8042 22.3151 13.1459 23.1652 15.1149 24.163C17.0839 25.1608 18.5395 25.5653 19.9684 25.2141C21.3973 24.863 23.0417 24.2696 24.4173 23.1652C25.4563 22.3297 25.8317 21.1502 25.7373 19.9562C25.6573 18.9391 25.1173 17.8541 24.444 17.314C23.7683 16.7739 9.85703 13.9161 9.83039 14.0251Z" fill="#CC1935"/>
<path d="M7.64586 11.4627C2.7125 12.3782 0.94211 15.2675 1.06078 15.9093C1.13586 16.3138 2.16758 16.1127 6.19273 17.5295C12.0173 19.5784 16.6601 22.0197 18.3045 22.2909C20.5666 22.6615 22.8746 21.3658 23.778 20.6998C25.2384 19.622 25.4127 18.5007 24.8751 17.7741C24.3326 17.0452 21.1817 14.0469 16.4905 12.3782C12.7512 11.051 10.3269 10.9638 7.64586 11.4627Z" fill="#FF605F"/>
<path d="M4.15594 13.3518C3.59406 13.2888 1.56453 14.5603 2.28141 15.7034C3.0007 16.849 6.38164 16.6819 6.4543 15.8391C6.53906 14.8679 4.56039 14.8703 4.27945 14.4537C3.99852 14.0396 4.81711 13.4269 4.15594 13.3518Z" fill="#F9FFFF"/>
</g>
<defs>
<clipPath id="clip0_1_121">
<rect width="31" height="31" fill="white"/>
</clipPath>
</defs>
</svg>
